ReuvenSerif.sfdir
StartChar: exclam
Encoding: 1 33 102
Width: 538
VWidth: 1738
Flags: W
LayerCount: 2
Fore
SplineSet
319 349 m 1,0,-1
 261 349 l 1,1,-1
 179 1104 l 1,2,3
 179 1149 179 1149 208.5 1172 c 128,-1,4
 238 1195 238 1195 290 1195 c 256,5,6
 342 1195 342 1195 372 1171.5 c 128,-1,7
 402 1148 402 1148 402 1104 c 1,8,-1
 319 349 l 1,0,-1
178 97 m 0,9,10
 178 143 178 143 209.5 177.5 c 128,-1,11
 241 212 241 212 290 212 c 256,12,13
 340 212 340 212 371.5 177.5 c 128,-1,14
 403 143 403 143 403 97 c 0,15,16
 403 52 403 52 371.5 18.5 c 128,-1,17
 340 -15 340 -15 290 -15 c 256,18,19
 240 -15 240 -15 209 18.5 c 128,-1,20
 178 52 178 52 178 97 c 0,9,10
EndSplineSet
Validated: 1
EndChar
StartChar: quotesingle
Encoding: 7 39 108
Width: 386
VWidth: 1738
Flags: W
LayerCount: 2
Fore
SplineSet
217 744 m 1,0,-1
 168 744 l 1,1,-1
 102 1209 l 1,2,3
 102 1238 102 1238 128.5 1254.5 c 128,-1,4
 155 1271 155 1271 194 1271 c 0,5,6
 213 1271 213 1271 229 1267 c 128,-1,7
 245 1263 245 1263 258 1255 c 128,-1,8
 271 1247 271 1247 278 1235.5 c 128,-1,9
 285 1224 285 1224 285 1209 c 2,10,-1
 217 744 l 1,0,-1
EndSplineSet
Validated: 1
EndChar
StartChar: parenleft
Encoding: 8 40 109
Width: 615
VWidth: 1738
Flags: W
LayerCount: 2
Fore
SplineSet
515 1232 m 1,0,1
 227 1002 227 1002 226 479 c 0,2,3
 226 -44 226 -44 515 -272 c 1,4,-1
 479 -307 l 1,5,6
 92 -19 92 -19 94 479 c 0,7,8
 94 995 94 995 479 1266 c 1,9,-1
 515 1232 l 1,0,1
EndSplineSet
Validated: 33
EndChar
StartChar: parenright
Encoding: 9 41 110
Width: 615
VWidth: 1738
Flags: W
LayerCount: 2
Fore
SplineSet
137 1266 m 1,0,1
 524 995 524 995 523 479 c 0,2,3
 523 -19 523 -19 137 -307 c 1,4,-1
 102 -272 l 1,5,6
 390 -43 390 -43 390 479 c 0,7,8
 390 1001 390 1001 102 1232 c 1,9,-1
 137 1266 l 1,0,1
EndSplineSet
Validated: 33
EndChar
StartChar: asterisk
Encoding: 10 42 111
Width: 770
VWidth: 1738
Flags: W
LayerCount: 2
Fore
SplineSet
474 1153 m 0,0,1
 469 1142 469 1142 460.5 1123.5 c 128,-1,2
 452 1105 452 1105 441 1082 c 128,-1,3
 430 1059 430 1059 418 1030 c 128,-1,4
 406 1001 406 1001 397 970 c 1,5,6
 429 980 429 980 457 991.5 c 128,-1,7
 485 1003 485 1003 508.5 1015 c 128,-1,8
 532 1027 532 1027 549 1036.5 c 128,-1,9
 566 1046 566 1046 577 1051 c 0,10,11
 594 1059 594 1059 616 1060 c 0,12,13
 633 1060 633 1060 650 1055.5 c 128,-1,14
 667 1051 667 1051 681 1043.5 c 128,-1,15
 695 1036 695 1036 703 1025 c 128,-1,16
 711 1014 711 1014 711 1000 c 256,17,18
 711 986 711 986 703 973.5 c 128,-1,19
 695 961 695 961 681.5 950 c 128,-1,20
 668 939 668 939 651.5 931 c 128,-1,21
 635 923 635 923 616 919 c 0,22,23
 608 918 608 918 599 919 c 0,24,25
 587 920 587 920 567.5 923.5 c 128,-1,26
 548 927 548 927 522.5 930 c 128,-1,27
 497 933 497 933 466 935.5 c 128,-1,28
 435 938 435 938 402 938 c 1,29,30
 422 911 422 911 441.5 888 c 128,-1,31
 461 865 461 865 479 846.5 c 128,-1,32
 497 828 497 828 511 814.5 c 128,-1,33
 525 801 525 801 534 794 c 0,34,35
 540 789 540 789 544 781 c 0,36,37
 551 766 551 766 555.5 748.5 c 128,-1,38
 560 731 560 731 560 715 c 0,39,40
 560 688 560 688 548.5 668 c 128,-1,41
 537 648 537 648 513 648 c 0,42,43
 501 648 501 648 488 653.5 c 128,-1,44
 475 659 475 659 463 668 c 128,-1,45
 451 677 451 677 440.5 689 c 128,-1,46
 430 701 430 701 422 715 c 0,47,48
 418 722 418 722 417 731 c 0,49,50
 414 742 414 742 410 761.5 c 128,-1,51
 406 781 406 781 401.5 805.5 c 128,-1,52
 397 830 397 830 389.5 859.5 c 128,-1,53
 382 889 382 889 372 920 c 1,54,55
 352 893 352 893 336.5 867 c 128,-1,56
 321 841 321 841 309 818 c 128,-1,57
 297 795 297 795 288 777 c 128,-1,58
 279 759 279 759 275 749 c 0,59,60
 273 744 273 744 271.5 741 c 128,-1,61
 270 738 270 738 265 734 c 0,62,63
 247 716 247 716 222 705.5 c 128,-1,64
 197 695 197 695 176 695 c 0,65,66
 126 695 126 695 126 744 c 0,67,68
 126 766 126 766 137 789.5 c 128,-1,69
 148 813 148 813 165 831 c 0,70,71
 168 835 168 835 171 837.5 c 128,-1,72
 174 840 174 840 178 841 c 0,73,74
 200 854 200 854 247 878.5 c 128,-1,75
 294 903 294 903 347 944 c 1,76,77
 315 954 315 954 285 960.5 c 128,-1,78
 255 967 255 967 229.5 970.5 c 128,-1,79
 204 974 204 974 184 977 c 128,-1,80
 164 980 164 980 153 982 c 0,81,82
 148 983 148 983 144.5 984 c 128,-1,83
 141 985 141 985 137 987 c 0,84,85
 107 1001 107 1001 87.5 1028 c 128,-1,86
 68 1055 68 1055 68 1080 c 0,87,88
 68 1105 68 1105 89 1116 c 128,-1,89
 110 1127 110 1127 137 1127 c 0,90,91
 169 1127 169 1127 197 1114 c 0,92,93
 204 1110 204 1110 212 1104 c 0,94,95
 220 1095 220 1095 235 1080.5 c 128,-1,96
 250 1066 250 1066 269 1049 c 128,-1,97
 288 1032 288 1032 312 1012.5 c 128,-1,98
 336 993 336 993 364 973 c 1,99,100
 364 1006 364 1006 361 1037.5 c 128,-1,101
 358 1069 358 1069 354 1094.5 c 128,-1,102
 350 1120 350 1120 346.5 1140.5 c 128,-1,103
 343 1161 343 1161 342 1173 c 0,104,105
 341 1181 341 1181 342 1190 c 0,106,107
 345 1208 345 1208 352 1225 c 128,-1,108
 359 1242 359 1242 369.5 1255.5 c 128,-1,109
 380 1269 380 1269 393 1277.5 c 128,-1,110
 406 1286 406 1286 419 1286 c 0,111,112
 435 1286 435 1286 448 1275.5 c 128,-1,113
 461 1265 461 1265 468 1247 c 128,-1,114
 475 1229 475 1229 478 1209 c 128,-1,115
 481 1189 481 1189 479 1170 c 0,116,117
 479 1160 479 1160 474 1153 c 0,0,1
EndSplineSet
Validated: 1
EndChar
StartChar: plus
Encoding: 11 43 112
Width: 976
VWidth: 1738
Flags: W
LayerCount: 2
Fore
SplineSet
890 438 m 1,0,1
 893 401 893 401 890 364 c 1,2,-1
 525 364 l 1,3,-1
 525 0 l 1,4,5
 488 -3 488 -3 452 0 c 1,6,-1
 452 364 l 1,7,-1
 87 364 l 1,8,9
 84 401 84 401 87 438 c 1,10,-1
 452 438 l 1,11,-1
 452 803 l 1,12,13
 489 806 489 806 525 803 c 1,14,-1
 525 438 l 1,15,-1
 890 438 l 1,0,1
EndSplineSet
Validated: 33
EndChar
StartChar: comma
Encoding: 12 44 113
Width: 482
VWidth: 1738
Flags: W
LayerCount: 2
Fore
SplineSet
268 33 m 1,0,1
 254 20 254 20 238 14 c 128,-1,2
 222 8 222 8 206 8 c 0,3,4
 187 8 187 8 170.5 15.5 c 128,-1,5
 154 23 154 23 141 37 c 128,-1,6
 128 51 128 51 120.5 69 c 128,-1,7
 113 87 113 87 113 110 c 0,8,9
 113 135 113 135 122.5 156.5 c 128,-1,10
 132 178 132 178 148.5 193.5 c 128,-1,11
 165 209 165 209 186 217.5 c 128,-1,12
 207 226 207 226 232 226 c 0,13,14
 269 226 269 226 296.5 210.5 c 128,-1,15
 324 195 324 195 342 168.5 c 128,-1,16
 360 142 360 142 369.5 108 c 128,-1,17
 379 74 379 74 379 37 c 0,18,19
 379 -14 379 -14 365 -65.5 c 128,-1,20
 351 -117 351 -117 321.5 -163.5 c 128,-1,21
 292 -210 292 -210 247.5 -249 c 128,-1,22
 203 -288 203 -288 142 -316 c 1,23,-1
 118 -271 l 1,24,25
 156 -250 156 -250 187 -223.5 c 128,-1,26
 218 -197 218 -197 239.5 -168 c 128,-1,27
 261 -139 261 -139 273 -107 c 128,-1,28
 285 -75 285 -75 285 -41 c 0,29,30
 285 -22 285 -22 282 -5 c 128,-1,31
 279 12 279 12 268 33 c 1,0,1
EndSplineSet
Validated: 1
EndChar
StartChar: period
Encoding: 14 46 115
Width: 482
VWidth: 1738
Flags: W
LayerCount: 2
Fore
SplineSet
127 99 m 1,0,1
 127 145 127 145 159 179.5 c 128,-1,2
 191 214 191 214 241 214 c 0,3,4
 292 214 292 214 324 179.5 c 128,-1,5
 356 145 356 145 356 99 c 256,6,7
 356 53 356 53 323.5 19 c 128,-1,8
 291 -15 291 -15 241 -15 c 0,9,10
 191 -15 191 -15 159 19 c 128,-1,11
 127 53 127 53 127 99 c 1,12,-1
 127 99 l 1,0,1
EndSplineSet
Validated: 5
EndChar
StartChar: zero
Encoding: 16 48 117
Width: 868
VWidth: 1738
Flags: W
LayerCount: 2
Fore
SplineSet
431 917 m 0,0,1
 368 917 368 917 326.5 884 c 128,-1,2
 285 851 285 851 260 794 c 128,-1,3
 235 737 235 737 224.5 663 c 128,-1,4
 214 589 214 589 214 506 c 0,5,6
 214 450 214 450 219 395 c 128,-1,7
 224 340 224 340 234.5 289 c 128,-1,8
 245 238 245 238 262.5 194 c 128,-1,9
 280 150 280 150 304.5 117.5 c 128,-1,10
 329 85 329 85 362.5 66.5 c 128,-1,11
 396 48 396 48 438 48 c 0,12,13
 499 48 499 48 540.5 81 c 128,-1,14
 582 114 582 114 608 170.5 c 128,-1,15
 634 227 634 227 644.5 301 c 128,-1,16
 655 375 655 375 655 459 c 0,17,18
 655 515 655 515 650.5 570.5 c 128,-1,19
 646 626 646 626 635 677 c 128,-1,20
 624 728 624 728 606.5 772.5 c 128,-1,21
 589 817 589 817 564.5 849 c 128,-1,22
 540 881 540 881 506.5 899 c 128,-1,23
 473 917 473 917 431 917 c 0,0,1
808 483 m 0,24,25
 808 373 808 373 783 282 c 128,-1,26
 758 191 758 191 710.5 125 c 128,-1,27
 663 59 663 59 594 22.5 c 128,-1,28
 525 -14 525 -14 435 -14 c 0,29,30
 340 -14 340 -14 270.5 23.5 c 128,-1,31
 201 61 201 61 154.5 128 c 128,-1,32
 108 195 108 195 85 285.5 c 128,-1,33
 62 376 62 376 62 482 c 0,34,35
 62 580 62 580 84.5 670.5 c 128,-1,36
 107 761 107 761 153 830 c 128,-1,37
 199 899 199 899 269.5 939.5 c 128,-1,38
 340 980 340 980 435 980 c 0,39,40
 537 980 537 980 608 939.5 c 128,-1,41
 679 899 679 899 723.5 830.5 c 128,-1,42
 768 762 768 762 788 671.5 c 128,-1,43
 808 581 808 581 808 483 c 0,24,25
EndSplineSet
Validated: 1
EndChar
StartChar: one
Encoding: 17 49 118
Width: 868
VWidth: 1738
Flags: W
LayerCount: 2
Fore
SplineSet
725 -1 m 1,0,1
 702 -1 702 -1 676.5 0 c 128,-1,2
 651 1 651 1 619 2 c 128,-1,3
 587 3 587 3 546 4 c 128,-1,4
 505 5 505 5 450 5 c 0,5,6
 399 5 399 5 358.5 4 c 128,-1,7
 318 3 318 3 284.5 2 c 128,-1,8
 251 1 251 1 221.5 0 c 128,-1,9
 192 -1 192 -1 165 -1 c 1,10,11
 160 27 160 27 165 53 c 1,12,13
 243 58 243 58 285 63 c 128,-1,14
 327 68 327 68 346.5 81.5 c 128,-1,15
 366 95 366 95 369.5 118 c 128,-1,16
 373 141 373 141 373 183 c 2,17,-1
 373 762 l 2,18,19
 373 795 373 795 366.5 810 c 128,-1,20
 360 825 360 825 335 825 c 0,21,22
 304 825 304 825 261.5 819 c 128,-1,23
 219 813 219 813 149 797 c 1,24,25
 142 809 142 809 139 822.5 c 128,-1,26
 136 836 136 836 134 851 c 1,27,28
 198 867 198 867 249 882.5 c 128,-1,29
 300 898 300 898 347.5 913 c 128,-1,30
 395 928 395 928 441.5 945.5 c 128,-1,31
 488 963 488 963 540 983 c 1,32,33
 558 969 558 969 567 946 c 1,34,35
 546 924 546 924 535.5 879.5 c 128,-1,36
 525 835 525 835 525 768 c 2,37,-1
 525 199 l 2,38,39
 525 167 525 167 525.5 145 c 128,-1,40
 526 123 526 123 531.5 107.5 c 128,-1,41
 537 92 537 92 549.5 83 c 128,-1,42
 562 74 562 74 584.5 68.5 c 128,-1,43
 607 63 607 63 641 60.5 c 128,-1,44
 675 58 675 58 725 54 c 1,45,46
 729 26 729 26 725 -1 c 1,0,1
EndSplineSet
Validated: 1
EndChar
StartChar: two
Encoding: 18 50 119
Width: 868
VWidth: 1738
Flags: W
LayerCount: 2
Fore
SplineSet
111 799 m 1,0,1
 103 808 103 808 96.5 818.5 c 128,-1,2
 90 829 90 829 86 839 c 1,3,4
 154 914 154 914 232 948.5 c 128,-1,5
 310 983 310 983 402 983 c 0,6,7
 469 983 469 983 525.5 966 c 128,-1,8
 582 949 582 949 622 917.5 c 128,-1,9
 662 886 662 886 685 841.5 c 128,-1,10
 708 797 708 797 708 742 c 0,11,12
 708 679 708 679 676.5 612 c 128,-1,13
 645 545 645 545 585 470 c 128,-1,14
 525 395 525 395 436 310 c 128,-1,15
 347 225 347 225 231 126 c 1,16,17
 267 126 267 126 310.5 126.5 c 128,-1,18
 354 127 354 127 400 128 c 128,-1,19
 446 129 446 129 490 129.5 c 128,-1,20
 534 130 534 130 570 132 c 0,21,22
 601 133 601 133 620 135.5 c 128,-1,23
 639 138 639 138 655.5 150 c 128,-1,24
 672 162 672 162 689 188 c 128,-1,25
 706 214 706 214 730 262 c 1,26,27
 740 262 740 262 751 261 c 128,-1,28
 762 260 762 260 774 256 c 1,29,30
 757 189 757 189 743 125 c 128,-1,31
 729 61 729 61 717 -1 c 1,32,33
 669 0 669 0 615.5 1 c 128,-1,34
 562 2 562 2 507.5 2.5 c 128,-1,35
 453 3 453 3 400 3 c 128,-1,36
 347 3 347 3 301 3 c 0,37,38
 211 3 211 3 150.5 2.5 c 128,-1,39
 90 2 90 2 59 0 c 1,40,41
 52 22 52 22 51 47 c 1,42,43
 192 155 192 155 287.5 247 c 128,-1,44
 383 339 383 339 440.5 417.5 c 128,-1,45
 498 496 498 496 522.5 562.5 c 128,-1,46
 547 629 547 629 547 686 c 0,47,48
 547 738 547 738 529 774.5 c 128,-1,49
 511 811 511 811 481.5 833 c 128,-1,50
 452 855 452 855 412.5 864.5 c 128,-1,51
 373 874 373 874 332 874 c 0,52,53
 276 874 276 874 218 855 c 128,-1,54
 160 836 160 836 111 799 c 1,0,1
EndSplineSet
Validated: 1
EndChar
StartChar: three
Encoding: 19 51 120
Width: 868
VWidth: 1738
Flags: W
LayerCount: 2
Fore
SplineSet
272 348 m 1,0,1
 265 362 265 362 260.5 374 c 128,-1,2
 256 386 256 386 253 397 c 1,3,4
 331 419 331 419 387.5 454 c 128,-1,5
 444 489 444 489 481.5 530 c 128,-1,6
 519 571 519 571 537.5 615 c 128,-1,7
 556 659 556 659 556 700 c 0,8,9
 556 736 556 736 543 767 c 128,-1,10
 530 798 530 798 503.5 822 c 128,-1,11
 477 846 477 846 438.5 859.5 c 128,-1,12
 400 873 400 873 349 873 c 0,13,14
 296 873 296 873 239 854 c 128,-1,15
 182 835 182 835 132 798 c 1,16,17
 124 807 124 807 117.5 817.5 c 128,-1,18
 111 828 111 828 107 838 c 1,19,20
 175 913 175 913 252 947.5 c 128,-1,21
 329 982 329 982 421 982 c 0,22,23
 492 982 492 982 546 964 c 128,-1,24
 600 946 600 946 635.5 915.5 c 128,-1,25
 671 885 671 885 689.5 845 c 128,-1,26
 708 805 708 805 708 761 c 0,27,28
 708 721 708 721 695.5 679.5 c 128,-1,29
 683 638 683 638 658 598 c 128,-1,30
 633 558 633 558 594 520 c 128,-1,31
 555 482 555 482 503 450 c 1,32,33
 571 439 571 439 624 412.5 c 128,-1,34
 677 386 677 386 711.5 346 c 128,-1,35
 746 306 746 306 764 255.5 c 128,-1,36
 782 205 782 205 782 146 c 0,37,38
 782 86 782 86 763.5 34 c 128,-1,39
 745 -18 745 -18 712.5 -60.5 c 128,-1,40
 680 -103 680 -103 637 -135.5 c 128,-1,41
 594 -168 594 -168 544 -190 c 128,-1,42
 494 -212 494 -212 440.5 -223 c 128,-1,43
 387 -234 387 -234 333 -234 c 256,44,45
 281 -234 281 -234 234 -224 c 128,-1,46
 187 -214 187 -214 151 -194.5 c 128,-1,47
 115 -175 115 -175 94 -146.5 c 128,-1,48
 73 -118 73 -118 73 -80 c 0,49,50
 73 -41 73 -41 93 -24 c 128,-1,51
 113 -7 113 -7 142 -7 c 0,52,53
 162 -7 162 -7 182.5 -18 c 128,-1,54
 203 -29 203 -29 221.5 -49 c 128,-1,55
 240 -69 240 -69 255 -99 c 128,-1,56
 270 -129 270 -129 278 -168 c 1,57,58
 297 -173 297 -173 314.5 -173.5 c 128,-1,59
 332 -174 332 -174 349 -174 c 0,60,61
 413 -174 413 -174 466 -151.5 c 128,-1,62
 519 -129 519 -129 556.5 -91 c 128,-1,63
 594 -53 594 -53 615 -4 c 128,-1,64
 636 45 636 45 636 97 c 0,65,66
 636 147 636 147 619 194 c 128,-1,67
 602 241 602 241 568 278 c 128,-1,68
 534 315 534 315 484 338 c 128,-1,69
 434 361 434 361 369 361 c 0,70,71
 321 362 321 362 272 348 c 1,0,1
EndSplineSet
Validated: 33
EndChar
StartChar: four
Encoding: 20 52 121
Width: 868
VWidth: 1738
Flags: W
LayerCount: 2
Fore
SplineSet
673 165 m 1,0,-1
 673 -212 l 1,1,2
 634 -215 634 -215 597 -214 c 256,3,4
 560 -214 560 -214 523 -212 c 1,5,-1
 523 165 l 1,6,-1
 29 165 l 1,7,8
 24 210 24 210 23 253 c 1,9,10
 155 438 155 438 289 615 c 128,-1,11
 423 792 423 792 564 971 c 1,12,13
 623 969 623 969 676 960 c 1,14,15
 674 912 674 912 673.5 884 c 128,-1,16
 673 856 673 856 673 834 c 2,17,-1
 673 281 l 1,18,-1
 845 281 l 1,19,20
 844 254 844 254 842.5 223.5 c 128,-1,21
 841 193 841 193 837 165 c 1,22,-1
 673 165 l 1,0,-1
523 818 m 1,23,24
 418 685 418 685 321 551 c 128,-1,25
 224 417 224 417 129 281 c 1,26,-1
 523 281 l 1,27,-1
 523 818 l 1,23,24
EndSplineSet
Validated: 33
EndChar
StartChar: five
Encoding: 21 53 122
Width: 868
VWidth: 1738
Flags: W
LayerCount: 2
Fore
SplineSet
743 964 m 1,0,1
 737 928 737 928 729 891 c 128,-1,2
 721 854 721 854 709 818 c 1,3,-1
 252 818 l 1,4,-1
 215 554 l 1,5,6
 256 561 256 561 297.5 566 c 128,-1,7
 339 571 339 571 373 571 c 0,8,9
 485 571 485 571 560.5 536.5 c 128,-1,10
 636 502 636 502 682.5 449 c 128,-1,11
 729 396 729 396 748.5 332.5 c 128,-1,12
 768 269 768 269 768 210 c 0,13,14
 768 130 768 130 747.5 66 c 128,-1,15
 727 2 727 2 692.5 -47 c 128,-1,16
 658 -96 658 -96 612 -132 c 128,-1,17
 566 -168 566 -168 515.5 -191 c 128,-1,18
 465 -214 465 -214 412.5 -224.5 c 128,-1,19
 360 -235 360 -235 313 -235 c 0,20,21
 259 -235 259 -235 210 -223.5 c 128,-1,22
 161 -212 161 -212 125 -190.5 c 128,-1,23
 89 -169 89 -169 68 -140.5 c 128,-1,24
 47 -112 47 -112 47 -78 c 0,25,26
 47 -39 47 -39 67 -21 c 128,-1,27
 87 -3 87 -3 114 -3 c 0,28,29
 132 -3 132 -3 151.5 -12.5 c 128,-1,30
 171 -22 171 -22 189.5 -42.5 c 128,-1,31
 208 -63 208 -63 223.5 -93.5 c 128,-1,32
 239 -124 239 -124 247 -167 c 1,33,34
 286 -174 286 -174 318 -173 c 0,35,36
 390 -173 390 -173 447 -146.5 c 128,-1,37
 504 -120 504 -120 542.5 -76 c 128,-1,38
 581 -32 581 -32 601.5 25.5 c 128,-1,39
 622 83 622 83 622 144 c 0,40,41
 622 200 622 200 604 253.5 c 128,-1,42
 586 307 586 307 548 348.5 c 128,-1,43
 510 390 510 390 451 415.5 c 128,-1,44
 392 441 392 441 310 441 c 0,45,46
 272 441 272 441 227.5 435.5 c 128,-1,47
 183 430 183 430 137 417 c 1,48,-1
 124 424 l 1,49,-1
 205 954 l 1,50,-1
 743 964 l 1,0,1
EndSplineSet
Validated: 33
EndChar
StartChar: six
Encoding: 22 54 123
Width: 868
VWidth: 1738
Flags: W
LayerCount: 2
Fore
SplineSet
777 1119 m 1,0,1
 760 1121 760 1121 743.5 1122 c 128,-1,2
 727 1123 727 1123 712 1123 c 0,3,4
 617 1123 617 1123 539.5 1088 c 128,-1,5
 462 1053 462 1053 403 991 c 128,-1,6
 344 929 344 929 304 845.5 c 128,-1,7
 264 762 264 762 243 665 c 1,8,9
 296 697 296 697 357.5 715 c 128,-1,10
 419 733 419 733 483 733 c 0,11,12
 548 733 548 733 608.5 712 c 128,-1,13
 669 691 669 691 715.5 647 c 128,-1,14
 762 603 762 603 789.5 535.5 c 128,-1,15
 817 468 817 468 817 374 c 0,16,17
 817 279 817 279 785.5 206.5 c 128,-1,18
 754 134 754 134 702.5 84 c 128,-1,19
 651 34 651 34 583.5 8 c 128,-1,20
 516 -18 516 -18 446 -18 c 0,21,22
 377 -18 377 -18 308.5 9.5 c 128,-1,23
 240 37 240 37 185.5 95 c 128,-1,24
 131 153 131 153 97.5 242 c 128,-1,25
 64 331 64 331 64 454 c 0,26,27
 64 538 64 538 82.5 625 c 128,-1,28
 101 712 101 712 138 793 c 128,-1,29
 175 874 175 874 230.5 945.5 c 128,-1,30
 286 1017 286 1017 359.5 1069.5 c 128,-1,31
 433 1122 433 1122 524.5 1152.5 c 128,-1,32
 616 1183 616 1183 725 1183 c 0,33,34
 752 1183 752 1183 783 1181 c 1,35,36
 784 1166 784 1166 782.5 1150 c 128,-1,37
 781 1134 781 1134 777 1119 c 1,0,1
224 470 m 0,38,39
 224 359 224 359 244.5 278 c 128,-1,40
 265 197 265 197 298 146 c 128,-1,41
 331 95 331 95 373.5 69.5 c 128,-1,42
 416 44 416 44 459 44 c 0,43,44
 496 44 496 44 530.5 61 c 128,-1,45
 565 78 565 78 592.5 113 c 128,-1,46
 620 148 620 148 636.5 203 c 128,-1,47
 653 258 653 258 653 336 c 0,48,49
 653 417 653 417 634 476 c 128,-1,50
 615 535 615 535 582 573 c 128,-1,51
 549 611 549 611 505 629.5 c 128,-1,52
 461 648 461 648 415 648 c 0,53,54
 369 648 369 648 322 633.5 c 128,-1,55
 275 619 275 619 232 592 c 1,56,57
 224 532 224 532 224 470 c 0,38,39
EndSplineSet
Validated: 1
EndChar
StartChar: seven
Encoding: 23 55 124
Width: 868
VWidth: 1738
Flags: W
LayerCount: 2
Fore
SplineSet
230 -194 m 1,0,1
 345 65 345 65 461.5 319.5 c 128,-1,2
 578 574 578 574 696 833 c 1,3,4
 682 833 682 833 660 833.5 c 128,-1,5
 638 834 638 834 613.5 834 c 128,-1,6
 589 834 589 834 563.5 834 c 128,-1,7
 538 834 538 834 518 834 c 0,8,9
 487 834 487 834 455.5 834 c 128,-1,10
 424 834 424 834 394 833.5 c 128,-1,11
 364 833 364 833 337 832.5 c 128,-1,12
 310 832 310 832 288 831 c 0,13,14
 257 830 257 830 235.5 827.5 c 128,-1,15
 214 825 214 825 197 811 c 128,-1,16
 180 797 180 797 164 766 c 128,-1,17
 148 735 148 735 128 680 c 1,18,19
 118 680 118 680 107 680.5 c 128,-1,20
 96 681 96 681 85 686 c 1,21,22
 101 764 101 764 112 833 c 128,-1,23
 123 902 123 902 129 972 c 1,24,25
 175 969 175 969 225 967 c 128,-1,26
 275 965 275 965 325 964.5 c 128,-1,27
 375 964 375 964 424.5 963.5 c 128,-1,28
 474 963 474 963 518 963 c 0,29,30
 559 963 559 963 602.5 963 c 128,-1,31
 646 963 646 963 685 963.5 c 128,-1,32
 724 964 724 964 753.5 965 c 128,-1,33
 783 966 783 966 798 968 c 1,34,35
 801 957 801 957 802.5 947.5 c 128,-1,36
 804 938 804 938 805 924 c 1,37,38
 751 792 751 792 692 647.5 c 128,-1,39
 633 503 633 503 576 355 c 128,-1,40
 519 207 519 207 468 62.5 c 128,-1,41
 417 -82 417 -82 378 -213 c 1,42,43
 361 -215 361 -215 341.5 -215 c 128,-1,44
 322 -215 322 -215 305 -215 c 256,45,46
 288 -215 288 -215 271.5 -214.5 c 128,-1,47
 255 -214 255 -214 238 -213 c 1,48,-1
 230 -194 l 1,0,1
EndSplineSet
Validated: 1
EndChar
StartChar: eight
Encoding: 24 56 125
Width: 868
VWidth: 1738
Flags: W
LayerCount: 2
Fore
SplineSet
109 892 m 0,0,1
 109 955 109 955 133.5 1010 c 128,-1,2
 158 1065 158 1065 202.5 1106.5 c 128,-1,3
 247 1148 247 1148 310 1171.5 c 128,-1,4
 373 1195 373 1195 448 1195 c 0,5,6
 525 1195 525 1195 584 1173.5 c 128,-1,7
 643 1152 643 1152 683.5 1114 c 128,-1,8
 724 1076 724 1076 744.5 1024.5 c 128,-1,9
 765 973 765 973 765 914 c 0,10,11
 765 868 765 868 745 825.5 c 128,-1,12
 725 783 725 783 694.5 746 c 128,-1,13
 664 709 664 709 627 679.5 c 128,-1,14
 590 650 590 650 555 631 c 1,15,16
 604 605 604 605 649 576 c 128,-1,17
 694 547 694 547 728.5 510 c 128,-1,18
 763 473 763 473 784.5 426 c 128,-1,19
 806 379 806 379 806 317 c 0,20,21
 806 249 806 249 778.5 187.5 c 128,-1,22
 751 126 751 126 700.5 80.5 c 128,-1,23
 650 35 650 35 578.5 8 c 128,-1,24
 507 -19 507 -19 420 -19 c 0,25,26
 333 -19 333 -19 267 4.5 c 128,-1,27
 201 28 201 28 155.5 69 c 128,-1,28
 110 110 110 110 87.5 166 c 128,-1,29
 65 222 65 222 65 286 c 0,30,31
 65 341 65 341 86.5 388 c 128,-1,32
 108 435 108 435 143 474 c 128,-1,33
 178 513 178 513 222 544.5 c 128,-1,34
 266 576 266 576 310 598 c 1,35,36
 269 621 269 621 233 650.5 c 128,-1,37
 197 680 197 680 169 714.5 c 128,-1,38
 141 749 141 749 125 792.5 c 128,-1,39
 109 836 109 836 109 892 c 0,0,1
219 292 m 0,40,41
 219 241 219 241 232 196 c 128,-1,42
 245 151 245 151 272 116 c 128,-1,43
 299 81 299 81 339.5 61 c 128,-1,44
 380 41 380 41 435 41 c 0,45,46
 489 41 489 41 530.5 60 c 128,-1,47
 572 79 572 79 600 110 c 128,-1,48
 628 141 628 141 642 182.5 c 128,-1,49
 656 224 656 224 656 268 c 0,50,51
 656 321 656 321 635 361.5 c 128,-1,52
 614 402 614 402 578.5 434.5 c 128,-1,53
 543 467 543 467 497 493.5 c 128,-1,54
 451 520 451 520 402 547 c 2,55,-1
 359 570 l 1,56,57
 329 548 329 548 303.5 519 c 128,-1,58
 278 490 278 490 259.5 455.5 c 128,-1,59
 241 421 241 421 230 380 c 128,-1,60
 219 339 219 339 219 292 c 0,40,41
439 1137 m 0,61,62
 395 1137 395 1137 360.5 1120.5 c 128,-1,63
 326 1104 326 1104 302.5 1075.5 c 128,-1,64
 279 1047 279 1047 267 1010 c 128,-1,65
 255 973 255 973 255 931 c 0,66,67
 255 880 255 880 276 840 c 128,-1,68
 297 800 297 800 331 768.5 c 128,-1,69
 365 737 365 737 409.5 710.5 c 128,-1,70
 454 684 454 684 503 659 c 1,71,72
 525 675 525 675 545 699 c 128,-1,73
 565 723 565 723 581 754.5 c 128,-1,74
 597 786 597 786 606.5 826.5 c 128,-1,75
 616 867 616 867 616 917 c 0,76,77
 616 959 616 959 606.5 999 c 128,-1,78
 597 1039 597 1039 575 1069.5 c 128,-1,79
 553 1100 553 1100 520 1118.5 c 128,-1,80
 487 1137 487 1137 439 1137 c 0,61,62
EndSplineSet
Validated: 1
EndChar
StartChar: nine
Encoding: 25 57 126
Width: 868
VWidth: 1738
Flags: W
LayerCount: 2
Fore
SplineSet
90 -168 m 1,0,1
 104 -170 104 -170 113.5 -170 c 128,-1,2
 123 -170 123 -170 134 -170 c 0,3,4
 249 -170 249 -170 335 -131.5 c 128,-1,5
 421 -93 421 -93 481 -26.5 c 128,-1,6
 541 40 541 40 577 126.5 c 128,-1,7
 613 213 613 213 630 308 c 1,8,9
 572 270 572 270 509 253.5 c 128,-1,10
 446 237 446 237 385 237 c 0,11,12
 302 237 302 237 239.5 267.5 c 128,-1,13
 177 298 177 298 135.5 348 c 128,-1,14
 94 398 94 398 72.5 463 c 128,-1,15
 51 528 51 528 51 596 c 0,16,17
 51 669 51 669 75.5 738.5 c 128,-1,18
 100 808 100 808 147 862.5 c 128,-1,19
 194 917 194 917 264.5 950 c 128,-1,20
 335 983 335 983 429 983 c 0,21,22
 498 983 498 983 566 956 c 128,-1,23
 634 929 634 929 686.5 871.5 c 128,-1,24
 739 814 739 814 772.5 723.5 c 128,-1,25
 806 633 806 633 806 505 c 0,26,27
 806 418 806 418 788.5 329 c 128,-1,28
 771 240 771 240 736 158 c 128,-1,29
 701 76 701 76 646.5 5 c 128,-1,30
 592 -66 592 -66 517 -118.5 c 128,-1,31
 442 -171 442 -171 345 -201.5 c 128,-1,32
 248 -232 248 -232 129 -232 c 0,33,34
 107 -232 107 -232 85 -229 c 1,35,36
 83 -199 83 -199 90 -168 c 1,0,1
645 490 m 0,37,38
 645 604 645 604 625 686.5 c 128,-1,39
 605 769 605 769 572 821 c 128,-1,40
 539 873 539 873 497.5 898 c 128,-1,41
 456 923 456 923 413 923 c 0,42,43
 364 923 364 923 327.5 899.5 c 128,-1,44
 291 876 291 876 266 836.5 c 128,-1,45
 241 797 241 797 228 746 c 128,-1,46
 215 695 215 695 215 638 c 0,47,48
 215 580 215 580 230 523.5 c 128,-1,49
 245 467 245 467 274.5 422 c 128,-1,50
 304 377 304 377 348.5 349.5 c 128,-1,51
 393 322 393 322 452 322 c 0,52,53
 497 322 497 322 544 334.5 c 128,-1,54
 591 347 591 347 639 377 c 1,55,56
 642 407 642 407 643.5 434 c 128,-1,57
 645 461 645 461 645 490 c 0,37,38
EndSplineSet
Validated: 1
EndChar
StartChar: less
Encoding: 28 60 129
Width: 976
VWidth: 1738
Flags: W
LayerCount: 2
Fore
SplineSet
102 372 m 1,0,1
 97 401 97 401 102 431 c 1,2,-1
 856 778 l 1,3,4
 874 745 874 745 887 710 c 1,5,-1
 215 401 l 1,6,-1
 887 92 l 1,7,8
 873 57 873 57 856 24 c 1,9,-1
 102 372 l 1,0,1
EndSplineSet
Validated: 1
EndChar
StartChar: equal
Encoding: 29 61 130
Width: 976
VWidth: 1738
Flags: W
LayerCount: 2
Fore
SplineSet
890 277 m 1,0,1
 893 240 893 240 890 203 c 1,2,-1
 87 203 l 1,3,4
 84 240 84 240 87 277 c 1,5,-1
 890 277 l 1,0,1
890 599 m 1,6,7
 893 562 893 562 890 525 c 1,8,-1
 87 525 l 1,9,10
 84 562 84 562 87 599 c 1,11,-1
 890 599 l 1,6,7
EndSplineSet
Validated: 33
EndChar
StartChar: greater
Encoding: 30 62 131
Width: 976
VWidth: 1738
Flags: W
LayerCount: 2
Fore
SplineSet
121 24 m 1,0,1
 103 56 103 56 89 92 c 1,2,-1
 762 401 l 1,3,-1
 89 710 l 1,4,5
 103 746 103 746 121 778 c 1,6,-1
 875 431 l 1,7,8
 879 401 879 401 875 372 c 1,9,-1
 121 24 l 1,0,1
EndSplineSet
Validated: 1
EndChar
StartChar: question
Encoding: 31 63 132
Width: 685
VWidth: 1738
Flags: W
LayerCount: 2
Fore
SplineSet
254 341 m 1,0,-1
 218 656 l 1,1,2
 256 654 256 654 280 654 c 0,3,4
 436 654 436 654 497 681.5 c 128,-1,5
 558 709 558 709 558 773 c 0,6,7
 558 865 558 865 498.5 946 c 128,-1,8
 439 1027 439 1027 347 1068 c 1,9,10
 282 1027 282 1027 221 1027 c 0,11,12
 176 1027 176 1027 145 1049.5 c 128,-1,13
 114 1072 114 1072 114 1112 c 0,14,15
 114 1151 114 1151 148 1175.5 c 128,-1,16
 182 1200 182 1200 236 1200 c 0,17,18
 317 1200 317 1200 418.5 1131.5 c 128,-1,19
 520 1063 520 1063 577.5 959.5 c 128,-1,20
 635 856 635 856 635 748 c 0,21,22
 635 619 635 619 564.5 566 c 128,-1,23
 494 513 494 513 330 511 c 1,24,-1
 312 341 l 1,25,-1
 254 341 l 1,0,-1
170 97 m 0,26,27
 170 143 170 143 201.5 177.5 c 128,-1,28
 233 212 233 212 283 212 c 256,29,30
 333 212 333 212 364.5 177.5 c 128,-1,31
 396 143 396 143 396 97 c 0,32,33
 396 52 396 52 364 18.5 c 128,-1,34
 332 -15 332 -15 283 -15 c 256,35,36
 233 -15 233 -15 201.5 18.5 c 128,-1,37
 170 52 170 52 170 97 c 0,26,27
EndSplineSet
Validated: 1
EndChar
StartChar: bracketleft
Encoding: 144 91 144
Width: 639
VWidth: 1738
GlyphClass: 2
Flags: W
LayerCount: 2
Fore
SplineSet
153 -307 m 1,0,-1
 153 1266 l 1,1,-1
 530 1266 l 1,2,-1
 530 1196 l 1,3,-1
 266 1196 l 1,4,-1
 266 -237 l 1,5,-1
 530 -237 l 1,6,-1
 530 -307 l 1,7,-1
 153 -307 l 1,0,-1
EndSplineSet
Validated: 1
EndChar
StartChar: bracketright
Encoding: 145 93 145
Width: 639
VWidth: 1738
GlyphClass: 2
Flags: W
LayerCount: 2
Fore
SplineSet
488 1266 m 1,0,-1
 488 -307 l 1,1,-1
 110 -307 l 1,2,-1
 110 -237 l 1,3,-1
 374 -237 l 1,4,-1
 374 1196 l 1,5,-1
 110 1196 l 1,6,-1
 110 1266 l 1,7,-1
 488 1266 l 1,0,-1
EndSplineSet
Validated: 1
EndChar
StartChar: underscore
Encoding: 32 95 138
Width: 976
VWidth: 1738
Flags: W
LayerCount: 2
Fore
SplineSet
1036 -156 m 1,0,-1
 1036 -230 l 1,1,-1
 -59 -230 l 1,2,-1
 -59 -156 l 1,3,-1
 1036 -156 l 1,0,-1
EndSplineSet
Validated: 1
EndChar
StartChar: braceleft
Encoding: 33 123 134
Width: 631
VWidth: 1738
Flags: W
LayerCount: 2
Fore
SplineSet
199 485 m 1,0,-1
 199 478 l 1,1,2
 249 466 249 466 278.5 447.5 c 128,-1,3
 308 429 308 429 325 400.5 c 128,-1,4
 342 372 342 372 347 334 c 128,-1,5
 352 296 352 296 352 246 c 2,6,-1
 352 -81 l 2,7,8
 352 -175 352 -175 388 -223 c 128,-1,9
 424 -271 424 -271 514 -271 c 1,10,-1
 514 -325 l 1,11,12
 436 -325 436 -325 381.5 -312.5 c 128,-1,13
 327 -300 327 -300 291.5 -267.5 c 128,-1,14
 256 -235 256 -235 240 -179.5 c 128,-1,15
 224 -124 224 -124 224 -37 c 2,16,-1
 224 287 l 2,17,18
 224 335 224 335 217 365.5 c 128,-1,19
 210 396 210 396 193 414.5 c 128,-1,20
 176 433 176 433 147.5 442.5 c 128,-1,21
 119 452 119 452 77 459 c 1,22,-1
 77 504 l 1,23,24
 119 510 119 510 147.5 520 c 128,-1,25
 176 530 176 530 193 548.5 c 128,-1,26
 210 567 210 567 217 597 c 128,-1,27
 224 627 224 627 224 675 c 2,28,-1
 224 1000 l 2,29,30
 224 1086 224 1086 240 1141.5 c 128,-1,31
 256 1197 256 1197 291.5 1229.5 c 128,-1,32
 327 1262 327 1262 381.5 1274.5 c 128,-1,33
 436 1287 436 1287 514 1287 c 1,34,-1
 514 1233 l 1,35,36
 425 1233 425 1233 388.5 1184.5 c 128,-1,37
 352 1136 352 1136 352 1045 c 2,38,-1
 352 716 l 2,39,40
 352 665 352 665 347 627.5 c 128,-1,41
 342 590 342 590 325 562 c 128,-1,42
 308 534 308 534 278.5 515 c 128,-1,43
 249 496 249 496 199 485 c 1,0,-1
EndSplineSet
Validated: 1
EndChar
StartChar: bar
Encoding: 34 124 135
Width: 511
VWidth: 1738
Flags: W
LayerCount: 2
Fore
SplineSet
212 -421 m 1,0,-1
 212 1266 l 1,1,-1
 300 1266 l 1,2,-1
 300 -421 l 1,3,-1
 212 -421 l 1,0,-1
EndSplineSet
Validated: 1
EndChar
StartChar: braceright
Encoding: 35 125 136
Width: 631
VWidth: 1738
Flags: W
LayerCount: 2
Fore
SplineSet
433 485 m 1,0,1
 383 496 383 496 353.5 515 c 128,-1,2
 324 534 324 534 307.5 562 c 128,-1,3
 291 590 291 590 285.5 628 c 128,-1,4
 280 666 280 666 280 716 c 2,5,-1
 280 1045 l 2,6,7
 280 1138 280 1138 244 1185.5 c 128,-1,8
 208 1233 208 1233 119 1233 c 1,9,-1
 119 1287 l 1,10,11
 197 1287 197 1287 251.5 1274.5 c 128,-1,12
 306 1262 306 1262 340.5 1229.5 c 128,-1,13
 375 1197 375 1197 391.5 1141.5 c 128,-1,14
 408 1086 408 1086 408 1000 c 2,15,-1
 408 675 l 2,16,17
 408 627 408 627 415.5 597 c 128,-1,18
 423 567 423 567 440 548.5 c 128,-1,19
 457 530 457 530 485.5 519.5 c 128,-1,20
 514 509 514 509 556 504 c 1,21,-1
 556 459 l 1,22,23
 514 453 514 453 485.5 443 c 128,-1,24
 457 433 457 433 440 414.5 c 128,-1,25
 423 396 423 396 415.5 365 c 128,-1,26
 408 334 408 334 408 287 c 2,27,-1
 408 -37 l 2,28,29
 408 -123 408 -123 391.5 -179 c 128,-1,30
 375 -235 375 -235 340.5 -267.5 c 128,-1,31
 306 -300 306 -300 251.5 -312.5 c 128,-1,32
 197 -325 197 -325 119 -325 c 1,33,-1
 119 -271 l 1,34,35
 208 -271 208 -271 244 -223 c 128,-1,36
 280 -175 280 -175 280 -81 c 2,37,-1
 280 246 l 2,38,39
 280 296 280 296 285.5 334 c 128,-1,40
 291 372 291 372 307.5 400.5 c 128,-1,41
 324 429 324 429 354 447.5 c 128,-1,42
 384 466 384 466 433 478 c 1,43,-1
 433 485 l 1,0,1
EndSplineSet
Validated: 1
EndChar
StartChar: asciitilde
Encoding: 36 126 137
Width: 976
VWidth: 1738
Flags: W
LayerCount: 2
Fore
SplineSet
890 458 m 1,0,1
 893 418 893 418 890 379 c 1,2,3
 841 341 841 341 793.5 326.5 c 128,-1,4
 746 312 746 312 698 312 c 0,5,6
 646 312 646 312 594 327.5 c 128,-1,7
 542 343 542 343 489 361 c 256,8,9
 436 381 436 381 384 396.5 c 128,-1,10
 332 412 332 412 278 412 c 0,11,12
 229 412 229 412 182 397.5 c 128,-1,13
 135 383 135 383 87 344 c 1,14,15
 84 383 84 383 87 424 c 1,16,17
 136 462 136 462 183 476 c 128,-1,18
 230 490 230 490 278 490 c 0,19,20
 331 490 331 490 382.5 475.5 c 128,-1,21
 434 461 434 461 489 441 c 256,22,23
 542 421 542 421 593.5 405.5 c 128,-1,24
 645 390 645 390 698 390 c 0,25,26
 747 390 747 390 794 405 c 128,-1,27
 841 420 841 420 890 458 c 1,0,1
EndSplineSet
Validated: 33
EndChar
StartChar: etnahta
Encoding: 37 1425 1
Width: 0
VWidth: 1738
GlyphClass: 4
Flags: W
AnchorPoint: "Meteg" 0 0 mark 0
AnchorPoint: "accent bottom left" 0 0 mark 0
LayerCount: 2
Fore
SplineSet
36 -139 m 1,0,-1
 36 -250 l 1,1,2
 73 -257 73 -257 95.5 -274 c 128,-1,3
 118 -291 118 -291 130.5 -316 c 128,-1,4
 143 -341 143 -341 147.5 -369.5 c 128,-1,5
 152 -398 152 -398 152 -427 c 0,6,7
 152 -446 152 -446 151 -463 c 128,-1,8
 150 -480 150 -480 148 -497 c 1,9,-1
 76 -503 l 1,10,11
 79 -483 79 -483 79.5 -468.5 c 128,-1,12
 80 -454 80 -454 80 -439 c 0,13,14
 80 -373 80 -373 58.5 -344.5 c 128,-1,15
 37 -316 37 -316 -2 -316 c 0,16,17
 -41 -316 -41 -316 -60.5 -343 c 128,-1,18
 -80 -370 -80 -370 -80 -433 c 0,19,20
 -80 -447 -80 -447 -79.5 -463 c 128,-1,21
 -79 -479 -79 -479 -78 -497 c 1,22,-1
 -149 -503 l 1,23,24
 -151 -487 -151 -487 -152 -469.5 c 128,-1,25
 -153 -452 -153 -452 -153 -433 c 0,26,27
 -153 -402 -153 -402 -147.5 -372.5 c 128,-1,28
 -142 -343 -142 -343 -129.5 -317.5 c 128,-1,29
 -117 -292 -117 -292 -94.5 -274 c 128,-1,30
 -72 -256 -72 -256 -37 -250 c 1,31,-1
 -37 -148 l 1,32,-1
 36 -139 l 1,0,-1
EndSplineSet
Validated: 1
EndChar
StartChar: segolta
Encoding: 38 1426 2
Width: 0
VWidth: 1738
GlyphClass: 4
Flags: W
AnchorPoint: "accent top" 0 0 mark 0
LayerCount: 2
Fore
SplineSet
-187 1107 m 256,0,1
 -187 1137 -187 1137 -167.5 1157 c 128,-1,2
 -148 1177 -148 1177 -118 1177 c 256,3,4
 -88 1177 -88 1177 -68.5 1156.5 c 128,-1,5
 -49 1136 -49 1136 -49 1107 c 256,6,7
 -49 1077 -49 1077 -68.5 1057 c 128,-1,8
 -88 1037 -88 1037 -118 1037 c 256,9,10
 -148 1037 -148 1037 -167.5 1057 c 128,-1,11
 -187 1077 -187 1077 -187 1107 c 256,0,1
-69 1314 m 256,12,13
 -69 1344 -69 1344 -49.5 1363.5 c 128,-1,14
 -30 1383 -30 1383 0 1383 c 256,15,16
 30 1383 30 1383 49.5 1363.5 c 128,-1,17
 69 1344 69 1344 69 1314 c 256,18,19
 69 1284 69 1284 49.5 1264.5 c 128,-1,20
 30 1245 30 1245 0 1245 c 256,21,22
 -30 1245 -30 1245 -49.5 1264.5 c 128,-1,23
 -69 1284 -69 1284 -69 1314 c 256,12,13
49 1107 m 256,24,25
 49 1137 49 1137 68.5 1157 c 128,-1,26
 88 1177 88 1177 118 1177 c 256,27,28
 148 1177 148 1177 167.5 1156.5 c 128,-1,29
 187 1136 187 1136 187 1107 c 256,30,31
 187 1077 187 1077 167.5 1057 c 128,-1,32
 148 1037 148 1037 118 1037 c 256,33,34
 88 1037 88 1037 68.5 1057 c 128,-1,35
 49 1077 49 1077 49 1107 c 256,24,25
EndSplineSet
Validated: 1
EndChar
StartChar: shalshelet
Encoding: 39 1427 3
Width: 0
VWidth: 1738
GlyphClass: 4
Flags: W
AnchorPoint: "accent top" 0 0 mark 0
LayerCount: 2
Fore
SplineSet
110 1252 m 1,0,-1
 -23 1178 l 1,1,-1
 114 1104 l 1,2,-1
 -25 1025 l 1,3,-1
 -110 1025 l 1,4,-1
 30 1104 l 1,5,-1
 -109 1178 l 1,6,-1
 24 1252 l 1,7,-1
 -113 1326 l 1,8,-1
 25 1406 l 1,9,-1
 110 1406 l 1,10,-1
 -28 1326 l 1,11,-1
 110 1252 l 1,0,-1
EndSplineSet
Validated: 1
EndChar
StartChar: zaqefqatan
Encoding: 40 1428 4
Width: 0
VWidth: 1738
GlyphClass: 4
Flags: W
AnchorPoint: "accent top" 0 0 mark 0
LayerCount: 2
Fore
SplineSet
-69 1107 m 256,0,1
 -69 1137 -69 1137 -49.5 1157 c 128,-1,2
 -30 1177 -30 1177 0 1177 c 256,3,4
 30 1177 30 1177 49.5 1156.5 c 128,-1,5
 69 1136 69 1136 69 1107 c 256,6,7
 69 1077 69 1077 49.5 1057 c 128,-1,8
 30 1037 30 1037 0 1037 c 256,9,10
 -30 1037 -30 1037 -49.5 1057 c 128,-1,11
 -69 1077 -69 1077 -69 1107 c 256,0,1
-69 1323 m 256,12,13
 -69 1353 -69 1353 -49.5 1372.5 c 128,-1,14
 -30 1392 -30 1392 0 1392 c 256,15,16
 30 1392 30 1392 49.5 1372.5 c 128,-1,17
 69 1353 69 1353 69 1323 c 256,18,19
 69 1293 69 1293 49.5 1273 c 128,-1,20
 30 1253 30 1253 0 1253 c 256,21,22
 -30 1253 -30 1253 -49.5 1273 c 128,-1,23
 -69 1293 -69 1293 -69 1323 c 256,12,13
EndSplineSet
Validated: 1
EndChar
StartChar: zaqefgadol
Encoding: 41 1429 5
Width: 0
VWidth: 1738
GlyphClass: 4
Flags: W
AnchorPoint: "accent top" 0 0 mark 0
LayerCount: 2
Fore
SplineSet
18 1107 m 256,0,1
 18 1137 18 1137 38 1157 c 128,-1,2
 58 1177 58 1177 87 1177 c 256,3,4
 117 1177 117 1177 137 1156.5 c 128,-1,5
 157 1136 157 1136 157 1107 c 256,6,7
 157 1077 157 1077 137 1057 c 128,-1,8
 117 1037 117 1037 87 1037 c 256,9,10
 57 1037 57 1037 37.5 1057 c 128,-1,11
 18 1077 18 1077 18 1107 c 256,0,1
18 1323 m 256,12,13
 18 1353 18 1353 38 1372.5 c 128,-1,14
 58 1392 58 1392 87 1392 c 256,15,16
 117 1392 117 1392 137 1372.5 c 128,-1,17
 157 1353 157 1353 157 1323 c 256,18,19
 157 1293 157 1293 137 1273 c 128,-1,20
 117 1253 117 1253 87 1253 c 256,21,22
 57 1253 57 1253 37.5 1273 c 128,-1,23
 18 1293 18 1293 18 1323 c 256,12,13
-51 1050 m 1,24,-1
 -123 1042 l 1,25,-1
 -123 1380 l 1,26,-1
 -51 1388 l 1,27,-1
 -51 1050 l 1,24,-1
EndSplineSet
Validated: 1
EndChar
StartChar: tipeha
Encoding: 42 1430 6
Width: 0
VWidth: 1738
GlyphClass: 4
Flags: W
AnchorPoint: "Meteg" 0 0 mark 0
AnchorPoint: "accent bottom left" 0 0 mark 0
LayerCount: 2
Fore
SplineSet
127 -498 m 1,0,1
 76 -488 76 -488 43.5 -468 c 128,-1,2
 11 -448 11 -448 -8.5 -421.5 c 128,-1,3
 -28 -395 -28 -395 -36 -363.5 c 128,-1,4
 -44 -332 -44 -332 -44 -297 c 0,5,6
 -44 -278 -44 -278 -43 -261 c 128,-1,7
 -42 -244 -42 -244 -41 -227.5 c 128,-1,8
 -40 -211 -40 -211 -38.5 -192.5 c 128,-1,9
 -37 -174 -37 -174 -34 -152 c 1,10,-1
 41 -143 l 1,11,12
 36 -189 36 -189 33.5 -228.5 c 128,-1,13
 31 -268 31 -268 31 -300 c 0,14,15
 31 -322 31 -322 36 -342 c 128,-1,16
 41 -362 41 -362 54 -379 c 128,-1,17
 67 -396 67 -396 88.5 -408 c 128,-1,18
 110 -420 110 -420 142 -428 c 1,19,-1
 127 -498 l 1,0,1
EndSplineSet
Validated: 1
EndChar
StartChar: revia
Encoding: 43 1431 7
Width: 0
VWidth: 1738
GlyphClass: 4
Flags: W
AnchorPoint: "accent top" 0 0 mark 0
LayerCount: 2
Fore
SplineSet
5 1030 m 1,0,1
 -17 1062 -17 1062 -45 1093 c 128,-1,2
 -73 1124 -73 1124 -103 1151 c 1,3,4
 -81 1185 -81 1185 -56.5 1216 c 128,-1,5
 -32 1247 -32 1247 -4 1274 c 1,6,7
 26 1247 26 1247 53 1214.5 c 128,-1,8
 80 1182 80 1182 104 1148 c 1,9,10
 76 1121 76 1121 51.5 1091.5 c 128,-1,11
 27 1062 27 1062 5 1030 c 1,0,1
EndSplineSet
Validated: 1
EndChar
StartChar: zarqa
Encoding: 44 1432 8
Width: 0
VWidth: 1738
GlyphClass: 4
Flags: W
AnchorPoint: "accent top" 0 0 mark 0
LayerCount: 2
Fore
SplineSet
141 1300 m 1,0,1
 179 1281 179 1281 202 1252 c 128,-1,2
 225 1223 225 1223 225 1184 c 0,3,4
 225 1157 225 1157 215.5 1134.5 c 128,-1,5
 206 1112 206 1112 190 1095.5 c 128,-1,6
 174 1079 174 1079 152 1070 c 128,-1,7
 130 1061 130 1061 105 1061 c 0,8,9
 79 1061 79 1061 58.5 1069 c 128,-1,10
 38 1077 38 1077 22.5 1091 c 128,-1,11
 7 1105 7 1105 -5 1122 c 128,-1,12
 -17 1139 -17 1139 -27 1156 c 0,13,14
 -34 1169 -34 1169 -42.5 1181.5 c 128,-1,15
 -51 1194 -51 1194 -59.5 1204.5 c 128,-1,16
 -68 1215 -68 1215 -78 1221.5 c 128,-1,17
 -88 1228 -88 1228 -102 1228 c 0,18,19
 -124 1228 -124 1228 -139 1212.5 c 128,-1,20
 -154 1197 -154 1197 -154 1173 c 0,21,22
 -154 1155 -154 1155 -142 1140.5 c 128,-1,23
 -130 1126 -130 1126 -108 1119 c 1,24,-1
 -141 1055 l 1,25,26
 -180 1075 -180 1075 -202.5 1103.5 c 128,-1,27
 -225 1132 -225 1132 -225 1172 c 0,28,29
 -225 1198 -225 1198 -215.5 1221 c 128,-1,30
 -206 1244 -206 1244 -189.5 1260 c 128,-1,31
 -173 1276 -173 1276 -151 1285.5 c 128,-1,32
 -129 1295 -129 1295 -104 1295 c 0,33,34
 -78 1295 -78 1295 -57.5 1286.5 c 128,-1,35
 -37 1278 -37 1278 -22 1264.5 c 128,-1,36
 -7 1251 -7 1251 5.5 1234 c 128,-1,37
 18 1217 18 1217 28 1200 c 0,38,39
 36 1186 36 1186 44 1173.5 c 128,-1,40
 52 1161 52 1161 60.5 1150.5 c 128,-1,41
 69 1140 69 1140 79.5 1134 c 128,-1,42
 90 1128 90 1128 102 1128 c 0,43,44
 124 1128 124 1128 139 1144 c 128,-1,45
 154 1160 154 1160 154 1183 c 0,46,47
 154 1200 154 1200 142 1214 c 128,-1,48
 130 1228 130 1228 108 1236 c 1,49,-1
 141 1300 l 1,0,1
EndSplineSet
Validated: 1
EndChar
StartChar: pashta
Encoding: 45 1433 9
Width: 0
VWidth: 1738
GlyphClass: 4
Flags: W
AnchorPoint: "accent top" 0 0 mark 0
LayerCount: 2
Fore
SplineSet
-409 1392 m 1,0,1
 -358 1382 -358 1382 -325.5 1362 c 128,-1,2
 -293 1342 -293 1342 -273.5 1315.5 c 128,-1,3
 -254 1289 -254 1289 -246 1257 c 128,-1,4
 -238 1225 -238 1225 -238 1192 c 0,5,6
 -238 1172 -238 1172 -239 1155 c 128,-1,7
 -240 1138 -240 1138 -240.5 1121 c 128,-1,8
 -241 1104 -241 1104 -243 1086 c 128,-1,9
 -245 1068 -245 1068 -248 1046 c 1,10,-1
 -324 1037 l 1,11,12
 -319 1083 -319 1083 -316 1122.5 c 128,-1,13
 -313 1162 -313 1162 -313 1193 c 0,14,15
 -313 1215 -313 1215 -318.5 1235.5 c 128,-1,16
 -324 1256 -324 1256 -336.5 1273 c 128,-1,17
 -349 1290 -349 1290 -370.5 1302 c 128,-1,18
 -392 1314 -392 1314 -424 1322 c 1,19,-1
 -409 1392 l 1,0,1
EndSplineSet
Validated: 1
EndChar
StartChar: yetiv
Encoding: 46 1434 10
Width: 0
VWidth: 1738
GlyphClass: 4
Flags: W
AnchorPoint: "Meteg" 0 0 mark 0
AnchorPoint: "accent bottom left" 0 0 mark 0
LayerCount: 2
Fore
SplineSet
552 -437 m 1,0,-1
 503 -498 l 1,1,-1
 276 -322 l 1,2,-1
 503 -145 l 1,3,-1
 552 -206 l 1,4,-1
 389 -319 l 1,5,-1
 552 -437 l 1,0,-1
EndSplineSet
Validated: 1
EndChar
StartChar: tevir
Encoding: 47 1435 11
Width: 0
VWidth: 1738
GlyphClass: 4
Flags: W
AnchorPoint: "Meteg" 0 0 mark 0
AnchorPoint: "accent bottom left" 0 0 mark 0
LayerCount: 2
Fore
SplineSet
-59 -428 m 1,0,1
 -27 -421 -27 -421 -5.5 -408.5 c 128,-1,2
 16 -396 16 -396 28.5 -379 c 128,-1,3
 41 -362 41 -362 46.5 -342.5 c 128,-1,4
 52 -323 52 -323 52 -300 c 0,5,6
 52 -267 52 -267 49.5 -229 c 128,-1,7
 47 -191 47 -191 42 -152 c 1,8,-1
 116 -143 l 1,9,10
 121 -181 121 -181 124 -220 c 128,-1,11
 127 -259 127 -259 127 -297 c 0,12,13
 127 -332 127 -332 119 -363.5 c 128,-1,14
 111 -395 111 -395 91.5 -421.5 c 128,-1,15
 72 -448 72 -448 39 -468.5 c 128,-1,16
 6 -489 6 -489 -44 -498 c 1,17,-1
 -59 -428 l 1,0,1
-152 -284 m 0,18,19
 -152 -257 -152 -257 -133 -237.5 c 128,-1,20
 -114 -218 -114 -218 -87 -218 c 0,21,22
 -60 -218 -60 -218 -41 -237 c 128,-1,23
 -22 -256 -22 -256 -22 -284 c 0,24,25
 -22 -312 -22 -312 -40.5 -330.5 c 128,-1,26
 -59 -349 -59 -349 -87 -349 c 0,27,28
 -115 -349 -115 -349 -133.5 -330.5 c 128,-1,29
 -152 -312 -152 -312 -152 -284 c 0,18,19
EndSplineSet
Validated: 1
EndChar
StartChar: gereshaccent
Encoding: 48 1436 12
Width: 0
VWidth: 1738
GlyphClass: 4
Flags: W
AnchorPoint: "accent top" 0 0 mark 0
LayerCount: 2
Fore
SplineSet
142 1322 m 1,0,1
 110 1315 110 1315 88.5 1302.5 c 128,-1,2
 67 1290 67 1290 54 1273 c 128,-1,3
 41 1256 41 1256 36 1236.5 c 128,-1,4
 31 1217 31 1217 31 1193 c 0,5,6
 31 1160 31 1160 34 1122.5 c 128,-1,7
 37 1085 37 1085 41 1046 c 1,8,-1
 -33 1037 l 1,9,10
 -38 1075 -38 1075 -41 1114 c 128,-1,11
 -44 1153 -44 1153 -44 1192 c 0,12,13
 -44 1226 -44 1226 -36 1257.5 c 128,-1,14
 -28 1289 -28 1289 -8.5 1315.5 c 128,-1,15
 11 1342 11 1342 44.5 1362 c 128,-1,16
 78 1382 78 1382 127 1392 c 1,17,-1
 142 1322 l 1,0,1
EndSplineSet
Validated: 1
EndChar
StartChar: gereshmuqdam
Encoding: 49 1437 13
Width: 0
VWidth: 1738
GlyphClass: 4
Flags: W
AnchorPoint: "accent top" 0 0 mark 0
LayerCount: 2
Fore
SplineSet
424 1322 m 1,0,1
 392 1315 392 1315 370.5 1302.5 c 128,-1,2
 349 1290 349 1290 336.5 1273 c 128,-1,3
 324 1256 324 1256 318.5 1236.5 c 128,-1,4
 313 1217 313 1217 313 1193 c 0,5,6
 313 1160 313 1160 315.5 1122.5 c 128,-1,7
 318 1085 318 1085 323 1046 c 1,8,-1
 249 1037 l 1,9,10
 244 1075 244 1075 241 1114 c 128,-1,11
 238 1153 238 1153 238 1192 c 0,12,13
 238 1226 238 1226 246 1257.5 c 128,-1,14
 254 1289 254 1289 273.5 1315.5 c 128,-1,15
 293 1342 293 1342 326 1362 c 128,-1,16
 359 1382 359 1382 409 1392 c 1,17,-1
 424 1322 l 1,0,1
EndSplineSet
Validated: 1
EndChar
StartChar: gershayimaccent
Encoding: 50 1438 14
Width: 0
VWidth: 1738
GlyphClass: 4
Flags: W
AnchorPoint: "accent top" 0 0 mark 0
LayerCount: 2
Fore
SplineSet
241 1322 m 1,0,1
 209 1315 209 1315 188 1302.5 c 128,-1,2
 167 1290 167 1290 154 1273 c 128,-1,3
 141 1256 141 1256 135.5 1236.5 c 128,-1,4
 130 1217 130 1217 130 1193 c 0,5,6
 130 1160 130 1160 133 1122.5 c 128,-1,7
 136 1085 136 1085 140 1046 c 1,8,-1
 66 1037 l 1,9,10
 61 1075 61 1075 58 1114 c 128,-1,11
 55 1153 55 1153 55 1192 c 0,12,13
 55 1226 55 1226 63 1257.5 c 128,-1,14
 71 1289 71 1289 90.5 1315.5 c 128,-1,15
 110 1342 110 1342 143.5 1362 c 128,-1,16
 177 1382 177 1382 227 1392 c 1,17,-1
 241 1322 l 1,0,1
47 1322 m 1,18,19
 15 1315 15 1315 -7 1302.5 c 128,-1,20
 -29 1290 -29 1290 -41.5 1273 c 128,-1,21
 -54 1256 -54 1256 -60 1236.5 c 128,-1,22
 -66 1217 -66 1217 -66 1193 c 0,23,24
 -66 1160 -66 1160 -62.5 1122.5 c 128,-1,25
 -59 1085 -59 1085 -55 1046 c 1,26,-1
 -129 1037 l 1,27,28
 -134 1075 -134 1075 -137 1114 c 128,-1,29
 -140 1153 -140 1153 -140 1192 c 0,30,31
 -140 1226 -140 1226 -132 1257.5 c 128,-1,32
 -124 1289 -124 1289 -104.5 1315.5 c 128,-1,33
 -85 1342 -85 1342 -52 1362 c 128,-1,34
 -19 1382 -19 1382 32 1392 c 1,35,-1
 47 1322 l 1,18,19
EndSplineSet
Validated: 1
EndChar
StartChar: qarneypara
Encoding: 51 1439 15
Width: 0
VWidth: 1738
GlyphClass: 4
Flags: W
AnchorPoint: "accent top" 0 0 mark 0
LayerCount: 2
Fore
SplineSet
-2 1017 m 1,0,-1
 -130 1144 l 1,1,2
 -170 1113 -170 1113 -224 1113 c 0,3,4
 -260 1113 -260 1113 -289.5 1125.5 c 128,-1,5
 -319 1138 -319 1138 -340.5 1160 c 128,-1,6
 -362 1182 -362 1182 -375 1212 c 128,-1,7
 -388 1242 -388 1242 -388 1276 c 256,8,9
 -388 1310 -388 1310 -375 1339.5 c 128,-1,10
 -362 1369 -362 1369 -340.5 1391.5 c 128,-1,11
 -319 1414 -319 1414 -289 1427 c 128,-1,12
 -259 1440 -259 1440 -224 1440 c 256,13,14
 -188 1440 -188 1440 -157.5 1427 c 128,-1,15
 -127 1414 -127 1414 -105.5 1391.5 c 128,-1,16
 -84 1369 -84 1369 -72 1339 c 128,-1,17
 -60 1309 -60 1309 -60 1276 c 0,18,19
 -60 1250 -60 1250 -68 1227 c 128,-1,20
 -76 1204 -76 1204 -90 1184 c 1,21,-1
 0 1100 l 1,22,-1
 90 1184 l 1,23,24
 76 1204 76 1204 68 1227 c 128,-1,25
 60 1250 60 1250 60 1276 c 0,26,27
 60 1310 60 1310 72 1339.5 c 128,-1,28
 84 1369 84 1369 105.5 1391.5 c 128,-1,29
 127 1414 127 1414 157 1427 c 128,-1,30
 187 1440 187 1440 224 1440 c 256,31,32
 260 1440 260 1440 289.5 1427 c 128,-1,33
 319 1414 319 1414 340.5 1391.5 c 128,-1,34
 362 1369 362 1369 375 1339 c 128,-1,35
 388 1309 388 1309 388 1276 c 256,36,37
 388 1242 388 1242 375 1212 c 128,-1,38
 362 1182 362 1182 340.5 1160 c 128,-1,39
 319 1138 319 1138 289 1125.5 c 128,-1,40
 259 1113 259 1113 224 1113 c 0,41,42
 171 1113 171 1113 130 1144 c 1,43,-1
 2 1017 l 1,44,-1
 -2 1017 l 1,0,-1
-122 1276 m 256,45,46
 -122 1298 -122 1298 -129 1317 c 128,-1,47
 -136 1336 -136 1336 -149 1350.5 c 128,-1,48
 -162 1365 -162 1365 -181 1373.5 c 128,-1,49
 -200 1382 -200 1382 -224 1382 c 256,50,51
 -246 1382 -246 1382 -265.5 1373.5 c 128,-1,52
 -285 1365 -285 1365 -298 1350.5 c 128,-1,53
 -311 1336 -311 1336 -318 1316.5 c 128,-1,54
 -325 1297 -325 1297 -325 1276 c 256,55,56
 -325 1254 -325 1254 -318 1235.5 c 128,-1,57
 -311 1217 -311 1217 -298 1202.5 c 128,-1,58
 -285 1188 -285 1188 -265.5 1179.5 c 128,-1,59
 -246 1171 -246 1171 -224 1171 c 256,60,61
 -202 1171 -202 1171 -182 1179.5 c 128,-1,62
 -162 1188 -162 1188 -149 1202.5 c 128,-1,63
 -136 1217 -136 1217 -129 1235.5 c 128,-1,64
 -122 1254 -122 1254 -122 1276 c 256,45,46
122 1276 m 256,65,66
 122 1254 122 1254 129 1235.5 c 128,-1,67
 136 1217 136 1217 149 1202.5 c 128,-1,68
 162 1188 162 1188 181 1179.5 c 128,-1,69
 200 1171 200 1171 224 1171 c 256,70,71
 246 1171 246 1171 265.5 1179.5 c 128,-1,72
 285 1188 285 1188 298 1202.5 c 128,-1,73
 311 1217 311 1217 318 1236 c 128,-1,74
 325 1255 325 1255 325 1276 c 256,75,76
 325 1298 325 1298 318 1317 c 128,-1,77
 311 1336 311 1336 298 1350.5 c 128,-1,78
 285 1365 285 1365 265.5 1373.5 c 128,-1,79
 246 1382 246 1382 224 1382 c 256,80,81
 202 1382 202 1382 182 1373.5 c 128,-1,82
 162 1365 162 1365 149 1350.5 c 128,-1,83
 136 1336 136 1336 129 1317 c 128,-1,84
 122 1298 122 1298 122 1276 c 256,65,66
EndSplineSet
Validated: 1
EndChar
StartChar: telishagedola
Encoding: 52 1440 16
Width: 0
VWidth: 1738
GlyphClass: 4
Flags: W
AnchorPoint: "accent top" 0 0 mark 0
LayerCount: 2
Fore
SplineSet
240 1276 m 256,0,1
 240 1254 240 1254 247 1235.5 c 128,-1,2
 254 1217 254 1217 267 1202.5 c 128,-1,3
 280 1188 280 1188 299 1179.5 c 128,-1,4
 318 1171 318 1171 342 1171 c 256,5,6
 364 1171 364 1171 383 1179.5 c 128,-1,7
 402 1188 402 1188 415.5 1202.5 c 128,-1,8
 429 1217 429 1217 436 1236 c 128,-1,9
 443 1255 443 1255 443 1276 c 256,10,11
 443 1298 443 1298 436 1317 c 128,-1,12
 429 1336 429 1336 415.5 1350.5 c 128,-1,13
 402 1365 402 1365 383 1373.5 c 128,-1,14
 364 1382 364 1382 342 1382 c 256,15,16
 320 1382 320 1382 300 1373.5 c 128,-1,17
 280 1365 280 1365 267 1350.5 c 128,-1,18
 254 1336 254 1336 247 1317 c 128,-1,19
 240 1298 240 1298 240 1276 c 256,0,1
178 1276 m 0,20,21
 178 1310 178 1310 190 1339.5 c 128,-1,22
 202 1369 202 1369 223.5 1391.5 c 128,-1,23
 245 1414 245 1414 275.5 1427 c 128,-1,24
 306 1440 306 1440 342 1440 c 256,25,26
 378 1440 378 1440 407.5 1427 c 128,-1,27
 437 1414 437 1414 458.5 1391.5 c 128,-1,28
 480 1369 480 1369 492.5 1339 c 128,-1,29
 505 1309 505 1309 505 1276 c 256,30,31
 505 1242 505 1242 492.5 1212 c 128,-1,32
 480 1182 480 1182 458.5 1160 c 128,-1,33
 437 1138 437 1138 407 1125.5 c 128,-1,34
 377 1113 377 1113 342 1113 c 0,35,36
 332 1113 332 1113 315.5 1116 c 128,-1,37
 299 1119 299 1119 285 1124 c 1,38,-1
 219 1000 l 1,39,-1
 161 1033 l 1,40,-1
 236 1153 l 1,41,42
 219 1168 219 1168 208 1184 c 128,-1,43
 197 1200 197 1200 190 1216.5 c 128,-1,44
 183 1233 183 1233 180.5 1248 c 128,-1,45
 178 1263 178 1263 178 1276 c 0,20,21
EndSplineSet
Validated: 1
EndChar
StartChar: pazer
Encoding: 53 1441 17
Width: 0
VWidth: 1738
GlyphClass: 4
Flags: W
AnchorPoint: "accent top" 0 0 mark 0
LayerCount: 2
Fore
SplineSet
-72 1042 m 1,0,-1
 -72 1380 l 1,1,-1
 0 1388 l 1,2,-1
 0 1207 l 1,3,4
 14 1203 14 1203 31 1204 c 0,5,6
 68 1204 68 1204 87.5 1229.5 c 128,-1,7
 107 1255 107 1255 107 1316 c 0,8,9
 107 1330 107 1330 106 1345.5 c 128,-1,10
 105 1361 105 1361 104 1379 c 1,11,-1
 174 1386 l 1,12,13
 179 1354 179 1354 179 1317 c 0,14,15
 179 1284 179 1284 173 1251.5 c 128,-1,16
 167 1219 167 1219 151 1194 c 128,-1,17
 135 1169 135 1169 109 1153 c 128,-1,18
 83 1137 83 1137 44 1137 c 0,19,20
 23 1137 23 1137 0 1143 c 1,21,-1
 0 1050 l 1,22,-1
 -72 1042 l 1,0,-1
EndSplineSet
Validated: 1
EndChar
StartChar: atnahhafukh
Encoding: 54 1442 18
Width: 0
VWidth: 1738
GlyphClass: 4
Flags: W
AnchorPoint: "Meteg" 0 0 mark 0
AnchorPoint: "accent bottom left" 0 0 mark 0
LayerCount: 2
Fore
SplineSet
-36 -505 m 1,0,-1
 -36 -395 l 1,1,2
 -73 -389 -73 -389 -95.5 -371 c 128,-1,3
 -118 -353 -118 -353 -130.5 -328.5 c 128,-1,4
 -143 -304 -143 -304 -147.5 -275 c 128,-1,5
 -152 -246 -152 -246 -152 -217 c 0,6,7
 -152 -198 -152 -198 -151 -181 c 128,-1,8
 -150 -164 -150 -164 -148 -148 c 1,9,-1
 -76 -141 l 1,10,11
 -79 -161 -79 -161 -79.5 -175.5 c 128,-1,12
 -80 -190 -80 -190 -80 -205 c 0,13,14
 -80 -271 -80 -271 -58.5 -299.5 c 128,-1,15
 -37 -328 -37 -328 2 -328 c 0,16,17
 41 -328 41 -328 60.5 -301 c 128,-1,18
 80 -274 80 -274 80 -211 c 0,19,20
 80 -197 80 -197 79.5 -181.5 c 128,-1,21
 79 -166 79 -166 78 -148 c 1,22,-1
 149 -141 l 1,23,24
 151 -157 151 -157 152 -174.5 c 128,-1,25
 153 -192 153 -192 153 -211 c 0,26,27
 153 -242 153 -242 147.5 -271.5 c 128,-1,28
 142 -301 142 -301 129.5 -326.5 c 128,-1,29
 117 -352 117 -352 94.5 -370 c 128,-1,30
 72 -388 72 -388 37 -395 c 1,31,-1
 37 -497 l 1,32,-1
 -36 -505 l 1,0,-1
EndSplineSet
Validated: 1
EndChar
StartChar: munah
Encoding: 55 1443 19
Width: 0
VWidth: 1738
GlyphClass: 4
Flags: W
AnchorPoint: "Meteg" 0 0 mark 0
AnchorPoint: "accent bottom left" 0 0 mark 0
LayerCount: 2
Fore
SplineSet
124 -486 m 1,0,-1
 -124 -486 l 1,1,-1
 -116 -414 l 1,2,-1
 52 -414 l 1,3,-1
 52 -156 l 1,4,-1
 124 -148 l 1,5,-1
 124 -486 l 1,0,-1
EndSplineSet
Validated: 1
EndChar
StartChar: mahapakh
Encoding: 56 1444 20
Width: 0
VWidth: 1738
GlyphClass: 4
Flags: W
AnchorPoint: "Meteg" 0 0 mark 0
AnchorPoint: "accent bottom left" 0 0 mark 0
LayerCount: 2
Fore
SplineSet
134 -437 m 1,0,-1
 85 -498 l 1,1,-1
 -141 -322 l 1,2,-1
 85 -145 l 1,3,-1
 134 -206 l 1,4,-1
 -28 -319 l 1,5,-1
 134 -437 l 1,0,-1
EndSplineSet
Validated: 1
EndChar
StartChar: merkha
Encoding: 57 1445 21
Width: 0
VWidth: 1738
GlyphClass: 4
Flags: W
AnchorPoint: "Meteg" 0 0 mark 0
AnchorPoint: "accent bottom left" 0 0 mark 0
LayerCount: 2
Fore
SplineSet
-142 -428 m 1,0,1
 -110 -421 -110 -421 -88.5 -408.5 c 128,-1,2
 -67 -396 -67 -396 -54 -379 c 128,-1,3
 -41 -362 -41 -362 -36 -342.5 c 128,-1,4
 -31 -323 -31 -323 -31 -300 c 0,5,6
 -31 -267 -31 -267 -34 -229 c 128,-1,7
 -37 -191 -37 -191 -41 -152 c 1,8,-1
 33 -143 l 1,9,10
 38 -181 38 -181 41 -220 c 128,-1,11
 44 -259 44 -259 44 -297 c 0,12,13
 44 -332 44 -332 36 -363.5 c 128,-1,14
 28 -395 28 -395 8.5 -421.5 c 128,-1,15
 -11 -448 -11 -448 -44.5 -468.5 c 128,-1,16
 -78 -489 -78 -489 -127 -498 c 1,17,-1
 -142 -428 l 1,0,1
EndSplineSet
Validated: 1
EndChar
StartChar: merkhakefula
Encoding: 58 1446 22
Width: 0
VWidth: 1738
GlyphClass: 4
Flags: W
AnchorPoint: "Meteg" 0 0 mark 0
AnchorPoint: "accent bottom left" 0 0 mark 0
LayerCount: 2
Fore
SplineSet
-241 -428 m 1,0,1
 -209 -421 -209 -421 -188 -408.5 c 128,-1,2
 -167 -396 -167 -396 -154 -379 c 128,-1,3
 -141 -362 -141 -362 -135.5 -342.5 c 128,-1,4
 -130 -323 -130 -323 -130 -300 c 0,5,6
 -130 -267 -130 -267 -133 -229 c 128,-1,7
 -136 -191 -136 -191 -140 -152 c 1,8,-1
 -66 -143 l 1,9,10
 -61 -181 -61 -181 -58 -220 c 128,-1,11
 -55 -259 -55 -259 -55 -297 c 0,12,13
 -55 -332 -55 -332 -63 -363.5 c 128,-1,14
 -71 -395 -71 -395 -90.5 -421.5 c 128,-1,15
 -110 -448 -110 -448 -143.5 -468.5 c 128,-1,16
 -177 -489 -177 -489 -227 -498 c 1,17,-1
 -241 -428 l 1,0,1
-47 -428 m 1,18,19
 -15 -421 -15 -421 7 -408.5 c 128,-1,20
 29 -396 29 -396 41.5 -379 c 128,-1,21
 54 -362 54 -362 60 -342.5 c 128,-1,22
 66 -323 66 -323 66 -300 c 0,23,24
 66 -267 66 -267 62.5 -229 c 128,-1,25
 59 -191 59 -191 55 -152 c 1,26,-1
 129 -143 l 1,27,28
 134 -181 134 -181 137 -220 c 128,-1,29
 140 -259 140 -259 140 -297 c 0,30,31
 140 -332 140 -332 132 -363.5 c 128,-1,32
 124 -395 124 -395 104.5 -421.5 c 128,-1,33
 85 -448 85 -448 52 -468.5 c 128,-1,34
 19 -489 19 -489 -32 -498 c 1,35,-1
 -47 -428 l 1,18,19
EndSplineSet
Validated: 1
EndChar
StartChar: darga
Encoding: 59 1447 23
Width: 0
VWidth: 1738
GlyphClass: 4
Flags: W
AnchorPoint: "Meteg" 0 0 mark 0
AnchorPoint: "accent bottom left" 0 0 mark 0
LayerCount: 2
Fore
SplineSet
-93 -434 m 1,0,1
 -85 -432 -85 -432 -76 -431.5 c 128,-1,2
 -67 -431 -67 -431 -60 -429 c 0,3,4
 -37 -425 -37 -425 -19 -421 c 128,-1,5
 -1 -417 -1 -417 10.5 -411.5 c 128,-1,6
 22 -406 22 -406 28 -397 c 128,-1,7
 34 -388 34 -388 34 -371 c 0,8,9
 34 -367 34 -367 -9 -355 c 0,10,11
 -42 -345 -42 -345 -61 -337 c 128,-1,12
 -80 -329 -80 -329 -89 -320 c 128,-1,13
 -98 -311 -98 -311 -101 -299.5 c 128,-1,14
 -104 -288 -104 -288 -104 -272 c 0,15,16
 -104 -239 -104 -239 -94.5 -217 c 128,-1,17
 -85 -195 -85 -195 -63.5 -179.5 c 128,-1,18
 -42 -164 -42 -164 -8 -154.5 c 128,-1,19
 26 -145 26 -145 76 -139 c 1,20,-1
 81 -207 l 1,21,22
 76 -208 76 -208 72 -208.5 c 128,-1,23
 68 -209 68 -209 65 -210 c 0,24,25
 63 -210 63 -210 61 -210.5 c 128,-1,26
 59 -211 59 -211 58 -211 c 0,27,28
 38 -215 38 -215 21.5 -218.5 c 128,-1,29
 5 -222 5 -222 -8 -228 c 128,-1,30
 -21 -234 -21 -234 -27.5 -243.5 c 128,-1,31
 -34 -253 -34 -253 -34 -269 c 0,32,33
 -34 -272 -34 -272 9 -284 c 0,34,35
 42 -294 42 -294 61 -302.5 c 128,-1,36
 80 -311 80 -311 89 -320 c 128,-1,37
 98 -329 98 -329 101 -340 c 128,-1,38
 104 -351 104 -351 104 -367 c 0,39,40
 104 -401 104 -401 93.5 -423.5 c 128,-1,41
 83 -446 83 -446 60 -461.5 c 128,-1,42
 37 -477 37 -477 0.5 -486.5 c 128,-1,43
 -36 -496 -36 -496 -88 -503 c 1,44,-1
 -93 -434 l 1,0,1
EndSplineSet
Validated: 1
EndChar
StartChar: qadma
Encoding: 60 1448 24
Width: 0
VWidth: 1738
GlyphClass: 4
Flags: W
AnchorPoint: "accent top" 0 0 mark 0
LayerCount: 2
Fore
SplineSet
-127 1392 m 1,0,1
 -76 1382 -76 1382 -43.5 1362 c 128,-1,2
 -11 1342 -11 1342 8.5 1315.5 c 128,-1,3
 28 1289 28 1289 36 1257 c 128,-1,4
 44 1225 44 1225 44 1192 c 0,5,6
 44 1172 44 1172 43 1155 c 128,-1,7
 42 1138 42 1138 41 1121 c 128,-1,8
 40 1104 40 1104 38.5 1086 c 128,-1,9
 37 1068 37 1068 34 1046 c 1,10,-1
 -41 1037 l 1,11,12
 -36 1083 -36 1083 -33.5 1122.5 c 128,-1,13
 -31 1162 -31 1162 -31 1193 c 0,14,15
 -31 1215 -31 1215 -36 1235.5 c 128,-1,16
 -41 1256 -41 1256 -54 1273 c 128,-1,17
 -67 1290 -67 1290 -88.5 1302 c 128,-1,18
 -110 1314 -110 1314 -142 1322 c 1,19,-1
 -127 1392 l 1,0,1
EndSplineSet
Validated: 1
EndChar
StartChar: telishaqetana
Encoding: 61 1449 25
Width: 0
VWidth: 1738
GlyphClass: 4
Flags: W
AnchorPoint: "accent top" 0 0 mark 0
LayerCount: 2
Fore
SplineSet
-240 1276 m 256,0,1
 -240 1298 -240 1298 -247 1317 c 128,-1,2
 -254 1336 -254 1336 -267 1350.5 c 128,-1,3
 -280 1365 -280 1365 -299 1373.5 c 128,-1,4
 -318 1382 -318 1382 -342 1382 c 256,5,6
 -364 1382 -364 1382 -383 1373.5 c 128,-1,7
 -402 1365 -402 1365 -415.5 1350.5 c 128,-1,8
 -429 1336 -429 1336 -436 1316.5 c 128,-1,9
 -443 1297 -443 1297 -443 1276 c 256,10,11
 -443 1254 -443 1254 -436 1235.5 c 128,-1,12
 -429 1217 -429 1217 -415.5 1202.5 c 128,-1,13
 -402 1188 -402 1188 -383 1179.5 c 128,-1,14
 -364 1171 -364 1171 -342 1171 c 256,15,16
 -320 1171 -320 1171 -300 1179.5 c 128,-1,17
 -280 1188 -280 1188 -267 1202.5 c 128,-1,18
 -254 1217 -254 1217 -247 1235.5 c 128,-1,19
 -240 1254 -240 1254 -240 1276 c 256,0,1
-178 1276 m 0,20,21
 -178 1250 -178 1250 -190 1216 c 128,-1,22
 -202 1182 -202 1182 -236 1153 c 1,23,-1
 -161 1033 l 1,24,-1
 -219 1000 l 1,25,-1
 -285 1124 l 1,26,27
 -299 1119 -299 1119 -315 1116 c 128,-1,28
 -331 1113 -331 1113 -342 1113 c 0,29,30
 -378 1113 -378 1113 -407.5 1125.5 c 128,-1,31
 -437 1138 -437 1138 -458.5 1160 c 128,-1,32
 -480 1182 -480 1182 -492.5 1212 c 128,-1,33
 -505 1242 -505 1242 -505 1276 c 256,34,35
 -505 1310 -505 1310 -492.5 1339.5 c 128,-1,36
 -480 1369 -480 1369 -458.5 1391.5 c 128,-1,37
 -437 1414 -437 1414 -407 1427 c 128,-1,38
 -377 1440 -377 1440 -342 1440 c 256,39,40
 -306 1440 -306 1440 -275.5 1427 c 128,-1,41
 -245 1414 -245 1414 -223.5 1391.5 c 128,-1,42
 -202 1369 -202 1369 -190 1339.5 c 128,-1,43
 -178 1310 -178 1310 -178 1276 c 0,20,21
EndSplineSet
Validated: 1
EndChar
StartChar: ole
Encoding: 63 1451 27
Width: 0
VWidth: 1738
GlyphClass: 4
Flags: W
AnchorPoint: "accent top" 0 0 mark 0
LayerCount: 2
Fore
SplineSet
183 1100 m 1,0,-1
 133 1038 l 1,1,-1
 -94 1215 l 1,2,-1
 133 1392 l 1,3,-1
 183 1330 l 1,4,-1
 21 1218 l 1,5,-1
 183 1100 l 1,0,-1
EndSplineSet
Validated: 1
EndChar
StartChar: iluy
Encoding: 64 1452 28
Width: 0
VWidth: 1738
GlyphClass: 4
Flags: W
AnchorPoint: "accent top" 0 0 mark 0
LayerCount: 2
Fore
SplineSet
129 1021 m 1,0,-1
 -129 1021 l 1,1,-1
 -121 1093 l 1,2,-1
 57 1093 l 1,3,-1
 57 1351 l 1,4,-1
 129 1359 l 1,5,-1
 129 1021 l 1,0,-1
EndSplineSet
Validated: 1
EndChar
StartChar: dehi
Encoding: 65 1453 29
Width: 0
VWidth: 1738
GlyphClass: 4
Flags: W
AnchorPoint: "accent bottom left" 0 0 mark 0
LayerCount: 2
Fore
SplineSet
490 -498 m 1,0,1
 439 -488 439 -488 406 -468 c 128,-1,2
 373 -448 373 -448 353.5 -421.5 c 128,-1,3
 334 -395 334 -395 326 -363.5 c 128,-1,4
 318 -332 318 -332 318 -297 c 0,5,6
 318 -278 318 -278 319 -261 c 128,-1,7
 320 -244 320 -244 321.5 -227.5 c 128,-1,8
 323 -211 323 -211 324.5 -192.5 c 128,-1,9
 326 -174 326 -174 329 -152 c 1,10,-1
 404 -143 l 1,11,12
 399 -189 399 -189 396 -228.5 c 128,-1,13
 393 -268 393 -268 393 -300 c 0,14,15
 393 -322 393 -322 398.5 -342 c 128,-1,16
 404 -362 404 -362 417 -379 c 128,-1,17
 430 -396 430 -396 451.5 -408 c 128,-1,18
 473 -420 473 -420 505 -428 c 1,19,-1
 490 -498 l 1,0,1
EndSplineSet
Validated: 1
EndChar
StartChar: zinor
Encoding: 66 1454 30
Width: 0
VWidth: 1738
GlyphClass: 4
Flags: W
AnchorPoint: "accent top" 0 0 mark 0
LayerCount: 2
Fore
SplineSet
-266 1300 m 1,0,1
 -228 1281 -228 1281 -205.5 1252 c 128,-1,2
 -183 1223 -183 1223 -183 1184 c 0,3,4
 -183 1157 -183 1157 -192 1134.5 c 128,-1,5
 -201 1112 -201 1112 -217 1095.5 c 128,-1,6
 -233 1079 -233 1079 -255.5 1070 c 128,-1,7
 -278 1061 -278 1061 -302 1061 c 0,8,9
 -328 1061 -328 1061 -349 1069 c 128,-1,10
 -370 1077 -370 1077 -385.5 1091 c 128,-1,11
 -401 1105 -401 1105 -412.5 1122 c 128,-1,12
 -424 1139 -424 1139 -434 1156 c 0,13,14
 -441 1169 -441 1169 -449.5 1181.5 c 128,-1,15
 -458 1194 -458 1194 -466.5 1204.5 c 128,-1,16
 -475 1215 -475 1215 -485.5 1221.5 c 128,-1,17
 -496 1228 -496 1228 -509 1228 c 0,18,19
 -531 1228 -531 1228 -546.5 1212.5 c 128,-1,20
 -562 1197 -562 1197 -562 1173 c 0,21,22
 -562 1155 -562 1155 -549.5 1140.5 c 128,-1,23
 -537 1126 -537 1126 -516 1119 c 1,24,-1
 -549 1055 l 1,25,26
 -588 1075 -588 1075 -610.5 1103.5 c 128,-1,27
 -633 1132 -633 1132 -633 1172 c 0,28,29
 -633 1198 -633 1198 -623.5 1221 c 128,-1,30
 -614 1244 -614 1244 -597 1260 c 128,-1,31
 -580 1276 -580 1276 -558 1285.5 c 128,-1,32
 -536 1295 -536 1295 -511 1295 c 0,33,34
 -485 1295 -485 1295 -465 1286.5 c 128,-1,35
 -445 1278 -445 1278 -430 1264.5 c 128,-1,36
 -415 1251 -415 1251 -402 1234 c 128,-1,37
 -389 1217 -389 1217 -379 1200 c 0,38,39
 -371 1186 -371 1186 -363 1173.5 c 128,-1,40
 -355 1161 -355 1161 -346.5 1150.5 c 128,-1,41
 -338 1140 -338 1140 -327.5 1134 c 128,-1,42
 -317 1128 -317 1128 -306 1128 c 0,43,44
 -284 1128 -284 1128 -269 1144 c 128,-1,45
 -254 1160 -254 1160 -254 1183 c 0,46,47
 -254 1200 -254 1200 -266 1214 c 128,-1,48
 -278 1228 -278 1228 -300 1236 c 1,49,-1
 -266 1300 l 1,0,1
EndSplineSet
Validated: 1
EndChar
StartChar: masoracircle
Encoding: 67 1455 31
Width: 0
VWidth: 1738
GlyphClass: 4
Flags: W
AnchorPoint: "accent top" 0 0 mark 0
LayerCount: 2
Fore
SplineSet
-166 1274 m 0,0,1
 -166 1308 -166 1308 -152.5 1338.5 c 128,-1,2
 -139 1369 -139 1369 -117 1391 c 128,-1,3
 -95 1413 -95 1413 -65 1426.5 c 128,-1,4
 -35 1440 -35 1440 0 1440 c 0,5,6
 34 1440 34 1440 64.5 1426.5 c 128,-1,7
 95 1413 95 1413 117 1391 c 128,-1,8
 139 1369 139 1369 152.5 1339 c 128,-1,9
 166 1309 166 1309 166 1274 c 0,10,11
 166 1239 166 1239 152.5 1209 c 128,-1,12
 139 1179 139 1179 117 1157 c 128,-1,13
 95 1135 95 1135 64.5 1122 c 128,-1,14
 34 1109 34 1109 0 1109 c 0,15,16
 -35 1109 -35 1109 -65 1122 c 128,-1,17
 -95 1135 -95 1135 -117 1157 c 128,-1,18
 -139 1179 -139 1179 -152.5 1209 c 128,-1,19
 -166 1239 -166 1239 -166 1274 c 0,0,1
-116 1274 m 256,20,21
 -116 1249 -116 1249 -107 1227.5 c 128,-1,22
 -98 1206 -98 1206 -82 1189.5 c 128,-1,23
 -66 1173 -66 1173 -45 1163.5 c 128,-1,24
 -24 1154 -24 1154 0 1154 c 0,25,26
 23 1154 23 1154 44.5 1163.5 c 128,-1,27
 66 1173 66 1173 82 1189.5 c 128,-1,28
 98 1206 98 1206 107 1227.5 c 128,-1,29
 116 1249 116 1249 116 1274 c 256,30,31
 116 1299 116 1299 107 1321 c 128,-1,32
 98 1343 98 1343 82 1359.5 c 128,-1,33
 66 1376 66 1376 44.5 1385.5 c 128,-1,34
 23 1395 23 1395 0 1395 c 0,35,36
 -24 1395 -24 1395 -45 1385.5 c 128,-1,37
 -66 1376 -66 1376 -82 1359.5 c 128,-1,38
 -98 1343 -98 1343 -107 1321 c 128,-1,39
 -116 1299 -116 1299 -116 1274 c 256,20,21
EndSplineSet
Validated: 1
EndChar
StartChar: sheva
Encoding: 68 1456 32
Width: 0
VWidth: 1738
GlyphClass: 4
InSpiro: 1
Flags: W
AnchorPoint: "Meteg" -186.771 0 basemark 0
AnchorPoint: "Bottom Narrow Point" -2.12207 -2.7168 mark 0
LayerCount: 2
Fore
SplineSet
0 -498.340820312 m 0,0,1
 -26.318359375 -498.340820312 -26.318359375 -498.340820312 -42.873046875 -478.390625 c 128,-1,2
 -59.427734375 -458.439453125 -59.427734375 -458.439453125 -59.427734375 -428.725585938 c 0,3,4
 -59.427734375 -398.1640625 -59.427734375 -398.1640625 -42.4482421875 -378.63671875 c 128,-1,5
 -25.46875 -359.111328125 -25.46875 -359.111328125 0 -359.111328125 c 0,6,7
 26.318359375 -359.111328125 26.318359375 -359.111328125 42.873046875 -379.0625 c 128,-1,8
 59.427734375 -399.012695312 59.427734375 -399.012695312 59.427734375 -428.725585938 c 0,9,10
 59.427734375 -459.2890625 59.427734375 -459.2890625 42.4482421875 -478.815429688 c 128,-1,11
 25.46875 -498.340820312 25.46875 -498.340820312 0 -498.340820312 c 0,0,1
  Spiro
    0 -498.341 o
    -23.8771 -493.354 o
    -42.8727 -478.391 o
    -55.2887 -455.999 o
    -59.4274 -428.727 o
    -55.1826 -400.922 o
    -42.4482 -378.638 o
    -23.3465 -363.993 o
    0 -359.111 o
    23.8771 -364.098 o
    42.8727 -379.062 o
    55.2887 -401.453 o
    59.4274 -428.727 o
    55.1826 -456.53 o
    42.4482 -478.815 o
    23.3465 -493.459 o
    0 0 z
  EndSpiro
0 -282.705078125 m 0,12,13
 -26.318359375 -282.705078125 -26.318359375 -282.705078125 -42.873046875 -262.75390625 c 128,-1,14
 -59.427734375 -242.803710938 -59.427734375 -242.803710938 -59.427734375 -213.08984375 c 0,15,16
 -59.427734375 -182.52734375 -59.427734375 -182.52734375 -42.4482421875 -163.000976562 c 128,-1,17
 -25.46875 -143.474609375 -25.46875 -143.474609375 0 -143.474609375 c 0,18,19
 26.318359375 -143.474609375 26.318359375 -143.474609375 42.873046875 -163.424804688 c 128,-1,20
 59.427734375 -183.375976562 59.427734375 -183.375976562 59.427734375 -213.08984375 c 0,21,22
 59.427734375 -243.65234375 59.427734375 -243.65234375 42.4482421875 -263.178710938 c 128,-1,23
 25.46875 -282.705078125 25.46875 -282.705078125 0 -282.705078125 c 0,12,13
  Spiro
    0 -282.704 o
    -23.8771 -277.717 o
    -42.8727 -262.754 o
    -55.2887 -240.363 o
    -59.4274 -213.089 o
    -55.1826 -185.286 o
    -42.4482 -163 o
    -23.3465 -148.356 o
    0 -143.475 o
    23.8771 -148.462 o
    42.8727 -163.425 o
    55.2887 -185.817 o
    59.4274 -213.089 o
    55.1826 -240.893 o
    42.4482 -263.178 o
    23.3465 -277.823 o
    0 0 z
  EndSpiro
EndSplineSet
Validated: 1
Position2: "move vowel" dx=25 dy=0 dh=0 dv=0
EndChar
StartChar: hatafsegol
Encoding: 69 1457 33
Width: 0
VWidth: 1738
GlyphClass: 4
Flags: W
AnchorPoint: "Meteg" -382 0 basemark 0
AnchorPoint: "Bottom Wide Point" 0 0 mark 0
LayerCount: 2
Fore
SplineSet
198 -498 m 0,0,1
 172 -498 172 -498 155.5 -478.5 c 128,-1,2
 139 -459 139 -459 139 -429 c 0,3,4
 139 -398 139 -398 156.5 -378.5 c 128,-1,5
 174 -359 174 -359 198 -359 c 0,6,7
 224 -359 224 -359 241 -379 c 128,-1,8
 258 -399 258 -399 258 -429 c 0,9,10
 258 -460 258 -460 240.5 -479 c 128,-1,11
 223 -498 223 -498 198 -498 c 0,0,1
198 -283 m 0,12,13
 172 -283 172 -283 155.5 -262.5 c 128,-1,14
 139 -242 139 -242 139 -213 c 0,15,16
 139 -182 139 -182 156.5 -162.5 c 128,-1,17
 174 -143 174 -143 198 -143 c 0,18,19
 224 -143 224 -143 241 -163 c 128,-1,20
 258 -183 258 -183 258 -213 c 0,21,22
 258 -244 258 -244 240.5 -263.5 c 128,-1,23
 223 -283 223 -283 198 -283 c 0,12,13
0 -143 m 0,24,25
 26 -143 26 -143 43.5 -163 c 128,-1,26
 61 -183 61 -183 61 -213 c 0,27,28
 61 -244 61 -244 43.5 -263.5 c 128,-1,29
 26 -283 26 -283 0 -283 c 128,-1,30
 -26 -283 -26 -283 -42 -262.5 c 128,-1,31
 -58 -242 -58 -242 -58 -213 c 0,32,33
 -58 -182 -58 -182 -41 -162.5 c 128,-1,34
 -24 -143 -24 -143 0 -143 c 0,24,25
-98 -359 m 0,35,36
 -72 -359 -72 -359 -55.5 -379 c 128,-1,37
 -39 -399 -39 -399 -39 -429 c 0,38,39
 -39 -460 -39 -460 -56 -479 c 128,-1,40
 -73 -498 -73 -498 -98 -498 c 0,41,42
 -124 -498 -124 -498 -141 -478.5 c 128,-1,43
 -158 -459 -158 -459 -158 -429 c 0,44,45
 -158 -398 -158 -398 -140.5 -378.5 c 128,-1,46
 -123 -359 -123 -359 -98 -359 c 0,35,36
-198 -143 m 0,47,48
 -172 -143 -172 -143 -155.5 -163 c 128,-1,49
 -139 -183 -139 -183 -139 -213 c 0,50,51
 -139 -244 -139 -244 -156.5 -263.5 c 128,-1,52
 -174 -283 -174 -283 -198 -283 c 0,53,54
 -224 -283 -224 -283 -241 -262.5 c 128,-1,55
 -258 -242 -258 -242 -258 -213 c 0,56,57
 -258 -182 -258 -182 -240.5 -162.5 c 128,-1,58
 -223 -143 -223 -143 -198 -143 c 0,47,48
EndSplineSet
Validated: 1
Position2: "move vowel" dx=110 dy=0 dh=0 dv=0
EndChar
StartChar: hatafpatah
Encoding: 70 1458 34
Width: 0
VWidth: 1738
GlyphClass: 4
Flags: W
AnchorPoint: "Meteg" -382 0 basemark 0
AnchorPoint: "Bottom Wide Point" 0 0 mark 0
LayerCount: 2
Fore
SplineSet
26 -244 m 1,0,-1
 -227 -244 l 1,1,-1
 -227 -165 l 1,2,-1
 26 -165 l 1,3,-1
 26 -244 l 1,0,-1
168 -498 m 256,4,5
 143 -498 143 -498 126 -478.5 c 128,-1,6
 109 -459 109 -459 109 -429 c 0,7,8
 109 -398 109 -398 125 -378.5 c 128,-1,9
 141 -359 141 -359 167.5 -359 c 128,-1,10
 194 -359 194 -359 210.5 -379 c 128,-1,11
 227 -399 227 -399 227 -429 c 0,12,13
 227 -460 227 -460 210 -479 c 128,-1,14
 193 -498 193 -498 168 -498 c 256,4,5
168 -283 m 256,15,16
 143 -283 143 -283 126 -262.5 c 128,-1,17
 109 -242 109 -242 109 -213 c 0,18,19
 109 -182 109 -182 125 -162.5 c 128,-1,20
 141 -143 141 -143 167.5 -143 c 128,-1,21
 194 -143 194 -143 210.5 -163 c 128,-1,22
 227 -183 227 -183 227 -213 c 0,23,24
 227 -244 227 -244 210 -263.5 c 128,-1,25
 193 -283 193 -283 168 -283 c 256,15,16
EndSplineSet
Validated: 1
Position2: "move vowel" dx=110 dy=0 dh=0 dv=0
EndChar
StartChar: hatafqamats
Encoding: 71 1459 35
Width: 0
VWidth: 1738
GlyphClass: 4
Flags: W
AnchorPoint: "Meteg" -382 0 basemark 0
AnchorPoint: "Bottom Wide Point" 0 0 mark 0
LayerCount: 2
Fore
SplineSet
-119 -244 m 1,0,-1
 -226 -244 l 1,1,-1
 -226 -165 l 1,2,-1
 25 -165 l 1,3,-1
 25 -244 l 1,4,-1
 -83 -244 l 1,5,-1
 -83 -273 l 1,6,-1
 -83 -275 l 2,7,8
 -83 -319 -83 -319 -71 -348 c 2,9,-1
 -41 -424 l 1,10,11
 -61 -473 -61 -473 -83 -496 c 1,12,13
 -104 -501 -104 -501 -119 -496 c 1,14,15
 -144 -474 -144 -474 -160 -424 c 1,16,-1
 -129 -348 l 2,17,18
 -119 -326 -119 -326 -119 -277 c 2,19,-1
 -119 -273 l 1,20,21
 -119 -244 l 1,0,-1
167 -498 m 256,22,23
 142 -498 142 -498 125.5 -478.5 c 128,-1,24
 109 -459 109 -459 109 -429 c 0,25,26
 109 -398 109 -398 125 -378.5 c 128,-1,27
 141 -359 141 -359 167 -359 c 0,28,29
 193 -359 193 -359 209.5 -379 c 128,-1,30
 226 -399 226 -399 226 -429 c 0,31,32
 226 -460 226 -460 209 -479 c 128,-1,33
 192 -498 192 -498 167 -498 c 256,22,23
167 -283 m 256,34,35
 142 -283 142 -283 125.5 -262.5 c 128,-1,36
 109 -242 109 -242 109 -213 c 0,37,38
 109 -182 109 -182 125 -162.5 c 128,-1,39
 141 -143 141 -143 167 -143 c 0,40,41
 193 -143 193 -143 209.5 -163 c 128,-1,42
 226 -183 226 -183 226 -213 c 0,43,44
 226 -244 226 -244 209 -263.5 c 128,-1,45
 192 -283 192 -283 167 -283 c 256,34,35
EndSplineSet
Validated: 1
Position2: "move vowel" dx=110 dy=0 dh=0 dv=0
EndChar
StartChar: hiriq
Encoding: 72 1460 36
Width: 0
VWidth: 1738
GlyphClass: 4
Flags: W
AnchorPoint: "Meteg" -187 0 basemark 0
AnchorPoint: "Bottom Narrow Point" 0 0 mark 0
LayerCount: 2
Fore
SplineSet
0 -283 m 0,0,1
 -26 -283 -26 -283 -42.5 -262.5 c 128,-1,2
 -59 -242 -59 -242 -59 -213 c 0,3,4
 -59 -182 -59 -182 -42 -162.5 c 128,-1,5
 -25 -143 -25 -143 0 -143 c 0,6,7
 26 -143 26 -143 42.5 -163 c 128,-1,8
 59 -183 59 -183 59 -213 c 0,9,10
 59 -244 59 -244 42 -263.5 c 128,-1,11
 25 -283 25 -283 0 -283 c 0,0,1
EndSplineSet
Validated: 1
Position2: "move vowel" dx=25 dy=0 dh=0 dv=0
EndChar
StartChar: tsere
Encoding: 73 1461 37
Width: 0
VWidth: 1738
GlyphClass: 4
Flags: W
AnchorPoint: "Meteg" -271 0 basemark 0
AnchorPoint: "Bottom Regular Point" 0 0 mark 0
LayerCount: 2
Fore
SplineSet
151 -213 m 0,0,1
 151 -244 151 -244 134 -263.5 c 128,-1,2
 117 -283 117 -283 92 -283 c 0,3,4
 66 -283 66 -283 49 -262.5 c 128,-1,5
 32 -242 32 -242 32 -213 c 0,6,7
 32 -182 32 -182 49 -162.5 c 128,-1,8
 66 -143 66 -143 92 -143 c 0,9,10
 118 -143 118 -143 134.5 -163 c 128,-1,11
 151 -183 151 -183 151 -213 c 0,0,1
-32 -213 m 0,12,13
 -32 -244 -32 -244 -49 -263.5 c 128,-1,14
 -66 -283 -66 -283 -92 -283 c 0,15,16
 -118 -283 -118 -283 -134.5 -262.5 c 128,-1,17
 -151 -242 -151 -242 -151 -213 c 0,18,19
 -151 -182 -151 -182 -134 -162.5 c 128,-1,20
 -117 -143 -117 -143 -92 -143 c 0,21,22
 -66 -143 -66 -143 -49 -163 c 128,-1,23
 -32 -183 -32 -183 -32 -213 c 0,12,13
EndSplineSet
Validated: 1
Position2: "move vowel" dx=59 dy=0 dh=0 dv=0
EndChar
StartChar: segol
Encoding: 74 1462 38
Width: 0
VWidth: 1738
GlyphClass: 4
Flags: W
AnchorPoint: "Meteg" -297 0 basemark 0
AnchorPoint: "Bottom Regular Point" 0 0 mark 0
LayerCount: 2
Fore
SplineSet
100 -143 m 0,0,1
 126 -143 126 -143 143 -163 c 128,-1,2
 160 -183 160 -183 160 -213 c 0,3,4
 160 -244 160 -244 142.5 -263.5 c 128,-1,5
 125 -283 125 -283 100 -283 c 0,6,7
 74 -283 74 -283 57.5 -262.5 c 128,-1,8
 41 -242 41 -242 41 -213 c 0,9,10
 41 -182 41 -182 58 -162.5 c 128,-1,11
 75 -143 75 -143 100 -143 c 0,0,1
0 -351 m 0,12,13
 26 -351 26 -351 42.5 -370.5 c 128,-1,14
 59 -390 59 -390 59 -420 c 0,15,16
 59 -451 59 -451 42 -470.5 c 128,-1,17
 25 -490 25 -490 0 -490 c 0,18,19
 -26 -490 -26 -490 -42.5 -470 c 128,-1,20
 -59 -450 -59 -450 -59 -420 c 0,21,22
 -59 -389 -59 -389 -42 -370 c 128,-1,23
 -25 -351 -25 -351 0 -351 c 0,12,13
-100 -143 m 0,24,25
 -74 -143 -74 -143 -57.5 -163 c 128,-1,26
 -41 -183 -41 -183 -41 -213 c 0,27,28
 -41 -244 -41 -244 -58 -263.5 c 128,-1,29
 -75 -283 -75 -283 -100 -283 c 0,30,31
 -126 -283 -126 -283 -143 -262.5 c 128,-1,32
 -160 -242 -160 -242 -160 -213 c 0,33,34
 -160 -182 -160 -182 -142.5 -162.5 c 128,-1,35
 -125 -143 -125 -143 -100 -143 c 0,24,25
EndSplineSet
Validated: 1
Position2: "move vowel" dx=59 dy=0 dh=0 dv=0
EndChar
StartChar: patah
Encoding: 75 1463 39
Width: 0
VWidth: 1738
GlyphClass: 4
Flags: W
AnchorPoint: "Meteg" -271 0 basemark 0
AnchorPoint: "Bottom Regular Point" 0 0 mark 0
LayerCount: 2
Fore
SplineSet
127 -244 m 1,0,-1
 -127 -244 l 1,1,-1
 -127 -165 l 1,2,-1
 127 -165 l 1,3,-1
 127 -244 l 1,0,-1
EndSplineSet
Validated: 1
Position2: "move vowel" dx=59 dy=0 dh=0 dv=0
EndChar
StartChar: qamats
Encoding: 76 1464 40
Width: 0
VWidth: 1738
GlyphClass: 4
Flags: W
AnchorPoint: "Meteg" -271 0 basemark 0
AnchorPoint: "Bottom Regular Point" 0 0 mark 0
LayerCount: 2
Fore
SplineSet
-19 -244 m 5,0,-1
 -125 -244 l 5,1,-1
 -125 -165 l 5,2,-1
 125 -165 l 5,3,-1
 125 -244 l 5,4,-1
 17 -244 l 5,5,-1
 17 -273 l 5,6,7
 17 -276 l 4,8,9
 17 -313 17 -313 29 -348 c 6,10,-1
 59 -424 l 5,11,12
 39 -474 39 -474 17 -497 c 5,13,14
 -2 -502 -2 -502 -19 -496 c 5,15,16
 -44 -474 -44 -474 -59 -424 c 5,17,-1
 -29 -348 l 6,18,19
 -19 -326 -19 -326 -19 -277 c 6,20,-1
 -19 -274 l 5,21,22
 -19 -244 l 5,0,-1
EndSplineSet
Validated: 1
Position2: "move vowel" dx=59 dy=0 dh=0 dv=0
EndChar
StartChar: holam
Encoding: 77 1465 41
Width: 0
VWidth: 1738
GlyphClass: 4
Flags: W
AnchorPoint: "Holam" 2 1104 mark 0
LayerCount: 2
Fore
SplineSet
0 1037 m 0,0,1
 -26 1037 -26 1037 -42.5 1057 c 128,-1,2
 -59 1077 -59 1077 -59 1107 c 0,3,4
 -59 1138 -59 1138 -42 1157.5 c 128,-1,5
 -25 1177 -25 1177 0 1177 c 0,6,7
 26 1177 26 1177 42.5 1156.5 c 128,-1,8
 59 1136 59 1136 59 1107 c 0,9,10
 59 1076 59 1076 42 1056.5 c 128,-1,11
 25 1037 25 1037 0 1037 c 0,0,1
EndSplineSet
Validated: 1
EndChar
StartChar: qubuts
Encoding: 79 1467 43
Width: 0
VWidth: 1738
GlyphClass: 4
Flags: W
AnchorPoint: "Bottom Regular Point" 0 0 mark 0
LayerCount: 2
Fore
SplineSet
-131 -274 m 0,0,1
 -155 -274 -155 -274 -171.5 -254.5 c 128,-1,2
 -188 -235 -188 -235 -188 -207 c 0,3,4
 -188 -178 -188 -178 -172 -158.5 c 128,-1,5
 -156 -139 -156 -139 -130.5 -139 c 128,-1,6
 -105 -139 -105 -139 -89 -158.5 c 128,-1,7
 -73 -178 -73 -178 -73 -207 c 128,-1,8
 -73 -236 -73 -236 -90.5 -255 c 128,-1,9
 -108 -274 -108 -274 -131 -274 c 0,0,1
131 -502 m 256,10,11
 107 -502 107 -502 90 -482 c 128,-1,12
 73 -462 73 -462 73 -434 c 0,13,14
 73 -405 73 -405 89 -386 c 128,-1,15
 105 -367 105 -367 130.5 -367 c 128,-1,16
 156 -367 156 -367 172 -386.5 c 128,-1,17
 188 -406 188 -406 188 -434 c 0,18,19
 188 -464 188 -464 171.5 -483 c 128,-1,20
 155 -502 155 -502 131 -502 c 256,10,11
-4 -385 m 256,21,22
 -28 -385 -28 -385 -43.5 -365 c 128,-1,23
 -59 -345 -59 -345 -59 -317 c 0,24,25
 -59 -288 -59 -288 -43.5 -269 c 128,-1,26
 -28 -250 -28 -250 -4 -250 c 0,27,28
 21 -250 21 -250 37.5 -269 c 128,-1,29
 54 -288 54 -288 54 -317 c 0,30,31
 54 -347 54 -347 37 -366 c 128,-1,32
 20 -385 20 -385 -4 -385 c 256,21,22
EndSplineSet
Validated: 1
EndChar
StartChar: dagesh
Encoding: 80 1468 44
Width: 0
VWidth: 1738
GlyphClass: 4
Flags: W
AnchorPoint: "Dagesh" 0 441 mark 0
LayerCount: 2
Fore
SplineSet
0 371 m 0,0,1
 -26 371 -26 371 -42.5 391 c 128,-1,2
 -59 411 -59 411 -59 441 c 0,3,4
 -59 472 -59 472 -42 491 c 128,-1,5
 -25 510 -25 510 0 510 c 0,6,7
 26 510 26 510 42.5 490 c 128,-1,8
 59 470 59 470 59 441 c 0,9,10
 59 410 59 410 42 390.5 c 128,-1,11
 25 371 25 371 0 371 c 0,0,1
EndSplineSet
Validated: 1
EndChar
StartChar: meteg
Encoding: 81 1469 45
Width: 0
VWidth: 1738
GlyphClass: 4
Flags: W
AnchorPoint: "Meteg" 0 0 mark 0
AnchorPoint: "Bottom Regular Point" 0 0 mark 0
LayerCount: 2
Fore
SplineSet
41 -165 m 1,0,-1
 41 -498 l 1,1,-1
 -38 -498 l 1,2,-1
 -38 -165 l 1,3,-1
 41 -165 l 1,0,-1
EndSplineSet
Validated: 1
EndChar
StartChar: maqaf
Encoding: 82 1470 46
Width: 535
VWidth: 1738
GlyphClass: 2
Flags: W
LayerCount: 2
Fore
SplineSet
66 705 m 2,0,1
 62 705 62 705 63 710 c 0,2,3
 63 719 63 719 83 799 c 2,4,-1
 106 888 l 2,5,6
 109 894 109 894 113 894 c 2,7,-1
 477 894 l 2,8,9
 482 894 482 894 481 888 c 2,10,-1
 458 799 l 2,11,12
 450 764 450 764 441 729 c 0,13,14
 436 705 436 705 431 705 c 2,15,-1
 66 705 l 2,0,1
EndSplineSet
Validated: 1
EndChar
StartChar: rafe
Encoding: 83 1471 47
Width: 0
VWidth: 1738
GlyphClass: 2
Flags: W
LayerCount: 2
Fore
SplineSet
132 1039 m 5,0,-1
 -132 1039 l 5,1,-1
 -132 1119 l 5,2,-1
 132 1119 l 5,3,-1
 132 1039 l 5,0,-1
EndSplineSet
Validated: 1
EndChar
StartChar: paseq
Encoding: 84 1472 48
Width: 509
VWidth: 1738
GlyphClass: 2
Flags: W
LayerCount: 2
Fore
SplineSet
290 -139 m 1,0,-1
 219 -139 l 1,1,-1
 219 1044 l 1,2,-1
 290 1044 l 1,3,-1
 290 -139 l 1,0,-1
EndSplineSet
Validated: 1
EndChar
StartChar: shindot
Encoding: 85 1473 49
Width: 0
VWidth: 1738
GlyphClass: 4
Flags: W
AnchorPoint: "ShinDot" 0 1106 mark 0
LayerCount: 2
Fore
SplineSet
0 1036 m 0,0,1
 -26 1036 -26 1036 -42.5 1056 c 128,-1,2
 -59 1076 -59 1076 -59 1106 c 0,3,4
 -59 1137 -59 1137 -42 1156.5 c 128,-1,5
 -25 1176 -25 1176 0 1176 c 0,6,7
 26 1176 26 1176 42.5 1155.5 c 128,-1,8
 59 1135 59 1135 59 1106 c 0,9,10
 59 1075 59 1075 42 1055.5 c 128,-1,11
 25 1036 25 1036 0 1036 c 0,0,1
EndSplineSet
EndChar
StartChar: sofpasuq
Encoding: 87 1475 51
Width: 415
VWidth: 1738
GlyphClass: 2
Flags: W
LayerCount: 2
Fore
SplineSet
168 827 m 0,0,1
 205 788 205 788 237.5 763 c 128,-1,2
 270 738 270 738 281.5 731 c 128,-1,3
 293 724 293 724 293 717 c 0,4,5
 293 710 293 710 291 707 c 2,6,-1
 249 637 l 1,7,-1
 210 567 l 2,8,9
 207 562 207 562 202 563 c 0,10,11
 184 563 184 563 139 599.5 c 128,-1,12
 94 636 94 636 68 665 c 0,13,14
 63 672 63 672 68 680 c 0,15,16
 119 775 119 775 151 824 c 0,17,18
 158 834 158 834 168 827 c 0,0,1
168 248 m 0,19,20
 191 223 191 223 213 203 c 128,-1,21
 235 183 235 183 248.5 174 c 128,-1,22
 262 165 262 165 272.5 158 c 128,-1,23
 283 151 283 151 287.5 147 c 128,-1,24
 292 143 292 143 293 139 c 0,25,26
 294 132 294 132 291 128 c 2,27,-1
 249 59 l 1,28,-1
 210 -11 l 2,29,30
 207 -16 207 -16 202 -15 c 0,31,32
 184 -15 184 -15 139 21.5 c 128,-1,33
 94 58 94 58 68 87 c 0,34,35
 63 94 63 94 68 103 c 0,36,37
 119 198 119 198 151 245 c 0,38,39
 158 255 158 255 168 248 c 0,19,20
EndSplineSet
Validated: 1
EndChar
StartChar: nunhafukha
Encoding: 89 1478 53
Width: 540
VWidth: 1738
GlyphClass: 2
Flags: W
LayerCount: 2
Fore
SplineSet
185 472 m 0,0,1
 185 507 185 507 174.5 558 c 128,-1,2
 164 609 164 609 164 637 c 0,3,4
 164 667 164 667 170 695 c 1,5,6
 133 700 133 700 115 731 c 128,-1,7
 97 762 97 762 97 805 c 0,8,9
 97 858 97 858 133 961 c 1,10,-1
 169 961 l 1,11,12
 185 920 185 920 215 906 c 128,-1,13
 245 892 245 892 289 892 c 0,14,15
 303 892 303 892 332 894 c 128,-1,16
 361 896 361 896 375 896 c 0,17,18
 404 896 404 896 427 890 c 1,19,-1
 377 691 l 1,20,21
 347 696 347 696 326 695 c 0,22,23
 228 695 228 695 227 620 c 0,24,25
 227 577 227 577 237 483.5 c 128,-1,26
 247 390 247 390 247 345 c 0,27,28
 247 339 247 339 246.5 328.5 c 128,-1,29
 246 318 246 318 246 314 c 2,30,-1
 227 204 l 1,31,-1
 432 204 l 1,32,-1
 488 0 l 1,33,-1
 141 0 l 1,34,35
 132 37 132 37 132 108 c 0,36,37
 132 145 132 145 158.5 265 c 128,-1,38
 185 385 185 385 185 472 c 0,0,1
EndSplineSet
Validated: 1
EndChar
StartChar: qamatskatan
Encoding: 90 1479 54
Width: 0
VWidth: 1738
GlyphClass: 4
Flags: W
AnchorPoint: "Meteg" -271 0 basemark 0
AnchorPoint: "Bottom Regular Point" 0 0 mark 0
LayerCount: 2
Fore
SplineSet
-20 -236 m 1,0,-1
 -125 -236 l 1,1,-1
 -125 -156 l 1,2,-1
 125 -156 l 1,3,-1
 125 -236 l 1,4,-1
 21 -236 l 1,5,-1
 21 -348 l 1,6,7
 21 -275 l 0,8,9
 21 -391 21 -391 30 -424 c 2,10,-1
 60 -534 l 5,11,12
 42 -583 42 -583 18 -607 c 5,13,14
 -4 -611 -4 -611 -20 -607 c 5,15,16
 -43 -586 -43 -586 -58 -534 c 5,17,-1
 -28 -424 l 2,18,19
 -20 -392 -20 -392 -20 -277 c 2,20,-1
 -20 -273 l 1,21,22
 -20 -236 l 1,0,-1
EndSplineSet
Validated: 5
EndChar
StartChar: alef
Encoding: 91 1488 55
Width: 889
VWidth: 1738
GlyphClass: 2
Flags: W
AnchorPoint: "accent top" 509 0 basechar 0
AnchorPoint: "accent bottom left" 509 0 basechar 0
AnchorPoint: "Top" 431 1119 basechar 0
AnchorPoint: "Bottom Narrow Point" 509 0 basechar 0
AnchorPoint: "Bottom Regular Point" 509 0 basechar 0
AnchorPoint: "Bottom Wide Point" 509 0 basechar 0
AnchorPoint: "Holam" 204 1104 basechar 0
LayerCount: 2
Fore
SplineSet
743 882 m 1,0,1
 833 850 833 850 833 766 c 0,2,3
 833 697 833 697 777 624 c 1,4,-1
 761 624 l 1,5,6
 761 645 l 2,7,8
 761 655 l 0,9,10
 761 670 761 670 755.5 677.5 c 128,-1,11
 750 685 750 685 730 685 c 1,12,13
 686 617 686 617 668.5 569.5 c 128,-1,14
 651 522 651 522 651 478 c 0,15,16
 651 413 651 413 695 360 c 2,17,-1
 774 270 l 2,18,19
 840 195 840 195 841 114 c 0,20,21
 841 40 841 40 781 -14 c 1,22,-1
 758 -14 l 1,23,24
 758 45 758 45 714 95 c 2,25,-1
 345 518 l 1,26,27
 250 470 250 470 251 396 c 0,28,29
 251 367 251 367 267.5 337 c 128,-1,30
 284 307 284 307 307 282 c 2,31,-1
 353 229 l 2,32,33
 376 204 376 204 392.5 173 c 128,-1,34
 409 142 409 142 409 114 c 0,35,36
 409 74 409 74 380.5 37 c 128,-1,37
 352 0 352 0 322 0 c 2,38,-1
 319 0 l 1,39,-1
 159 0 l 1,40,-1
 159 23 l 1,41,42
 210 37 210 37 210 82 c 0,43,44
 210 104 210 104 173 192.5 c 128,-1,45
 136 281 136 281 136 321 c 0,46,47
 136 453 136 453 314 553 c 1,48,-1
 210 671 l 2,49,50
 145 746 145 746 145 827 c 0,51,52
 145 902 145 902 203 964 c 1,53,-1
 225 964 l 1,54,55
 225 896 225 896 270 845 c 2,56,-1
 589 483 l 1,57,58
 611 595 611 595 674 691 c 1,59,60
 548 712 548 712 548 847 c 0,61,62
 548 914 548 914 582 964 c 1,63,-1
 605 964 l 1,64,65
 619 912 619 912 670 900 c 2,66,-1
 743 882 l 1,0,1
EndSplineSet
Validated: 1048609
PairPos2: "kerning-2" ayin.wide dx=-114 dy=0 dh=-114 dv=0 dx=0 dy=0 dh=0 dv=0
EndChar
StartChar: bet
Encoding: 92 1489 56
Width: 820
VWidth: 1738
GlyphClass: 2
Flags: W
AnchorPoint: "accent bottom left" 424 0 basechar 0
AnchorPoint: "accent top" 424 0 basechar 0
AnchorPoint: "Top" 431 1119 basechar 0
AnchorPoint: "Holam" 214 1104 basechar 0
AnchorPoint: "Dagesh" 427 457 basechar 0
AnchorPoint: "Bottom Narrow Point" 424 0 basechar 0
AnchorPoint: "Bottom Regular Point" 424 0 basechar 0
AnchorPoint: "Bottom Wide Point" 424 0 basechar 0
LayerCount: 2
Fore
SplineSet
476 691 m 2,0,-1
 284 691 l 2,1,2
 223 691 223 691 189 727.5 c 128,-1,3
 155 764 155 764 155 820 c 0,4,5
 155 900 155 900 207 959 c 1,6,-1
 229 959 l 1,7,8
 243 896 243 896 315 897 c 2,9,-1
 438 897 l 2,10,11
 506 897 506 897 552.5 891 c 128,-1,12
 599 885 599 885 632.5 868.5 c 128,-1,13
 666 852 666 852 685.5 831 c 128,-1,14
 705 810 705 810 715 772 c 128,-1,15
 725 734 725 734 729 693 c 128,-1,16
 733 652 733 652 733 589 c 2,17,-1
 733 469 l 2,18,19
 733 370 733 370 721 313 c 128,-1,20
 709 256 709 256 678 204 c 1,21,-1
 801 204 l 1,22,23
 801 84 801 84 769 0 c 1,24,-1
 116 0 l 1,25,26
 111 22 111 22 112 39 c 0,27,28
 112 72 112 72 122 120 c 128,-1,29
 132 168 132 168 150 204 c 1,30,-1
 632 204 l 1,31,32
 654 313 654 313 652 446 c 0,33,34
 652 600 652 600 626 655 c 0,35,36
 614 678 614 678 580 684.5 c 128,-1,37
 546 691 546 691 476 691 c 2,0,-1
EndSplineSet
Validated: 33
PairPos2: "kerning-2" ayin.wide dx=-142 dy=0 dh=-142 dv=0 dx=0 dy=0 dh=0 dv=0
PairPos2: "kerning-2" kaf dx=-31 dy=0 dh=-31 dv=0 dx=0 dy=0 dh=0 dv=0
PairPos2: "kerning-2" pe dx=-37 dy=0 dh=-37 dv=0 dx=0 dy=0 dh=0 dv=0
PairPos2: "kerning-2" samekh dx=-28 dy=0 dh=-28 dv=0 dx=0 dy=0 dh=0 dv=0
EndChar
StartChar: gimel
Encoding: 93 1490 57
Width: 564
VWidth: 1738
GlyphClass: 2
Flags: W
AnchorPoint: "accent bottom left" 324 0 basechar 0
AnchorPoint: "accent top" 324 0 basechar 0
AnchorPoint: "Top" 312 1119 basechar 0
AnchorPoint: "Holam" 195 1104 basechar 0
AnchorPoint: "Dagesh" 188 457 basechar 0
AnchorPoint: "Bottom Narrow Point" 324 0 basechar 0
AnchorPoint: "Bottom Regular Point" 345 0 basechar 0
AnchorPoint: "Bottom Wide Point" 314 0 basechar 0
LayerCount: 2
Fore
SplineSet
397 508 m 0,0,1
 397 462 397 462 420 406 c 128,-1,2
 443 350 443 350 470.5 305 c 128,-1,3
 498 260 498 260 521 201 c 128,-1,4
 544 142 544 142 544 94 c 0,5,6
 544 32 544 32 513 -15 c 1,7,-1
 492 -15 l 1,8,-1
 370 277 l 1,9,-1
 358 277 l 1,10,-1
 244 0 l 1,11,-1
 65 -15 l 1,12,-1
 109 190 l 1,13,14
 121 192 121 192 151 196.5 c 128,-1,15
 181 201 181 201 192 203.5 c 128,-1,16
 203 206 203 206 222 212 c 128,-1,17
 241 218 241 218 255 227.5 c 128,-1,18
 269 237 269 237 280 251 c 0,19,20
 341 320 341 320 342 507 c 0,21,22
 342 555 342 555 337.5 587 c 128,-1,23
 333 619 333 619 329.5 636 c 128,-1,24
 326 653 326 653 314 663.5 c 128,-1,25
 302 674 302 674 294.5 677 c 128,-1,26
 287 680 287 680 270 683 c 2,27,-1
 236 691 l 2,28,29
 177 705 177 705 159 734 c 128,-1,30
 141 763 141 763 141 817 c 0,31,32
 141 891 141 891 195 954 c 1,33,-1
 217 954 l 1,34,35
 219 945 219 945 219.5 930 c 128,-1,36
 220 915 220 915 221.5 909.5 c 128,-1,37
 223 904 223 904 230.5 899.5 c 128,-1,38
 238 895 238 895 254 895 c 2,39,-1
 315 889 l 1,40,41
 363 889 363 889 387 857.5 c 128,-1,42
 411 826 411 826 411 768 c 0,43,44
 411 735 411 735 404 638 c 128,-1,45
 397 541 397 541 397 508 c 0,0,1
EndSplineSet
Validated: 1
PairPos2: "kerning-2" ayin.wide dx=-151 dy=0 dh=-151 dv=0 dx=0 dy=0 dh=0 dv=0
PairPos2: "kerning-2" pe dx=-27 dy=0 dh=-27 dv=0 dx=0 dy=0 dh=0 dv=0
EndChar
StartChar: dalet
Encoding: 94 1491 58
Width: 746
VWidth: 1738
GlyphClass: 2
Flags: W
AnchorPoint: "accent bottom left" 505 0 basechar 0
AnchorPoint: "accent top" 505 0 basechar 0
AnchorPoint: "Top" 388 1119 basechar 0
AnchorPoint: "Dagesh" 304 457 basechar 0
AnchorPoint: "Bottom Narrow Point" 505 0 basechar 0
AnchorPoint: "Bottom Regular Point" 464 0 basechar 0
AnchorPoint: "Bottom Wide Point" 380 0 basechar 0
LayerCount: 2
Fore
SplineSet
570 506 m 0,0,1
 570 458 570 458 579.5 327.5 c 128,-1,2
 589 197 589 197 589 149 c 0,3,4
 589 -1 589 -1 465 -22 c 1,5,-1
 451 0 l 1,6,7
 473 34 473 34 473 86 c 0,8,9
 473 145 473 145 469 233.5 c 128,-1,10
 465 322 465 322 465 359 c 0,11,12
 465 481 465 481 494.5 558 c 128,-1,13
 524 635 524 635 596 691 c 1,14,-1
 215 691 l 2,15,16
 151 691 151 691 118 726 c 128,-1,17
 85 761 85 761 85 817 c 0,18,19
 85 901 85 901 137 956 c 1,20,-1
 159 956 l 1,21,22
 173 897 173 897 243 897 c 2,23,-1
 595 897 l 2,24,25
 654 897 654 897 676.5 875 c 128,-1,26
 699 853 699 853 699 796 c 0,27,28
 699 764 699 764 694 744.5 c 128,-1,29
 689 725 689 725 679.5 713.5 c 128,-1,30
 670 702 670 702 658.5 693 c 128,-1,31
 647 684 647 684 630.5 666.5 c 128,-1,32
 614 649 614 649 599 625 c 0,33,34
 570 578 570 578 570 506 c 0,0,1
EndSplineSet
Validated: 1
PairPos2: "kerning-2" ayin.wide dx=-33 dy=0 dh=-33 dv=0 dx=0 dy=0 dh=0 dv=0
PairPos2: "kerning-2" bet dx=-40 dy=0 dh=-40 dv=0 dx=0 dy=0 dh=0 dv=0
PairPos2: "kerning-2" gimel dx=-104 dy=0 dh=-104 dv=0 dx=0 dy=0 dh=0 dv=0
PairPos2: "kerning-2" kaf dx=-35 dy=0 dh=-35 dv=0 dx=0 dy=0 dh=0 dv=0
PairPos2: "kerning-2" mem dx=-73 dy=0 dh=-73 dv=0 dx=0 dy=0 dh=0 dv=0
PairPos2: "kerning-2" pe dx=-41 dy=0 dh=-41 dv=0 dx=0 dy=0 dh=0 dv=0
EndChar
StartChar: he
Encoding: 95 1492 59
Width: 908
VWidth: 1738
GlyphClass: 2
Flags: W
AnchorPoint: "accent bottom left" 509 0 basechar 0
AnchorPoint: "accent top" 509 0 basechar 0
AnchorPoint: "Top" 473 1119 basechar 0
AnchorPoint: "Dagesh" 514 457 basechar 0
AnchorPoint: "Bottom Narrow Point" 492 0 basechar 0
AnchorPoint: "Bottom Regular Point" 492 0 basechar 0
AnchorPoint: "Bottom Wide Point" 492 0 basechar 0
LayerCount: 2
Fore
SplineSet
783 516 m 0,0,1
 783 459 783 459 802.5 332 c 128,-1,2
 822 205 822 205 822 149 c 0,3,4
 822 -2 822 -2 700 -22 c 1,5,-1
 687 -4 l 1,6,7
 709 35 709 35 709 86 c 0,8,9
 709 123 709 123 702 237 c 128,-1,10
 695 351 695 351 695 388 c 0,11,12
 695 497 695 497 712.5 566 c 128,-1,13
 730 635 730 635 778 691 c 1,14,-1
 294 691 l 2,15,16
 232 691 232 691 199.5 726 c 128,-1,17
 167 761 167 761 167 817 c 0,18,19
 167 901 167 901 218 956 c 1,20,-1
 241 956 l 1,21,22
 255 897 255 897 321 897 c 2,23,-1
 735 897 l 2,24,25
 801 897 801 897 822.5 873 c 128,-1,26
 844 849 844 849 844 796 c 2,27,-1
 844 753 l 2,28,29
 844 731 844 731 835 710.5 c 128,-1,30
 826 690 826 690 814 673 c 128,-1,31
 802 656 802 656 792.5 615.5 c 128,-1,32
 783 575 783 575 783 516 c 0,0,1
306 249 m 0,33,34
 306 233 306 233 310 166.5 c 128,-1,35
 314 100 314 100 314 83 c 0,36,37
 314 31 314 31 281.5 1.5 c 128,-1,38
 249 -28 249 -28 186 -28 c 1,39,-1
 174 -9 l 1,40,41
 196 14 196 14 197 52 c 0,42,43
 197 68 197 68 194 132.5 c 128,-1,44
 191 197 191 197 191 212 c 0,45,46
 191 304 191 304 225 362.5 c 128,-1,47
 259 421 259 421 321 421 c 0,48,49
 338 421 338 421 350 415 c 1,50,-1
 350 391 l 1,51,52
 330 378 330 378 318 336 c 128,-1,53
 306 294 306 294 306 249 c 0,33,34
EndSplineSet
Validated: 1
PairPos2: "kerning-2" ayin.wide dx=-122 dy=0 dh=-122 dv=0 dx=0 dy=0 dh=0 dv=0
PairPos2: "kerning-2" kaf dx=-41 dy=0 dh=-41 dv=0 dx=0 dy=0 dh=0 dv=0
PairPos2: "kerning-2" mem dx=-48 dy=0 dh=-48 dv=0 dx=0 dy=0 dh=0 dv=0
PairPos2: "kerning-2" pe dx=-50 dy=0 dh=-50 dv=0 dx=0 dy=0 dh=0 dv=0
PairPos2: "kerning-2" samekh dx=-41 dy=0 dh=-41 dv=0 dx=0 dy=0 dh=0 dv=0
PairPos2: "kerning-2" tet dx=-35 dy=0 dh=-35 dv=0 dx=0 dy=0 dh=0 dv=0
MultipleSubs2: "wide letters" he.wide
EndChar
StartChar: vav
Encoding: 96 1493 60
Width: 409
VWidth: 1738
GlyphClass: 2
Flags: W
AnchorPoint: "accent bottom left" 163 0 basechar 0
AnchorPoint: "accent top" 163 0 basechar 0
AnchorPoint: "Top" 227 1119 basechar 0
AnchorPoint: "Holam" 308 1104 basechar 0
AnchorPoint: "Dagesh" 116 457 basechar 0
AnchorPoint: "Bottom Narrow Point" 300 0 basechar 0
AnchorPoint: "Bottom Wide Point" 163 0 basechar 0
AnchorPoint: "Bottom Regular Point" 276 0 basechar 0
LayerCount: 2
Fore
SplineSet
226 897 m 0,0,1
 291 897 291 897 324 851.5 c 128,-1,2
 357 806 357 806 357 699 c 2,3,-1
 357 91 l 2,4,5
 357 15 357 15 299 -14 c 1,6,-1
 280 -8 l 1,7,-1
 280 563 l 2,8,9
 280 622 280 622 261 653 c 0,10,11
 251 669 251 669 241 676 c 128,-1,12
 231 683 231 683 202 691 c 0,13,14
 133 709 133 709 103.5 730 c 128,-1,15
 74 751 74 751 65 801 c 0,16,17
 63 808 63 808 63 824 c 0,18,19
 63 855 63 855 77.5 889.5 c 128,-1,20
 92 924 92 924 113 944 c 1,21,-1
 136 944 l 1,22,23
 142 897 142 897 226 897 c 0,0,1
EndSplineSet
Validated: 1
PairPos2: "kerning-2" gimel dx=-51 dy=0 dh=-51 dv=0 dx=0 dy=0 dh=0 dv=0
PairPos2: "kerning-2" mem dx=-43 dy=0 dh=-43 dv=0 dx=0 dy=0 dh=0 dv=0
EndChar
StartChar: zayin
Encoding: 97 1494 61
Width: 465
VWidth: 1738
GlyphClass: 2
Flags: W
AnchorPoint: "accent top" 238 0 basechar 0
AnchorPoint: "accent bottom left" 238 0 basechar 0
AnchorPoint: "Top" 270 1119 basechar 0
AnchorPoint: "Holam" 135 1104 basechar 0
AnchorPoint: "Dagesh" 37 457 basechar 0
AnchorPoint: "Bottom Narrow Point" 237 0 basechar 0
AnchorPoint: "Bottom Regular Point" 189 0 basechar 0
AnchorPoint: "Bottom Wide Point" 269 0 basechar 0
LayerCount: 2
Fore
SplineSet
391 625 m 1,0,-1
 377 625 l 1,1,2
 372 647 372 647 344.5 663.5 c 128,-1,3
 317 680 317 680 288 686 c 1,4,5
 273 613 273 613 273 555 c 0,6,7
 273 486 273 486 299.5 355 c 128,-1,8
 326 224 326 224 326 164 c 0,9,10
 326 -3 326 -3 205 -22 c 1,11,-1
 189 -5 l 1,12,13
 216 34 216 34 216 89 c 0,14,15
 216 130 216 130 202.5 244 c 128,-1,16
 189 358 189 358 189 401 c 0,17,18
 189 552 189 552 252 686 c 1,19,20
 166 686 166 686 123 724 c 128,-1,21
 80 762 80 762 80 825 c 0,22,23
 80 905 80 905 126 963 c 1,24,-1
 150 963 l 1,25,26
 160 914 160 914 205 905 c 1,27,28
 326 905 326 905 402 856 c 0,29,30
 438 834 438 834 438 760 c 0,31,32
 438 685 438 685 391 625 c 1,0,-1
EndSplineSet
Validated: 1
PairPos2: "kerning-2" ayin.wide dx=-39 dy=0 dh=-39 dv=0 dx=0 dy=0 dh=0 dv=0
EndChar
StartChar: het
Encoding: 98 1495 62
Width: 903
VWidth: 1738
GlyphClass: 2
Flags: W
AnchorPoint: "accent bottom left" 492 0 basechar 0
AnchorPoint: "accent top" 492 0 basechar 0
AnchorPoint: "Top" 481 1119 basechar 0
AnchorPoint: "Holam" 214 1104 basechar 0
AnchorPoint: "Dagesh" 495 457 basechar 0
AnchorPoint: "Bottom Narrow Point" 492 0 basechar 0
AnchorPoint: "Bottom Regular Point" 492 0 basechar 0
AnchorPoint: "Bottom Wide Point" 492 0 basechar 0
LayerCount: 2
Fore
SplineSet
775 516 m 0,0,1
 775 467 775 467 795 336 c 128,-1,2
 815 205 815 205 815 149 c 0,3,4
 815 -3 815 -3 696 -22 c 1,5,-1
 682 -4 l 1,6,7
 704 30 704 30 705 86 c 0,8,9
 705 123 705 123 698 237 c 128,-1,10
 691 351 691 351 691 388 c 0,11,12
 691 498 691 498 707.5 566.5 c 128,-1,13
 724 635 724 635 771 691 c 1,14,-1
 342 691 l 1,15,16
 303 662 303 662 290 622.5 c 128,-1,17
 277 583 277 583 277 506 c 0,18,19
 277 453 277 453 294 334.5 c 128,-1,20
 311 216 311 216 311 162 c 0,21,22
 311 -4 311 -4 184 -22 c 1,23,-1
 173 -4 l 1,24,25
 199 37 199 37 199 119 c 2,26,-1
 199 147 l 1,27,-1
 187 361 l 1,28,-1
 187 408 l 2,29,30
 187 503 187 503 210.5 569.5 c 128,-1,31
 234 636 234 636 292 691 c 1,32,33
 214 691 214 691 188 722 c 128,-1,34
 162 753 162 753 162 817 c 0,35,36
 162 901 162 901 214 956 c 1,37,-1
 237 956 l 1,38,39
 251 897 251 897 321 897 c 2,40,-1
 731 897 l 2,41,42
 791 897 791 897 816 876 c 128,-1,43
 841 855 841 855 841 798 c 2,44,-1
 841 796 l 2,45,46
 841 753 841 753 830.5 720.5 c 128,-1,47
 820 688 820 688 808 669.5 c 128,-1,48
 796 651 796 651 785.5 612 c 128,-1,49
 775 573 775 573 775 516 c 0,0,1
EndSplineSet
Validated: 1
PairPos2: "kerning-2" ayin.wide dx=-121 dy=0 dh=-121 dv=0 dx=0 dy=0 dh=0 dv=0
MultipleSubs2: "wide letters" het.wide
EndChar
StartChar: tet
Encoding: 99 1496 63
Width: 861
VWidth: 1738
GlyphClass: 2
Flags: W
AnchorPoint: "accent bottom left" 509 0 basechar 0
AnchorPoint: "accent top" 509 0 basechar 0
AnchorPoint: "Top" 481 1119 basechar 0
AnchorPoint: "Holam" 168 1104 basechar 0
AnchorPoint: "Dagesh" 574 457 basechar 0
AnchorPoint: "Bottom Narrow Point" 492 0 basechar 0
AnchorPoint: "Bottom Regular Point" 492 0 basechar 0
AnchorPoint: "Bottom Wide Point" 492 0 basechar 0
LayerCount: 2
Fore
SplineSet
223 691 m 1,0,1
 164 702 164 702 139 732.5 c 128,-1,2
 114 763 114 763 114 823 c 0,3,4
 114 891 114 891 150 963 c 1,5,-1
 172 963 l 1,6,7
 179 897 179 897 264 898 c 0,8,9
 365 898 365 898 365 789 c 0,10,11
 365 770 365 770 358 719.5 c 128,-1,12
 351 669 351 669 344 651 c 1,13,14
 333 646 333 646 331.5 650 c 128,-1,15
 330 654 330 654 323.5 666 c 128,-1,16
 317 678 317 678 307 681 c 0,17,18
 303 682 303 682 288 686.5 c 128,-1,19
 273 691 273 691 263 691 c 1,20,21
 235 599 235 599 235 536 c 0,22,23
 235 458 235 458 255.5 385 c 128,-1,24
 276 312 276 312 323 204 c 1,25,-1
 674 204 l 1,26,27
 709 278 709 278 722 351.5 c 128,-1,28
 735 425 735 425 735 534 c 0,29,30
 735 620 735 620 696.5 655.5 c 128,-1,31
 658 691 658 691 601 691 c 0,32,33
 478 691 478 691 437 556 c 1,34,-1
 410 563 l 1,35,36
 481 907 481 907 641 907 c 0,37,38
 800 907 800 907 799 534 c 0,39,40
 799 305 799 305 691 0 c 1,41,-1
 241 0 l 1,42,43
 241 59 241 59 210.5 230 c 128,-1,44
 180 401 180 401 180 479 c 0,45,46
 181 581 181 581 223 691 c 1,0,1
EndSplineSet
Validated: 33
PairPos2: "kerning-2" ayin.wide dx=-72 dy=0 dh=-72 dv=0 dx=0 dy=0 dh=0 dv=0
PairPos2: "kerning-2" gimel dx=-31 dy=0 dh=-31 dv=0 dx=0 dy=0 dh=0 dv=0
EndChar
StartChar: yod
Encoding: 100 1497 64
Width: 384
VWidth: 1738
GlyphClass: 2
Flags: W
AnchorPoint: "accent bottom left" 187 0 basechar 0
AnchorPoint: "accent top" 187 0 basechar 0
AnchorPoint: "Top" 193 1119 basechar 0
AnchorPoint: "Dagesh" 130 568 basechar 0
AnchorPoint: "Bottom Narrow Point" 212 0 basechar 0
AnchorPoint: "Bottom Regular Point" 187 0 basechar 0
AnchorPoint: "Bottom Wide Point" 187 0 basechar 0
LayerCount: 2
Fore
SplineSet
210 407 m 1,0,-1
 186 434 l 1,1,2
 231 468 231 468 248 503.5 c 128,-1,3
 265 539 265 539 265 598 c 2,4,-1
 265 629 l 2,5,6
 265 662 265 662 251.5 676.5 c 128,-1,7
 238 691 238 691 191 691 c 0,8,9
 124 691 124 691 90 730 c 128,-1,10
 56 769 56 769 56 830 c 128,-1,11
 56 891 56 891 95 963 c 1,12,-1
 119 963 l 1,13,14
 124 933 124 933 143 916.5 c 128,-1,15
 162 900 162 900 197 900 c 1,16,-1
 226 897 l 1,17,18
 282 897 282 897 311 856 c 128,-1,19
 340 815 340 815 340 739 c 2,20,-1
 340 675 l 2,21,22
 340 475 340 475 210 407 c 1,0,-1
EndSplineSet
Validated: 1
PairPos2: "kerning-2" gimel dx=-25 dy=0 dh=-25 dv=0 dx=0 dy=0 dh=0 dv=0
EndChar
StartChar: finalkaf
Encoding: 101 1498 65
Width: 717
VWidth: 1738
GlyphClass: 2
Flags: W
AnchorPoint: "accent top" 348 0 basechar 0
AnchorPoint: "accent bottom left" 348 0 basechar 0
AnchorPoint: "Top" 405 1119 basechar 0
AnchorPoint: "Bottom Narrow Point" 348 661 basechar 0
AnchorPoint: "Bottom Wide Point" 220 719 basechar 0
AnchorPoint: "Bottom Regular Point" 289 684 basechar 0
LayerCount: 2
Fore
SplineSet
625 680 m 2,0,1
 611 663 611 663 611 619 c 2,2,3
 611 611 l 2,4,-1
 638 -151 l 2,5,6
 638 -156 638 -156 638.5 -162 c 128,-1,7
 639 -168 639 -168 639 -171 c 0,8,9
 639 -225 639 -225 621 -254.5 c 128,-1,10
 603 -284 603 -284 558 -300 c 1,11,-1
 543 -293 l 1,12,-1
 540 692 l 1,13,-1
 212 692 l 2,14,15
 153 692 153 692 122.5 727 c 128,-1,16
 92 762 92 762 92 817 c 0,17,18
 92 897 92 897 143 957 c 1,19,-1
 166 957 l 1,20,21
 179 898 179 898 256 898 c 2,22,-1
 563 897 l 2,23,24
 671 897 671 897 671 803 c 2,25,-1
 671 777 l 2,26,27
 671 740 671 740 652 720 c 1,28,-1
 625 680 l 2,0,1
EndSplineSet
Validated: 1
PairPos2: "kerning-2" ayin.wide dx=-39 dy=0 dh=-39 dv=0 dx=0 dy=0 dh=0 dv=0
PairPos2: "kerning-2" bet dx=-45 dy=0 dh=-45 dv=0 dx=0 dy=0 dh=0 dv=0
PairPos2: "kerning-2" gimel dx=-113 dy=0 dh=-113 dv=0 dx=0 dy=0 dh=0 dv=0
PairPos2: "kerning-2" kaf dx=-38 dy=0 dh=-38 dv=0 dx=0 dy=0 dh=0 dv=0
PairPos2: "kerning-2" mem dx=-77 dy=0 dh=-77 dv=0 dx=0 dy=0 dh=0 dv=0
PairPos2: "kerning-2" pe dx=-44 dy=0 dh=-44 dv=0 dx=0 dy=0 dh=0 dv=0
PairPos2: "kerning-2" samekh dx=-25 dy=0 dh=-25 dv=0 dx=0 dy=0 dh=0 dv=0
EndChar
StartChar: kaf
Encoding: 102 1499 66
Width: 799
VWidth: 1738
GlyphClass: 2
Flags: W
AnchorPoint: "accent bottom left" 424 0 basechar 0
AnchorPoint: "accent top" 424 0 basechar 0
AnchorPoint: "Top" 431 1119 basechar 0
AnchorPoint: "Holam" 193 1104 basechar 0
AnchorPoint: "Dagesh" 427 457 basechar 0
AnchorPoint: "Bottom Narrow Point" 424 0 basechar 0
AnchorPoint: "Bottom Regular Point" 424 0 basechar 0
AnchorPoint: "Bottom Wide Point" 424 0 basechar 0
LayerCount: 2
Fore
SplineSet
657 431 m 2,0,1
 657 439 l 0,2,3
 657 506 657 506 650.5 549 c 128,-1,4
 644 592 644 592 625.5 626.5 c 128,-1,5
 607 661 607 661 571.5 676 c 128,-1,6
 536 691 536 691 481 691 c 2,7,-1
 248 691 l 2,8,9
 190 691 190 691 161 725.5 c 128,-1,10
 132 760 132 760 132 817 c 0,11,12
 132 897 132 897 184 956 c 1,13,-1
 206 956 l 1,14,15
 220 897 220 897 291 897 c 2,16,-1
 466 897 l 2,17,18
 736 897 736 897 735 456 c 0,19,20
 735 351 735 351 725 276.5 c 128,-1,21
 715 202 715 202 695 157.5 c 128,-1,22
 675 113 675 113 653 88.5 c 128,-1,23
 631 64 631 64 598 46 c 0,24,25
 518 0 518 0 386 0 c 2,26,-1
 106 0 l 1,27,-1
 144 204 l 1,28,-1
 466 204 l 2,29,30
 569 204 569 204 613 255.5 c 128,-1,31
 657 307 657 307 657 431 c 2,0,1
EndSplineSet
Validated: 33
PairPos2: "kerning-2" ayin.wide dx=-105 dy=0 dh=-105 dv=0 dx=0 dy=0 dh=0 dv=0
PairPos2: "kerning-2" pe dx=-31 dy=0 dh=-31 dv=0 dx=0 dy=0 dh=0 dv=0
EndChar
StartChar: lamed
Encoding: 103 1500 67
Width: 764
VWidth: 1738
GlyphClass: 2
Flags: W
AnchorPoint: "accent bottom left" 424 0 basechar 0
AnchorPoint: "accent top" 424 0 basechar 0
AnchorPoint: "Top" 397 1280 basechar 0
AnchorPoint: "Dagesh" 368 457 basechar 0
AnchorPoint: "Bottom Narrow Point" 416 0 basechar 0
AnchorPoint: "Bottom Regular Point" 424 0 basechar 0
AnchorPoint: "Bottom Wide Point" 424 0 basechar 0
LayerCount: 2
Fore
SplineSet
293 897 m 2,0,-1
 570 897 l 2,1,2
 648 897 648 897 691 858 c 0,3,4
 732 819 732 819 733 671 c 2,5,-1
 733 579 l 2,6,7
 733 468 733 468 683 415 c 2,8,-1
 522 233 l 2,9,10
 463 167 463 167 463 105 c 0,11,12
 463 92 463 92 466.5 72 c 128,-1,13
 470 52 470 52 470 44 c 0,14,15
 470 -19 470 -19 413 -19 c 0,16,17
 385 -19 385 -19 365.5 8.5 c 128,-1,18
 346 36 346 36 346 71 c 0,19,20
 346 117 346 117 377 161.5 c 128,-1,21
 408 206 408 206 481 280 c 2,22,-1
 606 408 l 2,23,24
 658 463 658 463 658 549 c 2,25,-1
 658 600 l 2,26,27
 658 661 658 661 629.5 676 c 128,-1,28
 601 691 601 691 502 691 c 2,29,-1
 256 691 l 2,30,31
 191 691 191 691 157 729 c 128,-1,32
 123 767 123 767 123 827 c 0,33,34
 123 838 123 838 121 868 c 128,-1,35
 119 898 119 898 119 914 c 0,36,37
 119 982 119 982 140 1031 c 0,38,39
 178 1117 178 1117 251 1117 c 0,40,41
 291 1117 291 1117 376 1084 c 128,-1,42
 461 1051 461 1051 502 1051 c 0,43,44
 523 1051 523 1051 536 1071.5 c 128,-1,45
 549 1092 549 1092 554 1118 c 128,-1,46
 559 1144 559 1144 572.5 1164.5 c 128,-1,47
 586 1185 586 1185 607 1185 c 0,48,49
 639 1185 639 1185 669.5 1169 c 128,-1,50
 700 1153 700 1153 725 1153 c 1,51,-1
 725 1130 l 1,52,53
 703 1114 703 1114 698 1098 c 0,54,55
 693 1089 693 1089 686.5 1067.5 c 128,-1,56
 680 1046 680 1046 674.5 1033 c 128,-1,57
 669 1020 669 1020 658 1005 c 128,-1,58
 647 990 647 990 628.5 982.5 c 128,-1,59
 610 975 610 975 585 975 c 0,60,61
 525 975 525 975 463.5 993.5 c 128,-1,62
 402 1012 402 1012 349 1030 c 128,-1,63
 296 1048 296 1048 255 1048 c 0,64,65
 228 1048 228 1048 211 1025 c 128,-1,66
 194 1002 194 1002 194 973 c 0,67,68
 194 897 194 897 293 897 c 2,0,-1
EndSplineSet
Validated: 1
PairPos2: "kerning-2" ayin.wide dx=-75 dy=0 dh=-75 dv=0 dx=0 dy=0 dh=0 dv=0
PairPos2: "kerning-2" bet dx=-73 dy=0 dh=-73 dv=0 dx=0 dy=0 dh=0 dv=0
PairPos2: "kerning-2" gimel dx=-121 dy=0 dh=-121 dv=0 dx=0 dy=0 dh=0 dv=0
PairPos2: "kerning-2" kaf dx=-78 dy=0 dh=-78 dv=0 dx=0 dy=0 dh=0 dv=0
PairPos2: "kerning-2" mem dx=-111 dy=0 dh=-111 dv=0 dx=0 dy=0 dh=0 dv=0
PairPos2: "kerning-2" pe dx=-83 dy=0 dh=-83 dv=0 dx=0 dy=0 dh=0 dv=0
PairPos2: "kerning-2" samekh dx=-66 dy=0 dh=-66 dv=0 dx=0 dy=0 dh=0 dv=0
EndChar
StartChar: finalmem
Encoding: 104 1501 68
Width: 851
VWidth: 1738
GlyphClass: 2
Flags: W
AnchorPoint: "accent bottom left" 505 0 basechar 0
AnchorPoint: "accent top" 505 0 basechar 0
LayerCount: 2
Fore
SplineSet
146 0 m 1,0,-1
 146 456 l 2,1,2
 146 524 146 524 197 582 c 2,3,-1
 296 691 l 1,4,-1
 251 691 l 2,5,6
 192 691 192 691 160.5 725.5 c 128,-1,7
 129 760 129 760 129 817 c 0,8,9
 129 897 129 897 181 954 c 1,10,-1
 203 954 l 1,11,12
 217 896 217 896 284 897 c 2,13,-1
 471 897 l 2,14,15
 668 897 668 897 725 840 c 0,16,17
 783 782 783 782 783 592 c 2,18,-1
 783 0 l 1,19,-1
 146 0 l 1,0,-1
353 691 m 1,20,-1
 260 557 l 2,21,22
 223 504 223 504 223 425 c 2,23,-1
 223 204 l 1,24,-1
 709 204 l 1,25,-1
 709 402 l 2,26,27
 709 575 709 575 678 644 c 0,28,29
 663 674 663 674 629.5 682.5 c 128,-1,30
 596 691 596 691 531 691 c 2,31,-1
 353 691 l 1,20,-1
EndSplineSet
Validated: 33
PairPos2: "kerning-2" ayin.wide dx=-89 dy=0 dh=-89 dv=0 dx=0 dy=0 dh=0 dv=0
EndChar
StartChar: mem
Encoding: 105 1502 69
Width: 928
VWidth: 1738
GlyphClass: 2
Flags: W
AnchorPoint: "accent bottom left" 534 0 basechar 0
AnchorPoint: "accent top" 534 0 basechar 0
AnchorPoint: "Top" 541 1119 basechar 0
AnchorPoint: "Holam" 203 1104 basechar 0
AnchorPoint: "Dagesh" 579 457 basechar 0
AnchorPoint: "Bottom Narrow Point" 534 0 basechar 0
AnchorPoint: "Bottom Regular Point" 534 0 basechar 0
AnchorPoint: "Bottom Wide Point" 534 0 basechar 0
LayerCount: 2
Fore
SplineSet
578 908 m 1,0,1
 654 895 654 895 709.5 849 c 128,-1,2
 765 803 765 803 796 733.5 c 128,-1,3
 827 664 827 664 841 585 c 128,-1,4
 855 506 855 506 855 416 c 0,5,6
 855 299 855 299 824 145 c 2,7,-1
 795 0 l 1,8,-1
 371 0 l 1,9,-1
 420 204 l 1,10,-1
 767 204 l 1,11,12
 778 246 778 246 780.5 283.5 c 128,-1,13
 783 321 783 321 783 397 c 2,14,-1
 783 400 l 2,15,16
 783 517 783 517 729.5 591 c 128,-1,17
 676 665 676 665 591 665 c 2,18,-1
 585 665 l 2,19,20
 438 665 438 665 340 518 c 0,21,22
 225 346 225 346 224 0 c 1,23,-1
 168 0 l 1,24,25
 168 15 168 15 166 40 c 128,-1,26
 164 65 164 65 164 74 c 0,27,28
 164 253 164 253 206.5 382.5 c 128,-1,29
 249 512 249 512 346 619 c 1,30,31
 351 644 351 644 351 654 c 0,32,33
 351 663 351 663 348.5 668.5 c 128,-1,34
 346 674 346 674 339 677 c 128,-1,35
 332 680 332 680 324.5 681 c 128,-1,36
 317 682 317 682 301 685 c 128,-1,37
 285 688 285 688 270 691 c 0,38,39
 219 702 219 702 188.5 742.5 c 128,-1,40
 158 783 158 783 158 831 c 0,41,42
 158 901 158 901 194 963 c 1,43,-1
 216 963 l 1,44,45
 231 912 231 912 282 904 c 2,46,-1
 334 897 l 2,47,48
 405 887 405 887 406 825 c 0,49,50
 406 810 406 810 402 786 c 128,-1,51
 398 762 398 762 398 753 c 0,52,53
 398 717 398 717 424 700 c 1,54,55
 578 786 578 786 578 908 c 1,0,1
EndSplineSet
Validated: 1
PairPos2: "kerning-2" ayin.wide dx=-123 dy=0 dh=-123 dv=0 dx=0 dy=0 dh=0 dv=0
PairPos2: "kerning-2" mem dx=-27 dy=0 dh=-27 dv=0 dx=0 dy=0 dh=0 dv=0
PairPos2: "kerning-2" pe dx=-31 dy=0 dh=-31 dv=0 dx=0 dy=0 dh=0 dv=0
EndChar
StartChar: finalnun
Encoding: 106 1503 70
Width: 389
VWidth: 1738
GlyphClass: 2
Flags: W
AnchorPoint: "accent bottom left" 505 0 basechar 0
AnchorPoint: "accent top" 505 0 basechar 0
LayerCount: 2
Fore
SplineSet
206 461 m 2,0,1
 206 500 206 500 221 535.5 c 128,-1,2
 236 571 236 571 251 598.5 c 128,-1,3
 266 626 266 626 266 647 c 2,4,-1
 266 652 l 2,5,6
 266 674 266 674 257.5 683 c 128,-1,7
 249 692 249 692 214 692 c 0,8,9
 136 692 136 692 106.5 728.5 c 128,-1,10
 77 765 77 765 77 829 c 0,11,12
 77 908 77 908 123 965 c 1,13,-1
 145 965 l 2,14,15
 146 962 146 962 147.5 952.5 c 128,-1,16
 149 943 149 943 150 940 c 128,-1,17
 151 937 151 937 152.5 929.5 c 128,-1,18
 154 922 154 922 155 919.5 c 128,-1,19
 156 917 156 917 159 912 c 128,-1,20
 162 907 162 907 165 905 c 128,-1,21
 168 903 168 903 173 901 c 128,-1,22
 178 899 178 899 183.5 898 c 128,-1,23
 189 897 189 897 197 897 c 2,24,-1
 217 897 l 2,25,26
 281 897 281 897 314 860.5 c 128,-1,27
 347 824 347 824 347 757 c 0,28,29
 347 734 347 734 331 689 c 128,-1,30
 315 644 315 644 300 580.5 c 128,-1,31
 285 517 285 517 285 445 c 0,32,33
 285 440 285 440 285 428.5 c 128,-1,34
 285 417 285 417 285 412 c 2,35,-1
 313 -75 l 2,36,37
 313 -81 313 -81 313.5 -92 c 128,-1,38
 314 -103 314 -103 314 -108 c 0,39,40
 314 -265 314 -265 223 -299 c 1,41,-1
 206 -293 l 1,42,-1
 206 461 l 2,0,1
EndSplineSet
Validated: 1
PairPos2: "kerning-2" ayin.wide dx=-33 dy=0 dh=-33 dv=0 dx=0 dy=0 dh=0 dv=0
EndChar
StartChar: nun
Encoding: 107 1504 71
Width: 520
VWidth: 1738
GlyphClass: 2
Flags: W
AnchorPoint: "accent bottom left" 255 0 basechar 0
AnchorPoint: "accent top" 255 0 basechar 0
AnchorPoint: "Top" 286 1119 basechar 0
AnchorPoint: "Holam" 215 1104 basechar 0
AnchorPoint: "Dagesh" 212 457 basechar 0
AnchorPoint: "Bottom Narrow Point" 255 0 basechar 0
AnchorPoint: "Bottom Regular Point" 255 0 basechar 0
AnchorPoint: "Bottom Wide Point" 255 0 basechar 0
LayerCount: 2
Fore
SplineSet
414 475 m 0,0,1
 414 388 414 388 440 268 c 128,-1,2
 466 148 466 148 466 110 c 0,3,4
 466 33 466 33 458 0 c 1,5,-1
 59 0 l 1,6,-1
 90 204 l 1,7,-1
 347 204 l 1,8,-1
 344 315 l 1,9,-1
 344 338 l 2,10,11
 344 382 344 382 352 476.5 c 128,-1,12
 360 571 360 571 360 614 c 2,13,-1
 360 620 l 2,14,15
 360 653 360 653 346.5 671 c 128,-1,16
 333 689 333 689 297.5 689 c 128,-1,17
 262 689 262 689 236 699.5 c 128,-1,18
 210 710 210 710 196 725.5 c 128,-1,19
 182 741 182 741 174 762.5 c 128,-1,20
 166 784 166 784 164 799.5 c 128,-1,21
 162 815 162 815 162 832 c 2,22,-1
 162 835 l 2,23,24
 162 915 162 915 214 968 c 1,25,-1
 237 968 l 1,26,27
 244 926 244 926 254 915 c 0,28,29
 266 901 266 901 291 901 c 2,30,-1
 329 898 l 2,31,32
 444 885 444 885 444 781 c 0,33,34
 444 740 444 740 429 628 c 128,-1,35
 414 516 414 516 414 475 c 0,0,1
EndSplineSet
Validated: 1
PairPos2: "kerning-2" ayin dx=-41 dy=0 dh=-41 dv=0 dx=0 dy=0 dh=0 dv=0
PairPos2: "kerning-2" ayin.wide dx=-181 dy=0 dh=-181 dv=0 dx=0 dy=0 dh=0 dv=0
PairPos2: "kerning-2" finaltsadi dx=-46 dy=0 dh=-46 dv=0 dx=0 dy=0 dh=0 dv=0
PairPos2: "kerning-2" lamed dx=-45 dy=0 dh=-45 dv=0 dx=0 dy=0 dh=0 dv=0
PairPos2: "kerning-2" shin dx=-36 dy=0 dh=-36 dv=0 dx=0 dy=0 dh=0 dv=0
EndChar
StartChar: samekh
Encoding: 108 1505 72
Width: 880
VWidth: 1738
GlyphClass: 2
Flags: W
AnchorPoint: "accent bottom left" 475 0 basechar 0
AnchorPoint: "accent top" 475 0 basechar 0
AnchorPoint: "Top" 481 1119 basechar 0
AnchorPoint: "Holam" 203 1104 basechar 0
AnchorPoint: "Dagesh" 487 457 basechar 0
AnchorPoint: "Bottom Narrow Point" 475 0 basechar 0
AnchorPoint: "Bottom Regular Point" 475 0 basechar 0
AnchorPoint: "Bottom Wide Point" 475 0 basechar 0
LayerCount: 2
Fore
SplineSet
817 456 m 0,0,1
 817 345 817 345 803 263 c 128,-1,2
 789 181 789 181 756 115.5 c 128,-1,3
 723 50 723 50 661 15.5 c 128,-1,4
 599 -19 599 -19 510 -19 c 2,5,-1
 479 -19 l 2,6,7
 402 -19 402 -19 338.5 14.5 c 128,-1,8
 275 48 275 48 235 102.5 c 128,-1,9
 195 157 195 157 172.5 226.5 c 128,-1,10
 150 296 150 296 150 370 c 0,11,12
 150 474 150 474 173 547.5 c 128,-1,13
 196 621 196 621 244 694 c 1,14,15
 202 694 202 694 176 737 c 128,-1,16
 150 780 150 780 150 817 c 0,17,18
 150 896 150 896 203 956 c 1,19,-1
 225 956 l 1,20,21
 239 897 239 897 309 897 c 2,22,-1
 516 897 l 2,23,24
 587 897 587 897 640 876 c 128,-1,25
 693 855 693 855 734 806.5 c 128,-1,26
 775 758 775 758 796 670 c 128,-1,27
 817 582 817 582 817 456 c 0,0,1
740 426 m 0,28,29
 740 499 740 499 732 545.5 c 128,-1,30
 724 592 724 592 702 627 c 128,-1,31
 680 662 680 662 640.5 676.5 c 128,-1,32
 601 691 601 691 538 691 c 2,33,-1
 295 691 l 1,34,35
 259 631 259 631 244 572.5 c 128,-1,36
 229 514 229 514 229 439 c 0,37,38
 229 305 229 305 293 239 c 128,-1,39
 357 173 357 173 457 173 c 2,40,-1
 532 173 l 2,41,42
 637 173 637 173 688.5 234 c 128,-1,43
 740 295 740 295 740 426 c 0,28,29
EndSplineSet
Validated: 1
PairPos2: "kerning-2" ayin.wide dx=-111 dy=0 dh=-111 dv=0 dx=0 dy=0 dh=0 dv=0
EndChar
StartChar: ayin
Encoding: 109 1506 73
Width: 780
VWidth: 1738
GlyphClass: 2
Flags: W
AnchorPoint: "accent top" 416 0 basechar 0
AnchorPoint: "accent bottom left" 416 0 basechar 0
AnchorPoint: "Top" 379 1119 basechar 0
AnchorPoint: "Bottom Wide Point" 416 0 basechar 0
AnchorPoint: "Bottom Regular Point" 365 0 basechar 0
AnchorPoint: "Bottom Narrow Point" 416 0 basechar 0
AnchorPoint: "Holam" 110 1104 basechar 0
LayerCount: 2
Fore
SplineSet
589 240 m 0,0,1
 589 35 589 35 352 6 c 2,2,-1
 59 -28 l 1,3,-1
 96 171 l 1,4,-1
 313 196 l 1,5,6
 313 335 313 335 248 388 c 0,7,8
 204 425 204 425 193 453.5 c 128,-1,9
 182 482 182 482 182 548 c 0,10,11
 182 599 182 599 197 691 c 1,12,13
 132 703 132 703 99 737 c 128,-1,14
 66 771 66 771 66 821 c 0,15,16
 66 893 66 893 100 960 c 1,17,-1
 124 960 l 1,18,19
 139 899 139 899 197 893 c 1,20,-1
 236 893 l 2,21,22
 277 893 277 893 304.5 857.5 c 128,-1,23
 332 822 332 822 332 771 c 0,24,25
 332 707 332 707 287 651 c 1,26,-1
 273 651 l 1,27,28
 268 675 268 675 260 683 c 128,-1,29
 252 691 252 691 233 691 c 1,30,31
 233 596 233 596 240.5 571 c 128,-1,32
 248 546 248 546 284 522 c 0,33,34
 318 500 318 500 331 486 c 128,-1,35
 344 472 344 472 352 446 c 128,-1,36
 360 420 360 420 360 372 c 2,37,-1
 360 204 l 1,38,-1
 413 211 l 2,39,40
 420 212 420 212 433 213 c 128,-1,41
 446 214 446 214 450.5 215 c 128,-1,42
 455 216 455 216 464 218.5 c 128,-1,43
 473 221 473 221 475 224 c 2,44,-1
 484 232 l 2,45,46
 490 238 490 238 492.5 244.5 c 128,-1,47
 495 251 495 251 499.5 262.5 c 128,-1,48
 504 274 504 274 507 288 c 128,-1,49
 510 302 510 302 515 322 c 0,50,51
 533 400 533 400 578.5 505 c 128,-1,52
 624 610 624 610 624 634 c 0,53,54
 624 684 624 684 580 691 c 0,55,56
 521 705 521 705 494 742 c 128,-1,57
 467 779 467 779 467 827 c 0,58,59
 467 890 467 890 508 960 c 1,60,-1
 532 960 l 1,61,62
 539 925 539 925 561 911 c 0,63,64
 577 901 577 901 610 893.5 c 128,-1,65
 643 886 643 886 669 881.5 c 128,-1,66
 695 877 695 877 715 855.5 c 128,-1,67
 735 834 735 834 735 796 c 0,68,69
 735 763 735 763 720 721.5 c 128,-1,70
 705 680 705 680 683.5 634 c 128,-1,71
 662 588 662 588 640.5 533.5 c 128,-1,72
 619 479 619 479 604 402 c 128,-1,73
 589 325 589 325 589 240 c 0,0,1
EndSplineSet
Validated: 1
PairPos2: "kerning-2" ayin.wide dx=-33 dy=0 dh=-33 dv=0 dx=0 dy=0 dh=0 dv=0
MultipleSubs2: "wide letters" ayin.wide
EndChar
StartChar: finalpe
Encoding: 110 1507 74
Width: 751
VWidth: 1738
GlyphClass: 2
Flags: W
AnchorPoint: "accent bottom left" 505 0 basechar 0
AnchorPoint: "accent top" 505 0 basechar 0
AnchorPoint: "Dagesh" 497 457 basechar 0
LayerCount: 2
Fore
SplineSet
346 331 m 0,0,1
 336 331 336 331 311.5 335 c 128,-1,2
 287 339 287 339 271 339 c 0,3,4
 210 339 210 339 175 294 c 1,5,-1
 147 294 l 1,6,7
 120 350 120 350 120 403 c 0,8,9
 120 551 120 551 223 691 c 1,10,11
 186 698 186 698 165 733.5 c 128,-1,12
 144 769 144 769 144 817 c 0,13,14
 144 897 144 897 197 956 c 1,15,-1
 220 956 l 1,16,17
 235 897 235 897 303 897 c 2,18,-1
 432 897 l 1,19,-1
 455 897 l 2,20,21
 617 897 617 897 658 809 c 0,22,23
 689 746 689 746 689 616 c 1,24,-1
 706 233 l 1,25,26
 706 147 706 147 711 12.5 c 128,-1,27
 716 -122 716 -122 716 -170 c 0,28,29
 716 -235 716 -235 699.5 -257.5 c 128,-1,30
 683 -280 683 -280 638 -297 c 1,31,-1
 619 -290 l 1,32,-1
 619 420 l 2,33,34
 619 494 619 494 613 545.5 c 128,-1,35
 607 597 607 597 597 625 c 128,-1,36
 587 653 587 653 568.5 668 c 128,-1,37
 550 683 550 683 533 687 c 128,-1,38
 516 691 516 691 489 691 c 2,39,-1
 262 691 l 1,40,41
 240 655 240 655 232 642 c 128,-1,42
 224 629 224 629 217 609 c 128,-1,43
 210 589 210 589 210 570 c 0,44,45
 210 533 210 533 228 518 c 128,-1,46
 246 503 246 503 301 491 c 0,47,48
 375 478 375 478 375 421 c 2,49,-1
 375 363 l 2,50,51
 375 331 375 331 346 331 c 0,0,1
EndSplineSet
Validated: 1
PairPos2: "kerning-2" ayin.wide dx=-115 dy=0 dh=-115 dv=0 dx=0 dy=0 dh=0 dv=0
PairPos2: "kerning-2" gimel dx=-50 dy=0 dh=-50 dv=0 dx=0 dy=0 dh=0 dv=0
EndChar
StartChar: pe
Encoding: 111 1508 75
Width: 774
VWidth: 1738
GlyphClass: 2
Flags: W
AnchorPoint: "accent bottom left" 382 0 basechar 0
AnchorPoint: "accent top" 382 0 basechar 0
AnchorPoint: "Top" 422 1119 basechar 0
AnchorPoint: "Holam" 168 1104 basechar 0
AnchorPoint: "Dagesh" 486 457 basechar 0
AnchorPoint: "Bottom Narrow Point" 382 0 basechar 0
AnchorPoint: "Bottom Regular Point" 382 0 basechar 0
AnchorPoint: "Bottom Wide Point" 382 0 basechar 0
LayerCount: 2
Fore
SplineSet
324 389 m 0,0,1
 317 389 317 389 287 393 c 128,-1,2
 257 397 257 397 250 397 c 0,3,4
 188 397 188 397 153 351 c 1,5,-1
 125 351 l 1,6,7
 93 424 93 424 94 490 c 0,8,9
 94 558 94 558 110.5 603.5 c 128,-1,10
 127 649 127 649 173 691 c 1,11,-1
 139 729 l 2,12,13
 130 739 130 739 123.5 765.5 c 128,-1,14
 117 792 117 792 117 817 c 0,15,16
 117 898 117 898 168 956 c 1,17,-1
 191 956 l 1,18,19
 205 897 205 897 276 897 c 2,20,-1
 437 897 l 2,21,22
 703 897 703 897 703 456 c 0,23,24
 703 170 703 170 618.5 85 c 128,-1,25
 534 0 534 0 357 0 c 2,26,-1
 94 0 l 1,27,-1
 142 204 l 1,28,-1
 423 204 l 2,29,30
 464 204 464 204 492.5 207.5 c 128,-1,31
 521 211 521 211 551 224 c 128,-1,32
 581 237 581 237 599 260.5 c 128,-1,33
 617 284 617 284 629 326 c 128,-1,34
 641 368 641 368 641 427 c 0,35,36
 641 497 641 497 632.5 546 c 128,-1,37
 624 595 624 595 610 623 c 128,-1,38
 596 651 596 651 571.5 666 c 128,-1,39
 547 681 547 681 522.5 686 c 128,-1,40
 498 691 498 691 461 691 c 2,41,-1
 239 691 l 1,42,43
 184 656 184 656 183 601 c 0,44,45
 183 576 183 576 199.5 563.5 c 128,-1,46
 216 551 216 551 240.5 547 c 128,-1,47
 265 543 265 543 289 539 c 128,-1,48
 313 535 313 535 329 521 c 128,-1,49
 345 507 345 507 345 480 c 2,50,-1
 345 433 l 2,51,52
 346 389 346 389 324 389 c 0,0,1
EndSplineSet
Validated: 33
PairPos2: "kerning-2" ayin.wide dx=-87 dy=0 dh=-87 dv=0 dx=0 dy=0 dh=0 dv=0
EndChar
StartChar: finaltsadi
Encoding: 112 1509 76
Width: 839
VWidth: 1738
GlyphClass: 2
Flags: W
AnchorPoint: "accent bottom left" 509 0 basechar 0
AnchorPoint: "accent top" 509 0 basechar 0
AnchorPoint: "Dagesh" 454 653 basechar 0
AnchorPoint: "Bottom Wide Point" 509 0 basechar 0
AnchorPoint: "Bottom Regular Point" 509 0 basechar 0
AnchorPoint: "Bottom Narrow Point" 534 413 basechar 0
LayerCount: 2
Fore
SplineSet
753 640 m 1,0,-1
 739 640 l 1,1,2
 734 663 734 663 724.5 670.5 c 128,-1,3
 715 678 715 678 690 678 c 1,4,5
 616 621 616 621 573 576 c 2,6,-1
 498 498 l 2,7,8
 403 400 403 400 369 326 c 128,-1,9
 335 252 335 252 335 179 c 0,10,11
 335 133 335 133 347.5 23.5 c 128,-1,12
 360 -86 360 -86 360 -138 c 0,13,14
 360 -270 360 -270 274 -302 c 1,15,-1
 255 -296 l 1,16,-1
 237 403 l 1,17,-1
 237 406 l 2,18,19
 237 443 237 443 262 522.5 c 128,-1,20
 287 602 287 602 287 635 c 0,21,22
 287 671 287 671 252 684 c 1,23,24
 166 700 166 700 126 732.5 c 128,-1,25
 86 765 86 765 86 827 c 0,26,27
 86 900 86 900 124 962 c 1,28,-1
 148 962 l 1,29,30
 162 909 162 909 215 902 c 2,31,-1
 270 897 l 1,32,33
 329 897 329 897 359 865 c 128,-1,34
 389 833 389 833 389 778 c 0,35,36
 389 730 389 730 341 610 c 0,37,38
 304 519 304 519 304 471 c 2,39,-1
 304 462 l 1,40,-1
 307 392 l 1,41,-1
 321 392 l 1,42,43
 476 573 476 573 636 688 c 1,44,45
 514 708 514 708 515 827 c 0,46,47
 515 898 515 898 553 962 c 1,48,-1
 576 962 l 1,49,50
 580 935 580 935 598 918.5 c 128,-1,51
 616 902 616 902 647 902 c 1,52,-1
 700 897 l 1,53,54
 740 888 740 888 746.5 885 c 128,-1,55
 753 882 753 882 771 869 c 0,56,57
 803 846 803 846 804 784 c 0,58,59
 804 705 804 705 753 640 c 1,0,-1
EndSplineSet
Validated: 33
PairPos2: "kerning-2" ayin.wide dx=-44 dy=0 dh=-44 dv=0 dx=0 dy=0 dh=0 dv=0
PairPos2: "kerning-2" gimel dx=-43 dy=0 dh=-43 dv=0 dx=0 dy=0 dh=0 dv=0
PairPos2: "kerning-2" kaf dx=-29 dy=0 dh=-29 dv=0 dx=0 dy=0 dh=0 dv=0
PairPos2: "kerning-2" mem dx=-51 dy=0 dh=-51 dv=0 dx=0 dy=0 dh=0 dv=0
PairPos2: "kerning-2" pe dx=-35 dy=0 dh=-35 dv=0 dx=0 dy=0 dh=0 dv=0
EndChar
StartChar: tsadi
Encoding: 113 1510 77
Width: 820
VWidth: 1738
GlyphClass: 2
Flags: W
AnchorPoint: "accent bottom left" 424 0 basechar 0
AnchorPoint: "accent top" 424 0 basechar 0
AnchorPoint: "Top" 431 1119 basechar 0
AnchorPoint: "Holam" 146 1104 basechar 0
AnchorPoint: "Dagesh" 282 314 basechar 0
AnchorPoint: "Bottom Narrow Point" 424 0 basechar 0
AnchorPoint: "Bottom Regular Point" 424 0 basechar 0
AnchorPoint: "Bottom Wide Point" 424 0 basechar 0
LayerCount: 2
Fore
SplineSet
232 691 m 0,0,1
 169 691 169 691 138 728 c 128,-1,2
 107 765 107 765 107 825 c 0,3,4
 107 904 107 904 144 963 c 1,5,-1
 168 963 l 1,6,7
 182 897 182 897 237 899 c 2,8,-1
 267 897 l 2,9,10
 326 897 326 897 348 871 c 128,-1,11
 370 845 370 845 370 781 c 0,12,13
 370 760 370 760 363 699 c 128,-1,14
 356 638 356 638 356 618 c 0,15,16
 356 550 356 550 403 510 c 2,17,-1
 484 443 l 1,18,19
 539 592 539 592 607 684 c 1,20,21
 513 706 513 706 515 825 c 0,22,23
 515 895 515 895 550 963 c 1,24,-1
 574 963 l 1,25,26
 582 897 582 897 649 899 c 1,27,-1
 695 895 l 2,28,29
 736 895 736 895 759.5 858.5 c 128,-1,30
 783 822 783 822 783 769 c 0,31,32
 783 690 783 690 735 629 c 1,33,-1
 720 629 l 1,34,35
 716 644 716 644 715 649 c 128,-1,36
 714 654 714 654 709.5 663 c 128,-1,37
 705 672 705 672 697 675.5 c 128,-1,38
 689 679 689 679 678 679 c 0,39,40
 670 679 670 679 665 678 c 0,41,42
 624 638 624 638 595 574.5 c 128,-1,43
 566 511 566 511 566 454 c 0,44,45
 566 376 566 376 640 315 c 2,46,-1
 753 222 l 1,47,-1
 705 0 l 1,48,-1
 174 0 l 1,49,-1
 210 204 l 1,50,-1
 593 204 l 1,51,-1
 355 397 l 2,52,53
 303 439 303 439 302 492 c 2,54,-1
 302 495 l 1,55,-1
 306 617 l 1,56,-1
 306 623 l 2,57,58
 306 660 306 660 289.5 675.5 c 128,-1,59
 273 691 273 691 232 691 c 0,0,1
EndSplineSet
Validated: 33
PairPos2: "kerning-2" ayin.wide dx=-62 dy=0 dh=-62 dv=0 dx=0 dy=0 dh=0 dv=0
PairPos2: "kerning-2" kaf dx=-45 dy=0 dh=-45 dv=0 dx=0 dy=0 dh=0 dv=0
PairPos2: "kerning-2" mem dx=-61 dy=0 dh=-61 dv=0 dx=0 dy=0 dh=0 dv=0
PairPos2: "kerning-2" pe dx=-51 dy=0 dh=-51 dv=0 dx=0 dy=0 dh=0 dv=0
PairPos2: "kerning-2" samekh dx=-36 dy=0 dh=-36 dv=0 dx=0 dy=0 dh=0 dv=0
EndChar
StartChar: qof
Encoding: 114 1511 78
Width: 846
VWidth: 1738
GlyphClass: 2
Flags: W
AnchorPoint: "accent bottom left" 424 0 basechar 0
AnchorPoint: "accent top" 424 0 basechar 0
AnchorPoint: "Top" 431 1119 basechar 0
AnchorPoint: "Holam" 191 1104 basechar 0
AnchorPoint: "Dagesh" 427 457 basechar 0
AnchorPoint: "Bottom Narrow Point" 417 0 basechar 0
AnchorPoint: "Bottom Wide Point" 506 -2 basechar 0
AnchorPoint: "Bottom Regular Point" 511 2 basechar 0
LayerCount: 2
Fore
SplineSet
588 897 m 2,0,1
 702 897 702 897 748.5 841 c 128,-1,2
 795 785 795 785 795 662 c 2,3,-1
 795 579 l 2,4,5
 795 484 795 484 774.5 436 c 128,-1,6
 754 388 754 388 705 353 c 2,7,-1
 518 229 l 2,8,9
 452 186 452 186 452 100 c 0,10,11
 452 95 452 95 453 74 c 128,-1,12
 454 53 454 53 454 40 c 0,13,14
 454 -19 454 -19 396 -19 c 0,15,16
 368 -19 368 -19 341 4 c 128,-1,17
 314 27 314 27 314 59 c 0,18,19
 314 125 314 125 359.5 177.5 c 128,-1,20
 405 230 405 230 490 287 c 2,21,-1
 652 396 l 2,22,23
 718 440 718 440 719 529 c 2,24,-1
 719 590 l 2,25,26
 719 651 719 651 690.5 671 c 128,-1,27
 662 691 662 691 578 691 c 2,28,-1
 262 691 l 2,29,30
 203 691 203 691 172 726 c 128,-1,31
 141 761 141 761 141 817 c 0,32,33
 141 897 141 897 193 956 c 1,34,-1
 214 956 l 1,35,36
 227 897 227 897 300 897 c 2,37,-1
 588 897 l 2,0,1
191 -293 m 1,38,-1
 173 -287 l 1,39,-1
 173 443 l 2,40,41
 173 517 173 517 234 570 c 1,42,-1
 265 575 l 1,43,-1
 265 -227 l 2,44,45
 265 -249 265 -249 191 -293 c 1,38,-1
EndSplineSet
Validated: 1
EndChar
StartChar: resh
Encoding: 115 1512 79
Width: 748
VWidth: 1738
GlyphClass: 2
Flags: W
AnchorPoint: "accent bottom left" 467 0 basechar 0
AnchorPoint: "accent top" 467 0 basechar 0
AnchorPoint: "Top" 431 1119 basechar 0
AnchorPoint: "Holam" 145 1104 basechar 0
AnchorPoint: "Dagesh" 427 457 basechar 0
AnchorPoint: "Bottom Narrow Point" 665 0 basechar 0
AnchorPoint: "Bottom Wide Point" 463 0 basechar 0
AnchorPoint: "Bottom Regular Point" 625 0 basechar 0
LayerCount: 2
Fore
SplineSet
643 -16 m 1,0,-1
 625 -10 l 1,1,-1
 625 402 l 2,2,3
 625 541 625 541 610.5 590.5 c 128,-1,4
 596 640 596 640 545 668 c 0,5,6
 504 690 504 690 438 691 c 2,7,-1
 205 691 l 2,8,9
 146 691 146 691 114.5 726 c 128,-1,10
 83 761 83 761 83 817 c 0,11,12
 83 897 83 897 135 956 c 1,13,-1
 157 956 l 1,14,15
 171 897 171 897 241 897 c 2,16,-1
 390 897 l 2,17,18
 587 897 587 897 644 840 c 0,19,20
 703 784 703 784 702 592 c 2,21,-1
 702 68 l 2,22,23
 702 16 702 16 643 -16 c 1,0,-1
EndSplineSet
Validated: 33
PairPos2: "kerning-2" ayin.wide dx=-30 dy=0 dh=-30 dv=0 dx=0 dy=0 dh=0 dv=0
PairPos2: "kerning-2" bet dx=-33 dy=0 dh=-33 dv=0 dx=0 dy=0 dh=0 dv=0
PairPos2: "kerning-2" gimel dx=-105 dy=0 dh=-105 dv=0 dx=0 dy=0 dh=0 dv=0
PairPos2: "kerning-2" kaf dx=-25 dy=0 dh=-25 dv=0 dx=0 dy=0 dh=0 dv=0
PairPos2: "kerning-2" mem dx=-65 dy=0 dh=-65 dv=0 dx=0 dy=0 dh=0 dv=0
PairPos2: "kerning-2" pe dx=-32 dy=0 dh=-32 dv=0 dx=0 dy=0 dh=0 dv=0
EndChar
StartChar: shin
Encoding: 116 1513 80
Width: 1096
VWidth: 1738
GlyphClass: 2
Flags: W
AnchorPoint: "accent bottom left" 534 0 basechar 0
AnchorPoint: "accent top" 534 0 basechar 0
AnchorPoint: "Top" 592 1119 basechar 0
AnchorPoint: "Holam" 179 1104 basechar 0
AnchorPoint: "SinDot" 325 1104 basechar 0
AnchorPoint: "ShinDot" 1019 1104 basechar 0
AnchorPoint: "Dagesh" 683 457 basechar 0
AnchorPoint: "Bottom Narrow Point" 534 0 basechar 0
AnchorPoint: "Bottom Regular Point" 534 0 basechar 0
AnchorPoint: "Bottom Wide Point" 534 0 basechar 0
LayerCount: 2
Fore
SplineSet
762 0 m 1,0,-1
 287 0 l 1,1,2
 269 94 269 94 243.5 193.5 c 128,-1,3
 218 293 218 293 205.5 354.5 c 128,-1,4
 193 416 193 416 193 476 c 0,5,6
 193 594 193 594 223 682 c 1,7,8
 172 697 172 697 147 735.5 c 128,-1,9
 122 774 122 774 122 820 c 0,10,11
 122 899 122 899 164 963 c 1,12,-1
 187 963 l 1,13,14
 194 934 194 934 212.5 920 c 128,-1,15
 231 906 231 906 287 895 c 0,16,17
 324 888 324 888 347 852 c 128,-1,18
 370 816 370 816 370 768 c 0,19,20
 370 698 370 698 324 640 c 1,21,-1
 310 640 l 1,22,23
 305 663 305 663 295.5 670.5 c 128,-1,24
 286 678 286 678 262 678 c 1,25,26
 248 612 248 612 248 505 c 0,27,28
 248 437 248 437 268 369 c 128,-1,29
 288 301 288 301 339 204 c 1,30,-1
 381 205 l 1,31,32
 440 315 440 315 484.5 426 c 128,-1,33
 529 537 529 537 571 694 c 1,34,35
 520 713 520 713 495.5 750 c 128,-1,36
 471 787 471 787 471 832 c 0,37,38
 471 905 471 905 515 963 c 1,39,-1
 537 963 l 1,40,41
 547 915 547 915 585 907 c 2,42,-1
 638 895 l 1,43,44
 688 881 688 881 706 854 c 128,-1,45
 724 827 724 827 724 786 c 2,46,-1
 724 781 l 2,47,48
 724 716 724 716 667 645 c 1,49,-1
 652 645 l 1,50,51
 650 652 650 652 649.5 662 c 128,-1,52
 649 672 649 672 648 676 c 128,-1,53
 647 680 647 680 644 684.5 c 128,-1,54
 641 689 641 689 634 690 c 128,-1,55
 627 691 627 691 616 691 c 1,56,57
 584 548 584 548 545 436.5 c 128,-1,58
 506 325 506 325 446 204 c 1,59,-1
 716 204 l 1,60,61
 735 264 735 264 781 339.5 c 128,-1,62
 827 415 827 415 923 550 c 0,63,64
 927 555 927 555 932 563 c 128,-1,65
 937 571 937 571 939.5 573.5 c 128,-1,66
 942 576 942 576 945 581.5 c 128,-1,67
 948 587 948 587 949.5 589 c 128,-1,68
 951 591 951 591 953 595 c 128,-1,69
 955 599 955 599 956 601 c 2,70,-1
 957 607 l 2,71,72
 958 612 958 612 958 616 c 2,73,-1
 958 624 l 2,74,75
 958 647 958 647 943.5 663.5 c 128,-1,76
 929 680 929 680 908.5 688.5 c 128,-1,77
 888 697 888 697 867 707.5 c 128,-1,78
 846 718 846 718 831.5 740 c 128,-1,79
 817 762 817 762 817 795 c 0,80,81
 817 835 817 835 834 883 c 128,-1,82
 851 931 851 931 875 963 c 1,83,-1
 898 963 l 1,84,85
 904 923 904 923 941 909 c 2,86,-1
 988 893 l 2,87,88
 1068 865 1068 865 1069 777 c 0,89,90
 1069 734 1069 734 1045.5 681.5 c 128,-1,91
 1022 629 1022 629 984 567 c 128,-1,92
 946 505 946 505 905.5 431 c 128,-1,93
 865 357 865 357 824.5 243 c 128,-1,94
 784 129 784 129 762 0 c 1,0,-1
EndSplineSet
Validated: 1
PairPos2: "kerning-2" ayin.wide dx=-80 dy=0 dh=-80 dv=0 dx=0 dy=0 dh=0 dv=0
PairPos2: "kerning-2" gimel dx=-52 dy=0 dh=-52 dv=0 dx=0 dy=0 dh=0 dv=0
PairPos2: "kerning-2" mem dx=-37 dy=0 dh=-37 dv=0 dx=0 dy=0 dh=0 dv=0
PairPos2: "kerning-2" pe dx=-26 dy=0 dh=-26 dv=0 dx=0 dy=0 dh=0 dv=0
EndChar
StartChar: tav
Encoding: 117 1514 81
Width: 870
VWidth: 1738
GlyphClass: 2
Flags: W
AnchorPoint: "accent top" 509 0 basechar 0
AnchorPoint: "accent bottom left" 509 0 basechar 0
AnchorPoint: "Top" 516 1119 basechar 0
AnchorPoint: "Holam" 221 1104 basechar 0
AnchorPoint: "Dagesh" 534 457 basechar 0
AnchorPoint: "Bottom Narrow Point" 509 0 basechar 0
AnchorPoint: "Bottom Regular Point" 509 0 basechar 0
AnchorPoint: "Bottom Wide Point" 509 0 basechar 0
LayerCount: 2
Fore
SplineSet
761 -14 m 1,0,-1
 743 -8 l 1,1,-1
 743 402 l 2,2,3
 743 497 743 497 735.5 546 c 128,-1,4
 728 595 728 595 716.5 615 c 128,-1,5
 705 635 705 635 676 659 c 0,6,7
 635 691 635 691 555 691 c 2,8,-1
 365 691 l 1,9,-1
 341 634 l 2,10,11
 289 509 289 509 287 441 c 0,12,13
 287 368 287 368 299 297 c 0,14,15
 329 152 329 152 329 106 c 2,16,-1
 329 100 l 1,17,-1
 324 0 l 1,18,-1
 77 0 l 1,19,-1
 112 204 l 1,20,-1
 219 204 l 1,21,-1
 214 340 l 1,22,-1
 214 363 l 2,23,24
 214 517 214 517 277 626 c 2,25,-1
 315 691 l 1,26,-1
 282 691 l 2,27,28
 220 691 220 691 191.5 725 c 128,-1,29
 163 759 163 759 163 817 c 0,30,31
 163 897 163 897 214 956 c 1,32,-1
 239 956 l 1,33,34
 254 897 254 897 324 897 c 2,35,-1
 513 897 l 2,36,37
 710 897 710 897 767 841 c 0,38,39
 824 784 824 784 824 592 c 2,40,-1
 824 91 l 2,41,42
 824 18 824 18 761 -14 c 1,0,-1
EndSplineSet
Validated: 1
PairPos2: "kerning-2" ayin dx=-35 dy=0 dh=-35 dv=0 dx=0 dy=0 dh=0 dv=0
PairPos2: "kerning-2" ayin.wide dx=-172 dy=0 dh=-172 dv=0 dx=0 dy=0 dh=0 dv=0
PairPos2: "kerning-2" finaltsadi dx=-36 dy=0 dh=-36 dv=0 dx=0 dy=0 dh=0 dv=0
EndChar
StartChar: geresh
Encoding: 118 1523 82
Width: 363
VWidth: 1738
GlyphClass: 2
Flags: W
LayerCount: 2
Fore
SplineSet
205 680 m 2,0,-1
 125 529 l 1,1,-1
 91 529 l 1,2,-1
 97 770 l 1,3,4
 97 930 97 930 214 930 c 0,5,6
 280 930 280 930 281 861 c 0,7,8
 282 826 282 826 205 680 c 2,0,-1
EndSplineSet
Validated: 33
EndChar
StartChar: hyphennobreak
Encoding: 120 8209 94
Width: 594
VWidth: 1738
Flags: W
LayerCount: 2
Fore
SplineSet
74 376 m 1,0,1
 70 441 70 441 74 506 c 1,2,-1
 516 506 l 1,3,4
 518 440 518 440 516 376 c 1,5,-1
 74 376 l 1,0,1
EndSplineSet
Validated: 33
EndChar
StartChar: endash
Encoding: 121 8211 99
Width: 868
VWidth: 1738
Flags: W
LayerCount: 2
Fore
SplineSet
29 393 m 1,0,1
 25 441 25 441 29 489 c 1,2,-1
 842 489 l 1,3,4
 844 439 844 439 842 393 c 1,5,-1
 29 393 l 1,0,1
EndSplineSet
Validated: 33
EndChar
StartChar: emdash
Encoding: 122 8212 100
Width: 1738
VWidth: 1738
Flags: W
LayerCount: 2
Fore
SplineSet
46 393 m 1,0,1
 42 441 42 441 46 489 c 1,2,-1
 1694 489 l 1,3,4
 1696 439 1696 439 1694 393 c 1,5,-1
 46 393 l 1,0,1
EndSplineSet
Validated: 33
EndChar
StartChar: quoteleft
Encoding: 123 8216 95
Width: 352
VWidth: 1738
Flags: W
LayerCount: 2
Fore
SplineSet
162 901 m 1,0,1
 175 913 175 913 190 918.5 c 128,-1,2
 205 924 205 924 219 924 c 0,3,4
 236 924 236 924 252 917 c 128,-1,5
 268 910 268 910 280 897.5 c 128,-1,6
 292 885 292 885 299 869 c 128,-1,7
 306 853 306 853 306 833 c 0,8,9
 306 811 306 811 297 791 c 128,-1,10
 288 771 288 771 273 757 c 128,-1,11
 258 743 258 743 238 734.5 c 128,-1,12
 218 726 218 726 196 726 c 0,13,14
 161 726 161 726 134.5 740.5 c 128,-1,15
 108 755 108 755 90.5 779.5 c 128,-1,16
 73 804 73 804 64 835.5 c 128,-1,17
 55 867 55 867 55 900 c 0,18,19
 55 947 55 947 68 992 c 128,-1,20
 81 1037 81 1037 109 1078 c 128,-1,21
 137 1119 137 1119 179 1152 c 128,-1,22
 221 1185 221 1185 278 1209 c 1,23,-1
 304 1164 l 1,24,25
 268 1149 268 1149 239 1127.5 c 128,-1,26
 210 1106 210 1106 189 1080 c 128,-1,27
 168 1054 168 1054 156.5 1025.5 c 128,-1,28
 145 997 145 997 145 968 c 0,29,30
 145 933 145 933 162 901 c 1,0,1
EndSplineSet
Validated: 1
EndChar
StartChar: quoteright
Encoding: 124 8217 96
Width: 352
VWidth: 1738
Flags: W
LayerCount: 2
Fore
SplineSet
191 1017 m 1,0,1
 178 1005 178 1005 163.5 1000 c 128,-1,2
 149 995 149 995 134 995 c 0,3,4
 117 995 117 995 101.5 1002 c 128,-1,5
 86 1009 86 1009 73.5 1020.5 c 128,-1,6
 61 1032 61 1032 54 1049 c 128,-1,7
 47 1066 47 1066 47 1086 c 0,8,9
 47 1108 47 1108 56 1128 c 128,-1,10
 65 1148 65 1148 80 1162 c 128,-1,11
 95 1176 95 1176 115 1184 c 128,-1,12
 135 1192 135 1192 158 1192 c 0,13,14
 193 1192 193 1192 219 1177.5 c 128,-1,15
 245 1163 245 1163 262.5 1139 c 128,-1,16
 280 1115 280 1115 289 1083.5 c 128,-1,17
 298 1052 298 1052 298 1017 c 0,18,19
 298 970 298 970 284.5 925.5 c 128,-1,20
 271 881 271 881 243.5 840.5 c 128,-1,21
 216 800 216 800 174 767 c 128,-1,22
 132 734 132 734 75 709 c 1,23,-1
 50 753 l 1,24,25
 86 768 86 768 114.5 790 c 128,-1,26
 143 812 143 812 164 838 c 128,-1,27
 185 864 185 864 196.5 892.5 c 128,-1,28
 208 921 208 921 208 951 c 0,29,30
 208 985 208 985 191 1017 c 1,0,1
EndSplineSet
Validated: 1
EndChar
StartChar: quotedblleft
Encoding: 125 8220 97
Width: 666
VWidth: 1738
Flags: W
LayerCount: 2
Fore
SplineSet
476 901 m 5,0,1
 489 913 489 913 504 918.5 c 132,-1,2
 519 924 519 924 534 924 c 4,3,4
 551 924 551 924 566 917 c 132,-1,5
 581 910 581 910 594 897.5 c 132,-1,6
 607 885 607 885 614 869 c 132,-1,7
 621 853 621 853 621 833 c 4,8,9
 621 811 621 811 612 791 c 132,-1,10
 603 771 603 771 587.5 757 c 132,-1,11
 572 743 572 743 552.5 734.5 c 132,-1,12
 533 726 533 726 509 726 c 4,13,14
 474 726 474 726 448 740.5 c 132,-1,15
 422 755 422 755 405 779.5 c 132,-1,16
 388 804 388 804 379 835.5 c 132,-1,17
 370 867 370 867 370 900 c 4,18,19
 370 947 370 947 383 992 c 132,-1,20
 396 1037 396 1037 423.5 1078 c 132,-1,21
 451 1119 451 1119 492.5 1152 c 132,-1,22
 534 1185 534 1185 592 1209 c 5,23,-1
 618 1164 l 5,24,25
 582 1149 582 1149 553 1127.5 c 132,-1,26
 524 1106 524 1106 503 1080 c 132,-1,27
 482 1054 482 1054 471 1025.5 c 132,-1,28
 460 997 460 997 460 968 c 4,29,30
 459 933 459 933 476 901 c 5,0,1
154 901 m 5,31,32
 167 913 167 913 182 918.5 c 132,-1,33
 197 924 197 924 212 924 c 4,34,35
 229 924 229 924 244.5 917 c 132,-1,36
 260 910 260 910 272.5 897.5 c 132,-1,37
 285 885 285 885 292 869 c 132,-1,38
 299 853 299 853 299 833 c 4,39,40
 299 811 299 811 290 791 c 132,-1,41
 281 771 281 771 266 757 c 132,-1,42
 251 743 251 743 231 734.5 c 132,-1,43
 211 726 211 726 187 726 c 4,44,45
 152 726 152 726 126 740.5 c 132,-1,46
 100 755 100 755 83 779.5 c 132,-1,47
 66 804 66 804 57 835.5 c 132,-1,48
 48 867 48 867 48 900 c 4,49,50
 48 947 48 947 61 992 c 132,-1,51
 74 1037 74 1037 101.5 1078 c 132,-1,52
 129 1119 129 1119 171 1152 c 132,-1,53
 213 1185 213 1185 271 1209 c 5,54,-1
 297 1164 l 5,55,56
 261 1149 261 1149 231.5 1127.5 c 132,-1,57
 202 1106 202 1106 181 1080 c 132,-1,58
 160 1054 160 1054 149 1025.5 c 132,-1,59
 138 997 138 997 138 968 c 4,60,61
 137 933 137 933 154 901 c 5,31,32
EndSplineSet
Validated: 33
EndChar
StartChar: quotedblright
Encoding: 126 8221 98
Width: 666
VWidth: 1738
Flags: W
LayerCount: 2
Fore
SplineSet
514 1017 m 5,0,1
 501 1005 501 1005 486 1000 c 132,-1,2
 471 995 471 995 457 995 c 4,3,4
 440 995 440 995 424 1002 c 132,-1,5
 408 1009 408 1009 396 1020.5 c 132,-1,6
 384 1032 384 1032 377 1049 c 132,-1,7
 370 1066 370 1066 370 1086 c 4,8,9
 370 1108 370 1108 379 1128 c 132,-1,10
 388 1148 388 1148 402.5 1162 c 132,-1,11
 417 1176 417 1176 437.5 1184 c 132,-1,12
 458 1192 458 1192 480 1192 c 4,13,14
 515 1192 515 1192 541.5 1177.5 c 132,-1,15
 568 1163 568 1163 585.5 1139 c 132,-1,16
 603 1115 603 1115 612 1083.5 c 132,-1,17
 621 1052 621 1052 621 1017 c 4,18,19
 621 970 621 970 607.5 925.5 c 132,-1,20
 594 881 594 881 566.5 840.5 c 132,-1,21
 539 800 539 800 497 767 c 132,-1,22
 455 734 455 734 397 709 c 5,23,-1
 372 753 l 5,24,25
 408 768 408 768 437 790 c 132,-1,26
 466 812 466 812 486.5 838 c 132,-1,27
 507 864 507 864 519 892.5 c 132,-1,28
 531 921 531 921 531 951 c 4,29,30
 531 985 531 985 514 1017 c 5,0,1
191 1017 m 5,31,32
 178 1005 178 1005 163.5 1000 c 132,-1,33
 149 995 149 995 134 995 c 4,34,35
 117 995 117 995 101.5 1002 c 132,-1,36
 86 1009 86 1009 73.5 1020.5 c 132,-1,37
 61 1032 61 1032 54 1049 c 132,-1,38
 47 1066 47 1066 47 1086 c 4,39,40
 47 1108 47 1108 56 1128 c 132,-1,41
 65 1148 65 1148 80 1162 c 132,-1,42
 95 1176 95 1176 115 1184 c 132,-1,43
 135 1192 135 1192 158 1192 c 4,44,45
 193 1192 193 1192 219 1177.5 c 132,-1,46
 245 1163 245 1163 262.5 1139 c 132,-1,47
 280 1115 280 1115 289 1083.5 c 132,-1,48
 298 1052 298 1052 298 1017 c 4,49,50
 298 970 298 970 284.5 925.5 c 132,-1,51
 271 881 271 881 243.5 840.5 c 132,-1,52
 216 800 216 800 174 767 c 132,-1,53
 132 734 132 734 75 709 c 5,54,-1
 50 753 l 5,55,56
 86 768 86 768 114.5 790 c 132,-1,57
 143 812 143 812 164 838 c 132,-1,58
 185 864 185 864 196.5 892.5 c 132,-1,59
 208 921 208 921 208 951 c 4,60,61
 208 985 208 985 191 1017 c 5,31,32
EndSplineSet
Validated: 1
EndChar
StartChar: bullet
Encoding: 146 8226 146
Width: 862
VWidth: 1738
GlyphClass: 2
Flags: W
LayerCount: 2
Fore
SplineSet
139 481 m 1,0,1
 139 604 139 604 224 689 c 128,-1,2
 309 774 309 774 432 774 c 256,3,4
 555 774 555 774 639.5 689 c 128,-1,5
 724 604 724 604 724 481 c 256,6,7
 724 358 724 358 638.5 273 c 128,-1,8
 553 188 553 188 432 188 c 256,9,10
 309 188 309 188 224 273.5 c 128,-1,11
 139 359 139 359 139 481 c 1,12,-1
 139 481 l 1,0,1
EndSplineSet
Validated: 5
EndChar
StartChar: ellipsis
Encoding: 127 8230 101
Width: 1349
VWidth: 1738
Flags: W
LayerCount: 2
Fore
SplineSet
127 99 m 5,0,1
 127 145 127 145 159 179.5 c 132,-1,2
 191 214 191 214 241 214 c 4,3,4
 292 214 292 214 324 179.5 c 132,-1,5
 356 145 356 145 356 99 c 260,6,7
 356 53 356 53 323.5 19 c 132,-1,8
 291 -15 291 -15 241 -15 c 4,9,10
 191 -15 191 -15 159 19 c 132,-1,11
 127 53 127 53 127 99 c 5,12,-1
 127 99 l 5,0,1
578 99 m 5,13,14
 578 145 578 145 609.5 179.5 c 132,-1,15
 641 214 641 214 690 214 c 4,16,17
 741 214 741 214 773.5 179.5 c 132,-1,18
 806 145 806 145 806 99 c 260,19,20
 806 53 806 53 773.5 19 c 132,-1,21
 741 -15 741 -15 690 -15 c 4,22,23
 640 -15 640 -15 609 19 c 132,-1,24
 578 53 578 53 578 99 c 5,25,-1
 578 99 l 5,13,14
1027 99 m 5,26,27
 1027 145 1027 145 1058.5 179.5 c 132,-1,28
 1090 214 1090 214 1140 214 c 4,29,30
 1191 214 1191 214 1223 179.5 c 132,-1,31
 1255 145 1255 145 1255 99 c 260,32,33
 1255 53 1255 53 1223.5 19 c 132,-1,34
 1192 -15 1192 -15 1140 -15 c 4,35,36
 1090 -15 1090 -15 1058.5 19 c 132,-1,37
 1027 53 1027 53 1027 99 c 5,38,-1
 1027 99 l 5,26,27
EndSplineSet
Validated: 5
EndChar
StartChar: overline
Encoding: 147 8254 147
Width: 0
VWidth: 1738
GlyphClass: 4
Flags: W
AnchorPoint: "Top" 4 1077 mark 0
LayerCount: 2
Fore
SplineSet
132 1039 m 5,0,-1
 -132 1039 l 5,1,-1
 -132 1119 l 5,2,-1
 132 1119 l 5,3,-1
 132 1039 l 5,0,-1
EndSplineSet
Validated: 1
EndChar
StartChar: ayinaltonehebrew
Encoding: 128 64288 84
Width: 780
VWidth: 1738
GlyphClass: 2
Flags: W
LayerCount: 2
Fore
SplineSet
589 240 m 0,0,1
 589 12 589 12 352 6 c 2,2,-1
 59 0 l 1,3,-1
 99 200 l 5,4,-1
 313 200 l 1,5,6
 313 334 313 334 248 388 c 0,7,8
 204 425 204 425 193 453.5 c 128,-1,9
 182 482 182 482 182 548 c 0,10,11
 182 599 182 599 197 691 c 1,12,13
 132 703 132 703 99 737 c 128,-1,14
 66 771 66 771 66 821 c 0,15,16
 66 893 66 893 100 960 c 1,17,-1
 124 960 l 1,18,19
 139 899 139 899 197 893 c 1,20,-1
 236 893 l 2,21,22
 277 893 277 893 304.5 857.5 c 128,-1,23
 332 822 332 822 332 771 c 0,24,25
 332 707 332 707 287 651 c 1,26,-1
 273 651 l 1,27,28
 268 675 268 675 260 683 c 128,-1,29
 252 691 252 691 233 691 c 1,30,31
 233 596 233 596 240.5 571 c 128,-1,32
 248 546 248 546 284 522 c 0,33,34
 318 500 318 500 331 486 c 128,-1,35
 344 472 344 472 352 446 c 128,-1,36
 360 420 360 420 360 372 c 2,37,-1
 360 203 l 1,38,-1
 413 211 l 2,39,40
 420 212 420 212 433 213 c 128,-1,41
 446 214 446 214 450.5 215 c 128,-1,42
 455 216 455 216 464 218.5 c 128,-1,43
 473 221 473 221 475 224 c 2,44,-1
 484 232 l 2,45,46
 490 238 490 238 492.5 244.5 c 128,-1,47
 495 251 495 251 499.5 262.5 c 128,-1,48
 504 274 504 274 507 288 c 128,-1,49
 510 302 510 302 515 322 c 0,50,51
 533 400 533 400 578.5 505 c 128,-1,52
 624 610 624 610 624 634 c 0,53,54
 624 683 624 683 580 691 c 0,55,56
 522 704 522 704 494 741 c 0,57,58
 467 778 467 778 467 827 c 0,59,60
 467 890 467 890 508 960 c 1,61,-1
 532 960 l 1,62,63
 539 925 539 925 561 911 c 0,64,65
 577 901 577 901 610 893.5 c 128,-1,66
 643 886 643 886 669 881.5 c 128,-1,67
 695 877 695 877 715 855.5 c 128,-1,68
 735 834 735 834 735 796 c 0,69,70
 735 763 735 763 720 721.5 c 128,-1,71
 705 680 705 680 683.5 634 c 128,-1,72
 662 588 662 588 640.5 533.5 c 128,-1,73
 619 479 619 479 604 402 c 128,-1,74
 589 325 589 325 589 240 c 0,0,1
EndSplineSet
Validated: 1
EndChar
StartChar: aleph.wide
Encoding: 129 64289 85
Width: 1322
VWidth: 1738
GlyphClass: 2
Flags: W
LayerCount: 2
Fore
SplineSet
214 81 m 0,0,1
 214 104 214 104 175 195 c 128,-1,2
 136 286 136 286 136 326 c 0,3,4
 136 449 136 449 333 571 c 1,5,-1
 214 671 l 1,6,7
 147 748 147 748 148 827 c 0,8,9
 148 899 148 899 208 963 c 1,10,-1
 230 963 l 1,11,12
 230 895 230 895 274 844 c 1,13,14
 522 529 522 529 1049 319 c 1,15,16
 1015 400 1015 400 1016 477 c 0,17,18
 1016 542 1016 542 1037 592.5 c 128,-1,19
 1058 643 1058 643 1107 695 c 1,20,21
 1042 705 1042 705 1010.5 746 c 128,-1,22
 979 787 979 787 979 846 c 0,23,24
 979 911 979 911 1016 963 c 1,25,-1
 1036 963 l 1,26,27
 1050 911 1050 911 1102 899 c 2,28,-1
 1175 881 l 2,29,30
 1271 859 1271 859 1272 773 c 0,31,32
 1272 743 1272 743 1256 698 c 1,33,34
 1230 690 1230 690 1163 689 c 1,35,36
 1082 563 1082 563 1082 477 c 0,37,38
 1082 412 1082 412 1127 360 c 2,39,-1
 1207 270 l 2,40,41
 1274 195 1274 195 1273 113 c 0,42,43
 1273 39 1273 39 1213 -15 c 1,44,-1
 1191 -15 l 1,45,46
 1191 44 1191 44 1146 95 c 1,47,48
 752 276 752 276 367 534 c 1,49,50
 257 468 257 468 256 395 c 0,51,52
 256 360 256 360 276.5 316 c 128,-1,53
 297 272 297 272 321.5 238 c 128,-1,54
 346 204 346 204 367 160 c 128,-1,55
 388 116 388 116 388 81 c 0,56,57
 388 0 388 0 324 0 c 2,58,-1
 164 0 l 1,59,-1
 164 22 l 1,60,61
 214 37 214 37 214 81 c 0,0,1
EndSplineSet
Validated: 33
EndChar
StartChar: dalet.wide
Encoding: 130 64290 86
Width: 1263
VWidth: 1738
GlyphClass: 2
Flags: W
LayerCount: 2
Fore
SplineSet
1088 506 m 0,0,1
 1088 457 1088 457 1097 327 c 128,-1,2
 1106 197 1106 197 1106 149 c 0,3,4
 1106 -1 1106 -1 983 -22 c 1,5,-1
 969 0 l 1,6,7
 991 32 991 32 990 86 c 0,8,9
 990 145 990 145 986.5 233.5 c 128,-1,10
 983 322 983 322 983 359 c 0,11,12
 983 483 983 483 1009.5 559.5 c 128,-1,13
 1036 636 1036 636 1108 692 c 1,14,-1
 194 692 l 2,15,16
 133 692 133 692 109 724.5 c 128,-1,17
 85 757 85 757 85 817 c 0,18,19
 85 901 85 901 137 956 c 1,20,-1
 159 956 l 1,21,22
 173 897 173 897 243 897 c 2,23,-1
 1113 897 l 2,24,25
 1172 897 1172 897 1195 875 c 128,-1,26
 1218 853 1218 853 1218 796 c 0,27,28
 1218 758 1218 758 1209 735.5 c 128,-1,29
 1200 713 1200 713 1188 704 c 128,-1,30
 1176 695 1176 695 1155 674 c 128,-1,31
 1134 653 1134 653 1117 625 c 0,32,33
 1088 575 1088 575 1088 506 c 0,0,1
EndSplineSet
Validated: 33
EndChar
StartChar: uniFB23
Encoding: 131 64291 87
Width: 1384
VWidth: 1738
GlyphClass: 2
Flags: W
LayerCount: 2
Fore
SplineSet
1257 513 m 0,0,1
 1257 461 1257 461 1276.5 333 c 128,-1,2
 1296 205 1296 205 1296 146 c 0,3,4
 1296 -5 1296 -5 1176 -23 c 1,5,-1
 1163 -6 l 1,6,7
 1185 31 1185 31 1184 83 c 0,8,9
 1184 120 1184 120 1177.5 234 c 128,-1,10
 1171 348 1171 348 1171 385 c 0,11,12
 1171 494 1171 494 1189 564.5 c 128,-1,13
 1207 635 1207 635 1253 692 c 1,14,-1
 291 692 l 2,15,16
 178 692 178 692 178 817 c 0,17,18
 178 899 178 899 231 956 c 1,19,-1
 253 956 l 1,20,21
 267 894 267 894 333 894 c 2,22,-1
 1209 894 l 2,23,24
 1275 894 1275 894 1297.5 870.5 c 128,-1,25
 1320 847 1320 847 1320 793 c 2,26,-1
 1320 752 l 2,27,28
 1320 730 1320 730 1310.5 709 c 128,-1,29
 1301 688 1301 688 1289 670.5 c 128,-1,30
 1277 653 1277 653 1267 612.5 c 128,-1,31
 1257 572 1257 572 1257 513 c 0,0,1
299 250 m 0,32,33
 299 233 299 233 302.5 167 c 128,-1,34
 306 101 306 101 306 84 c 0,35,36
 306 32 306 32 273.5 2.5 c 128,-1,37
 241 -27 241 -27 178 -27 c 1,38,-1
 167 -8 l 1,39,40
 189 15 189 15 188 53 c 0,41,42
 188 89 188 89 185.5 145 c 128,-1,43
 183 201 183 201 183 213 c 0,44,45
 183 304 183 304 217.5 358.5 c 128,-1,46
 252 413 252 413 315 413 c 0,47,48
 332 413 332 413 343 406 c 1,49,-1
 343 383 l 1,50,51
 323 370 323 370 311 332 c 128,-1,52
 299 294 299 294 299 250 c 0,32,33
EndSplineSet
Validated: 33
EndChar
StartChar: kaf.wide
Encoding: 132 64292 88
Width: 1223
VWidth: 1738
GlyphClass: 2
Flags: W
LayerCount: 2
Fore
SplineSet
1094 427 m 2,0,-1
 1094 433 l 2,1,2
 1094 500 1094 500 1087 545 c 128,-1,3
 1080 590 1080 590 1060 624.5 c 128,-1,4
 1040 659 1040 659 1004 675 c 128,-1,5
 968 691 968 691 912 691 c 2,6,-1
 254 691 l 2,7,8
 196 691 196 691 164 726.5 c 128,-1,9
 132 762 132 762 132 817 c 0,10,11
 132 895 132 895 184 956 c 1,12,-1
 206 956 l 1,13,14
 220 897 220 897 291 897 c 2,15,-1
 890 897 l 2,16,17
 1160 897 1160 897 1160 456 c 0,18,19
 1160 351 1160 351 1149.5 276.5 c 128,-1,20
 1139 202 1139 202 1119.5 157.5 c 128,-1,21
 1100 113 1100 113 1077.5 88.5 c 128,-1,22
 1055 64 1055 64 1023 46 c 0,23,24
 943 0 943 0 810 0 c 2,25,-1
 106 0 l 1,26,-1
 178 204 l 1,27,-1
 906 204 l 2,28,29
 1009 204 1009 204 1051.5 253.5 c 128,-1,30
 1094 303 1094 303 1094 427 c 2,0,-1
EndSplineSet
Validated: 1
EndChar
StartChar: lamed.wide
Encoding: 133 64293 89
Width: 1195
VWidth: 1738
GlyphClass: 2
Flags: W
LayerCount: 2
Fore
SplineSet
293 900 m 2,0,-1
 1000 900 l 2,1,2
 1078 900 1078 900 1121 863 c 0,3,4
 1162 824 1162 824 1163 675 c 2,5,-1
 1163 584 l 2,6,7
 1163 473 1163 473 1114 418 c 2,8,-1
 953 238 l 2,9,10
 894 172 894 172 894 110 c 0,11,12
 894 97 894 97 897 77 c 128,-1,13
 900 57 900 57 900 49 c 0,14,15
 900 -14 900 -14 843 -14 c 0,16,17
 815 -14 815 -14 796 13 c 128,-1,18
 777 40 777 40 777 76 c 0,19,20
 777 122 777 122 808 166.5 c 128,-1,21
 839 211 839 211 912 285 c 2,22,-1
 1036 413 l 2,23,24
 1088 468 1088 468 1089 553 c 2,25,-1
 1089 605 l 2,26,27
 1089 666 1089 666 1060 680.5 c 128,-1,28
 1031 695 1031 695 932 695 c 2,29,-1
 256 695 l 2,30,31
 191 695 191 695 157 731.5 c 128,-1,32
 123 768 123 768 123 829 c 0,33,34
 123 840 123 840 121 870 c 128,-1,35
 119 900 119 900 119 916 c 0,36,37
 119 984 119 984 140 1032 c 0,38,39
 178 1118 178 1118 251 1119 c 0,40,41
 365 1119 365 1119 485.5 1096 c 128,-1,42
 606 1073 606 1073 701 1050 c 128,-1,43
 796 1027 796 1027 848 1027 c 0,44,45
 869 1027 869 1027 882 1047.5 c 128,-1,46
 895 1068 895 1068 900 1093.5 c 128,-1,47
 905 1119 905 1119 918.5 1140 c 128,-1,48
 932 1161 932 1161 954 1161 c 0,49,50
 986 1161 986 1161 1016 1144.5 c 128,-1,51
 1046 1128 1046 1128 1073 1128 c 1,52,-1
 1073 1105 l 1,53,54
 1051 1089 1051 1089 1045 1073 c 0,55,56
 1040 1064 1040 1064 1033.5 1042.5 c 128,-1,57
 1027 1021 1027 1021 1021.5 1008.5 c 128,-1,58
 1016 996 1016 996 1004.5 981 c 128,-1,59
 993 966 993 966 975 958.5 c 128,-1,60
 957 951 957 951 931 951 c 0,61,62
 860 951 860 951 772.5 966.5 c 128,-1,63
 685 982 685 982 614.5 1000 c 128,-1,64
 544 1018 544 1018 445 1034 c 128,-1,65
 346 1050 346 1050 255 1050 c 0,66,67
 228 1050 228 1050 211 1027 c 128,-1,68
 194 1004 194 1004 194 973 c 0,69,70
 194 900 194 900 293 900 c 2,0,-1
EndSplineSet
Validated: 1
EndChar
StartChar: finalmem.wide
Encoding: 134 64294 90
Width: 1329
VWidth: 1738
GlyphClass: 2
Flags: W
LayerCount: 2
Fore
SplineSet
146 0 m 1,0,-1
 146 458 l 2,1,2
 146 526 146 526 197 584 c 2,3,-1
 306 709 l 1,4,-1
 252 709 l 2,5,6
 128 709 128 709 129 818 c 0,7,8
 129 898 129 898 181 956 c 1,9,-1
 203 956 l 1,10,11
 217 897 217 897 284 897 c 2,12,-1
 944 897 l 2,13,14
 1141 897 1141 897 1198 840 c 0,15,16
 1257 783 1257 783 1256 592 c 2,17,-1
 1256 0 l 1,18,-1
 146 0 l 1,0,-1
350 691 m 1,19,-1
 260 559 l 2,20,21
 223 504 223 504 223 427 c 2,22,-1
 223 204 l 1,23,-1
 1184 204 l 1,24,-1
 1184 402 l 2,25,26
 1184 574 1184 574 1150 644 c 0,27,28
 1136 674 1136 674 1098.5 682.5 c 128,-1,29
 1061 691 1061 691 992 691 c 2,30,-1
 350 691 l 1,19,-1
EndSplineSet
Validated: 33
EndChar
StartChar: resh.wide
Encoding: 135 64295 91
Width: 1220
VWidth: 1738
GlyphClass: 2
Flags: W
LayerCount: 2
Fore
SplineSet
1111 -16 m 1,0,-1
 1093 -10 l 1,1,-1
 1093 402 l 2,2,3
 1093 541 1093 541 1079 591.5 c 128,-1,4
 1065 642 1065 642 1015 669 c 0,5,6
 972 691 972 691 907 692 c 2,7,-1
 205 692 l 2,8,9
 146 692 146 692 114.5 726.5 c 128,-1,10
 83 761 83 761 83 817 c 0,11,12
 83 897 83 897 135 956 c 1,13,-1
 157 956 l 1,14,15
 171 897 171 897 241 897 c 2,16,-1
 859 897 l 2,17,18
 1056 897 1056 897 1112 840 c 0,19,20
 1171 783 1171 783 1171 592 c 2,21,-1
 1171 68 l 2,22,23
 1170 16 1170 16 1111 -16 c 1,0,-1
EndSplineSet
Validated: 1
EndChar
StartChar: tav.wide
Encoding: 136 64296 92
Width: 1369
VWidth: 1738
GlyphClass: 2
Flags: W
LayerCount: 2
Fore
SplineSet
1257 -14 m 1,0,-1
 1239 -7 l 1,1,-1
 1239 403 l 2,2,3
 1239 500 1239 500 1233.5 547 c 128,-1,4
 1228 594 1228 594 1217 615 c 128,-1,5
 1206 636 1206 636 1178 660 c 0,6,7
 1139 692 1139 692 1058 691 c 2,8,-1
 371 691 l 1,9,-1
 341 634 l 2,10,11
 289 533 289 533 287 441 c 0,12,13
 287 439 287 439 287 433.5 c 128,-1,14
 287 428 287 428 287 424 c 0,15,16
 287 374 287 374 299 297 c 1,17,18
 329 146 329 146 329 106 c 2,19,-1
 329 100 l 1,20,-1
 329 0 l 1,21,-1
 77 0 l 1,22,-1
 122 204 l 1,23,-1
 222 204 l 1,24,-1
 213 340 l 1,25,-1
 213 368 l 2,26,27
 213 528 213 528 277 626 c 2,28,-1
 318 691 l 1,29,-1
 302 692 l 2,30,31
 285 693 285 693 285 691 c 1,32,33
 223 691 223 691 193 725.5 c 128,-1,34
 163 760 163 760 163 817 c 0,35,36
 163 898 163 898 215 956 c 1,37,-1
 239 956 l 1,38,39
 253 897 253 897 324 898 c 2,40,-1
 1009 898 l 2,41,42
 1206 898 1206 898 1263 841 c 0,43,44
 1321 783 1321 783 1320 593 c 2,45,-1
 1320 92 l 2,46,47
 1320 18 1320 18 1257 -14 c 1,0,-1
EndSplineSet
Validated: 33
EndChar
StartChar: uniFB29
Encoding: 137 64297 93
Width: 880
VWidth: 1738
GlyphClass: 2
Flags: W
LayerCount: 2
Fore
SplineSet
80 1068 m 0,0,1
 118 1155 118 1155 190 1155 c 0,2,3
 230 1155 230 1155 315 1122.5 c 128,-1,4
 400 1090 400 1090 442 1090 c 0,5,6
 463 1090 463 1090 476 1111 c 128,-1,7
 489 1132 489 1132 493.5 1157 c 128,-1,8
 498 1182 498 1182 511.5 1203 c 128,-1,9
 525 1224 525 1224 548 1224 c 0,10,11
 580 1224 580 1224 610 1208 c 128,-1,12
 640 1192 640 1192 666 1192 c 1,13,-1
 666 1169 l 1,14,15
 644 1153 644 1153 637 1136 c 0,16,17
 632 1127 632 1127 626.5 1106 c 128,-1,18
 621 1085 621 1085 614.5 1072.5 c 128,-1,19
 608 1060 608 1060 597.5 1045 c 128,-1,20
 587 1030 587 1030 568.5 1022.5 c 128,-1,21
 550 1015 550 1015 525 1015 c 0,22,23
 465 1015 465 1015 403.5 1033 c 128,-1,24
 342 1051 342 1051 288.5 1069.5 c 128,-1,25
 235 1088 235 1088 195 1088 c 0,26,27
 168 1088 168 1088 150.5 1065 c 128,-1,28
 133 1042 133 1042 133 1011 c 0,29,30
 133 974 133 974 151 941 c 128,-1,31
 169 908 169 908 195 908 c 2,32,-1
 235 908 l 2,33,34
 274 908 274 908 317 850 c 2,35,-1
 574 503 l 1,36,37
 579 542 579 542 581 559.5 c 128,-1,38
 583 577 583 577 598 620 c 128,-1,39
 613 663 613 663 638 708 c 1,40,41
 572 721 572 721 548.5 759 c 128,-1,42
 525 797 525 797 525 858 c 0,43,44
 525 925 525 925 560 975 c 1,45,-1
 582 975 l 1,46,47
 588 949 588 949 613.5 926 c 128,-1,48
 639 903 639 903 670 903 c 0,49,50
 711 903 711 903 741.5 891 c 128,-1,51
 772 879 772 879 788 859 c 128,-1,52
 804 839 804 839 810.5 818.5 c 128,-1,53
 817 798 817 798 817 779 c 0,54,55
 817 701 817 701 768 636 c 1,56,-1
 752 636 l 1,57,-1
 752 657 l 1,58,-1
 752 667 l 2,59,60
 752 679 752 679 728.5 690 c 128,-1,61
 705 701 705 701 682 701 c 1,62,-1
 657 605 l 2,63,64
 655 598 655 598 647 571 c 128,-1,65
 639 544 639 544 636 525 c 128,-1,66
 633 506 633 506 633 487 c 0,67,68
 633 425 633 425 672 372 c 2,69,-1
 745 278 l 2,70,71
 817 185 817 185 817 124 c 0,72,73
 817 50 817 50 759 -4 c 1,74,-1
 736 -4 l 1,75,76
 736 41 736 41 692 103 c 2,77,-1
 349 579 l 1,78,-1
 280 654 l 1,79,80
 248 696 248 696 196 697 c 2,81,-1
 169 697 l 2,82,83
 128 697 128 697 108 732.5 c 128,-1,84
 88 768 88 768 73 840 c 0,85,86
 66 877 66 877 66 941 c 0,87,88
 66 1034 66 1034 80 1068 c 0,0,1
EndSplineSet
Validated: 1
EndChar
StartChar: ayin.wide
Encoding: 143 -1 143
Width: 1510
VWidth: 1738
GlyphClass: 2
Flags: W
AnchorPoint: "accent top" 739 0 basechar 0
AnchorPoint: "accent bottom left" 739 0 basechar 0
AnchorPoint: "Holam" 110 1104 basechar 0
AnchorPoint: "Bottom Narrow Point" 739 0 basechar 0
AnchorPoint: "Bottom Regular Point" 739 0 basechar 0
AnchorPoint: "Bottom Wide Point" 739 0 basechar 0
LayerCount: 2
Fore
SplineSet
94 0 m 9,0,-1
 1024 0 l 2,1,2
 1037 0 1037 0 1050 0 c 0,3,4
 1068 0 1068 0 1074 0 c 2,5,6
 1082 0 1082 0 1094 20.5 c 128,-1,7
 1106 41 1106 41 1110 52 c 0,8,9
 1117 71 1117 71 1119 74 c 0,10,-1
 1198 402 l 0,11,12
 1201 447 1201 447 1235 534 c 0,13,14
 1257 588 1257 588 1278 634 c 128,-1,15
 1299 680 1299 680 1314 721 c 128,-1,16
 1329 762 1329 762 1329 796 c 0,17,18
 1329 834 1329 834 1309 855.5 c 128,-1,19
 1289 877 1289 877 1262.5 881.5 c 128,-1,20
 1236 886 1236 886 1203.5 893 c 128,-1,21
 1171 900 1171 900 1155 911 c 0,22,23
 1133 925 1133 925 1126 960 c 1,24,-1
 1103 960 l 1,25,26
 1062 891 1062 891 1061 827 c 0,27,28
 1061 777 1061 777 1089 741 c 0,29,30
 1117 704 1117 704 1175 691 c 0,31,32
 1218 682 1218 682 1219 634 c 0,33,34
 1219 612 1219 612 1173 505 c 0,35,36
 1125 395 1125 395 1109 322 c 0,37,-1
 1101 289 l 0,38,-1
 1094 262 l 0,39,40
 1089 251 1089 251 1086.5 244.5 c 128,-1,41
 1084 238 1084 238 1078 232 c 2,42,-1
 1070 224 l 2,43,44
 1067 221 1067 221 1058 218.5 c 128,-1,45
 1049 216 1049 216 1044.5 215 c 128,-1,46
 1040 214 1040 214 1027 213 c 0,47,48
 1012 211 1012 211 1007 211 c 2,49,-1
 360 204 l 1,50,-1
 360 372 l 2,51,52
 360 421 360 421 352 446.5 c 128,-1,53
 344 472 344 472 330.5 486 c 128,-1,54
 317 500 317 500 284 522 c 0,55,56
 248 545 248 545 240.5 571 c 128,-1,57
 233 597 233 597 233 691 c 1,58,59
 253 691 253 691 261 683.5 c 128,-1,60
 269 676 269 676 273 651 c 1,61,-1
 287 651 l 1,62,63
 331 707 331 707 332 771 c 0,64,65
 332 822 332 822 304.5 857.5 c 128,-1,66
 277 893 277 893 236 893 c 2,67,-1
 197 893 l 1,68,69
 139 899 139 899 124 960 c 1,70,-1
 100 960 l 1,71,72
 66 893 66 893 66 821 c 0,73,74
 66 771 66 771 99.5 737 c 128,-1,75
 133 703 133 703 197 691 c 1,76,77
 181 597 181 597 182 548 c 0,78,79
 182 482 182 482 193 453 c 128,-1,80
 204 424 204 424 248 388 c 0,81,82
 313 336 313 336 313 200 c 1,83,-1
 149 200 l 1,84,-1
 94 0 l 9,0,-1
394 -51 m 1025,85,-1
EndSplineSet
Validated: 41
PairPos2: "kerning-2" ayin.wide dx=-25 dy=0 dh=-25 dv=0 dx=0 dy=0 dh=0 dv=0
EndChar
StartChar: dageshhazak
Encoding: 141 -1 140
Width: 0
VWidth: 1738
GlyphClass: 4
Flags: W
AnchorPoint: "Dagesh" 0 440 mark 0
LayerCount: 2
Fore
SplineSet
-69 519 m 25,0,-1
 -68 362 l 5,1,-1
 68 362 l 29,2,-1
 68 519 l 1,3,-1
 -69 519 l 25,0,-1
EndSplineSet
Validated: 9
LCarets2: 1 0
Ligature2: "shva and dagesh" dagesh dagesh
EndChar
StartChar: he.wide
Encoding: 139 -1 141
Width: 1384
VWidth: 1738
GlyphClass: 2
Flags: W
AnchorPoint: "accent top" 760 0 basechar 0
AnchorPoint: "accent bottom left" 760 0 basechar 0
AnchorPoint: "Dagesh" 762 457 basechar 0
AnchorPoint: "Bottom Narrow Point" 760 0 basechar 0
AnchorPoint: "Bottom Regular Point" 760 0 basechar 0
AnchorPoint: "Bottom Wide Point" 760 0 basechar 0
LayerCount: 2
Fore
SplineSet
1257 513 m 0,0,1
 1257 461 1257 461 1276.5 333 c 128,-1,2
 1296 205 1296 205 1296 146 c 0,3,4
 1296 -5 1296 -5 1176 -23 c 1,5,-1
 1163 -6 l 1,6,7
 1185 31 1185 31 1184 83 c 0,8,9
 1184 120 1184 120 1177.5 234 c 128,-1,10
 1171 348 1171 348 1171 385 c 0,11,12
 1171 494 1171 494 1189 564.5 c 128,-1,13
 1207 635 1207 635 1253 692 c 1,14,-1
 291 692 l 2,15,16
 178 692 178 692 178 817 c 0,17,18
 178 899 178 899 231 956 c 1,19,-1
 253 956 l 1,20,21
 267 894 267 894 333 894 c 2,22,-1
 1209 894 l 2,23,24
 1275 894 1275 894 1297.5 870.5 c 128,-1,25
 1320 847 1320 847 1320 793 c 2,26,-1
 1320 752 l 2,27,28
 1320 730 1320 730 1310.5 709 c 128,-1,29
 1301 688 1301 688 1289 670.5 c 128,-1,30
 1277 653 1277 653 1267 612.5 c 128,-1,31
 1257 572 1257 572 1257 513 c 0,0,1
299 250 m 0,32,33
 299 233 299 233 302.5 167 c 128,-1,34
 306 101 306 101 306 84 c 0,35,36
 306 32 306 32 273.5 2.5 c 128,-1,37
 241 -27 241 -27 178 -27 c 1,38,-1
 167 -8 l 1,39,40
 189 15 189 15 188 53 c 0,41,42
 188 89 188 89 185.5 145 c 128,-1,43
 183 201 183 201 183 213 c 0,44,45
 183 304 183 304 217.5 358.5 c 128,-1,46
 252 413 252 413 315 413 c 0,47,48
 332 413 332 413 343 406 c 1,49,-1
 343 383 l 1,50,51
 323 370 323 370 311 332 c 128,-1,52
 299 294 299 294 299 250 c 0,32,33
EndSplineSet
Validated: 33
PairPos2: "kerning-2" ayin.wide dx=-140 dy=0 dh=-140 dv=0 dx=0 dy=0 dh=0 dv=0
PairPos2: "kerning-2" kaf dx=-33 dy=0 dh=-33 dv=0 dx=0 dy=0 dh=0 dv=0
PairPos2: "kerning-2" mem dx=-38 dy=0 dh=-38 dv=0 dx=0 dy=0 dh=0 dv=0
PairPos2: "kerning-2" pe dx=-41 dy=0 dh=-41 dv=0 dx=0 dy=0 dh=0 dv=0
PairPos2: "kerning-2" samekh dx=-35 dy=0 dh=-35 dv=0 dx=0 dy=0 dh=0 dv=0
PairPos2: "kerning-2" tet dx=-36 dy=0 dh=-36 dv=0 dx=0 dy=0 dh=0 dv=0
EndChar
StartChar: het.wide
Encoding: 142 -1 142
Width: 1384
VWidth: 1738
GlyphClass: 2
Flags: W
AnchorPoint: "accent top" 760 0 basechar 0
AnchorPoint: "accent bottom left" 760 0 basechar 0
AnchorPoint: "Bottom Wide Point" 760 0 basechar 0
AnchorPoint: "Bottom Regular Point" 760 0 basechar 0
AnchorPoint: "Bottom Narrow Point" 760 0 basechar 0
AnchorPoint: "Dagesh" 762 457 basechar 0
AnchorPoint: "Holam" 214 1104 basechar 0
LayerCount: 2
Fore
SplineSet
1258 516 m 4,0,1
 1258 467 1258 467 1278 336 c 132,-1,2
 1298 205 1298 205 1298 149 c 4,3,4
 1298 -3 1298 -3 1179 -22 c 5,5,-1
 1165 -4 l 5,6,7
 1187 30 1187 30 1188 86 c 4,8,9
 1188 123 1188 123 1181 237 c 132,-1,10
 1174 351 1174 351 1174 388 c 4,11,12
 1174 498 1174 498 1190.5 566.5 c 132,-1,13
 1207 635 1207 635 1254 691 c 5,14,-1
 342 691 l 5,15,16
 303 662 303 662 290 622.5 c 132,-1,17
 277 583 277 583 277 506 c 4,18,19
 277 453 277 453 294 334.5 c 132,-1,20
 311 216 311 216 311 162 c 4,21,22
 311 -4 311 -4 184 -22 c 5,23,-1
 173 -4 l 5,24,25
 199 37 199 37 199 119 c 6,26,-1
 199 147 l 5,27,-1
 187 361 l 5,28,-1
 187 408 l 6,29,30
 187 503 187 503 210.5 569.5 c 132,-1,31
 234 636 234 636 292 691 c 5,32,33
 214 691 214 691 188 722 c 132,-1,34
 162 753 162 753 162 817 c 4,35,36
 162 901 162 901 214 956 c 5,37,-1
 237 956 l 5,38,39
 251 897 251 897 321 897 c 6,40,-1
 1214 897 l 6,41,42
 1274 897 1274 897 1299 876 c 132,-1,43
 1324 855 1324 855 1324 798 c 6,44,-1
 1324 796 l 6,45,46
 1324 753 1324 753 1313.5 720.5 c 132,-1,47
 1303 688 1303 688 1291 669.5 c 132,-1,48
 1279 651 1279 651 1268.5 612 c 132,-1,49
 1258 573 1258 573 1258 516 c 4,0,1
EndSplineSet
Validated: 1
PairPos2: "kerning-2" ayin.wide dx=-121 dy=0 dh=-121 dv=0 dx=0 dy=0 dh=0 dv=0
EndChar
StartChar: shevana
Encoding: 140 -1 139
Width: 0
VWidth: 1738
GlyphClass: 4
Flags: W
AnchorPoint: "Bottom Narrow Point" 0 -5 mark 0
LayerCount: 2
Fore
SplineSet
-69 -358 m 25,0,-1
 -68 -517 l 1,1,-1
 68 -517 l 25,2,-1
 68 -358 l 1,3,-1
 -69 -358 l 25,0,-1
-69 -143 m 25,4,-1
 -68 -301 l 1,5,-1
 68 -301 l 25,6,-1
 68 -143 l 1,7,-1
 -69 -143 l 25,4,-1
EndSplineSet
Validated: 9
LCarets2: 1 0
Ligature2: "shva and dagesh" sheva sheva
EndChar
